<svg xmlns="http://www.w3.org/2000/svg" viewBox="0 0 1501.93 960"><defs><style>.cls-1{isolation:isolate;}.cls-2{fill:none;}.cls-3{fill:#d19267;}.cls-11,.cls-12,.cls-15,.cls-3,.cls-6,.cls-7,.cls-8{fill-rule:evenodd;}.cls-4{fill:#fff;}.cls-5{font-size:119.95px;fill:#211915;font-family:MyriadPro-Regular, Myriad Pro;}.cls-6{fill:#dadadd;}.cls-7,.cls-9{fill:#553b2e;}.cls-8{fill:#242323;}.cls-10{fill:#525254;opacity:0.4;mix-blend-mode:multiply;}.cls-11{fill:#47a3a2;}.cls-12,.cls-13{fill:#0a080b;}.cls-14{fill:#2d4965;}.cls-15{fill:#a2a2a3;}</style></defs><title>2_3</title><g class="cls-1"><g id="Camada_2" data-name="Camada 2"><g id="Camada_1-2" data-name="Camada 1"><rect class="cls-2" width="1501.93" height="960"/><path id="_Caminho_" data-name="&lt;Caminho&gt;" class="cls-3" d="M1015.54,497.83s12.86-4.63,16.77-5.58,5.43,3.87-.23,6.25-8.21,2.08-8.21,2.08,10.93-.14,20.47-5.27,10.38,4.89-6.47,9.79c0,0,14.9-6.64,15.47-3.1s-1.3,6.91-19.16,11.5c0,0,17.44-6.07,17.2-1.89s-8.54,5.57-18.69,7.85c0,0,12.4-3.34,11,1.65s-23.29,5.14-29.92-2.62S1015.94,497.52,1015.54,497.83Z"/><path class="cls-3" d="M1015.3,501c-37.42-6.06-71.73-16.23-102.54-31L887.23,486.8s26.69,16.18,65.83,26.11,64.81,5,64.81,5Z"/><path class="cls-4" d="M593.08,613.32l31-63.46a12.55,12.55,0,0,0-5.63-16.72L540.62,494a12.55,12.55,0,0,0-17.06,6L477.09,601.46a12.55,12.55,0,0,0,6.12,16.6l75.72,35.25a12.55,12.55,0,0,0,16.45-5.63Z"/><text class="cls-5" transform="translate(571.2 619.19) rotate(-60.71)">2</text><path class="cls-3" d="M588.69,506.14c33.73-17,67.39-28.94,101-35.3L700.26,443s-31.08,2.9-68.49,17.87-55.19,33.63-55.19,33.63Z"/><path id="_Caminho_composto_" data-name="&lt;Caminho composto&gt;" class="cls-3" d="M815.58,461.24c-6.87-.29-19.47-14-25.87-15.75-9.25-2.49-9-16.26-18.39-18.17-8.79-1.8-17.59-3.75-26.47-5.11-7.29-1.12-15.57-.69-22.07-4.68-8.94-5.5-6.66-16.36-6.56-25.17.11-9.61-1.92-19.18-2.72-28.73q-.92-10.89-1.76-21.79c-.18-2.36-2.08-9.73-.9-11.87a7.32,7.32,0,0,0,.46-1c.64,5.5-3.82-15.41-3.09-9.51,3.51-6.65,3.34-22.2,3.39-25.58.16-12.83,4.9-.31,11-11.77,4.75-9,9.74-12.12,15-12.12,8.42,0,17.48,8.18,27.24,13.53a74.14,74.14,0,0,0,35.56,9.38,67.47,67.47,0,0,0,15.45-1.78,78.63,78.63,0,0,0,24.38-10.53c4.2-2.69,10.78-10.64,16.2-10.64a5.61,5.61,0,0,1,.69,0c7.56,1,14.13,12.24,15.61,18.58,1,4.29-2.23,24.5,2.1,26.53.2.09.39.17.58.23,2.62.86,2,39.54,2.19,43.74.3,7.66.43,15.34.79,23,.3,6.35,2.16,13.15.47,19.42-2.52,9.38-11.29,18.05-18.82,23.77C848.52,434,830,461.85,815.58,461.24Z"/><path id="_Caminho_composto_2" data-name="&lt;Caminho composto&gt;" class="cls-6" d="M862.2,271.12c.72-1.32,1.4-2.67,2-4,.43,1.18.85,2.44,1.28,3.79Z"/><path class="cls-7" d="M880.92,279.17a48.48,48.48,0,0,0-5.11-14.47l0,0c-.18-.31-.38-.59-.57-.89s-.52-.85-.8-1.26-.57-.77-.86-1.15a23.19,23.19,0,0,0-5.28-5.13l-.22-.17c3.86-14.31,3.28-29.91-3.11-42.62a44,44,0,0,0-8.44-11.73h0a30.92,30.92,0,0,1,1.07,4.13c.09.47.2,1,.26,1.41,1.54,11.64-7,16.35-16,24.54,9.35-15.27-4.2-39.26-21.94-43.89,28.73,42.18-26,42.63-52.49,43.91-14.8.73-36.15-.12-42.73,16.2a28.13,28.13,0,0,0-1.82,13.21l-1.32-.39a24.38,24.38,0,0,0-13.43-.26,16.08,16.08,0,0,0-9.7,7.25c-8.28,13.95-4,34.31,1.3,48.48,2.58,6.81,5,21.54,12.13,24.92a7,7,0,0,0,1-2.8v.05c0-.1,0-.21,0-.31a13.58,13.58,0,0,0,.13-1.45c0-.12,0-.24,0-.36,0-.6,0-1.2,0-1.8-.07-1.37-.19-2.72-.2-3.92,0-4.77,0-10.09.51-15.45,1.06-11.35,4.22-22.84,13.37-29.46a17,17,0,0,1,1.51-.87c3.74-2.15,8.48-3.22,12.76-3.78,1.21-.16,2.49-.05,3.56-.18.95.21,1.89.43,2.82.68,3,.78,5.82,1.63,8.6,2.56a88,88,0,0,1,14.89,6.39c2.58,1.41,5.16,2.85,7.79,4.21,5.49,2.84,11.17,5.28,17.38,6a82.34,82.34,0,0,0,31.15-2.92c3.36-.93,6.65-2,9.84-3.27a46.05,46.05,0,0,0,18.48-13.82c1.67,1.7,3.43,3.38,5.14,5.13a56.64,56.64,0,0,1,4.29,4.84c3.63,4.72,5.32,11.24,6.75,16.83.17.67.31,1.36.43,2.07.08.49.14,1,.2,1.49,0,.25.07.48.1.73s0,.48.08.71a43.65,43.65,0,0,0,1.25,7.85c0,.06,0,.13,0,.19a14.42,14.42,0,0,0,.61,1.56c.07.16.12.32.2.47a11.21,11.21,0,0,0,.75,1.23c.12.18.2.37.33.54v0c.08.1.13.22.21.32,4.84-3.36,5.46-15.52,6-20.93A87.2,87.2,0,0,0,880.92,279.17Z"/><path id="_Caminho_2" data-name="&lt;Caminho&gt;" class="cls-8" d="M828.58,337.29c.69,5.17,3.22,9.1,5.66,8.78s3.85-4.78,3.17-10-3.23-9.11-5.67-8.79S827.89,332.1,828.58,337.29Z"/><path id="_Caminho_3" data-name="&lt;Caminho&gt;" class="cls-8" d="M781.81,342.77c.69,5.17,3.23,9.1,5.66,8.78s3.85-4.78,3.16-10-3.23-9.1-5.66-8.78S781.13,337.6,781.81,342.77Z"/><ellipse class="cls-9" cx="813.46" cy="387.5" rx="17.45" ry="12.93"/><ellipse class="cls-10" cx="786.29" cy="804.43" rx="97.1" ry="13.66"/><polygon class="cls-9" points="783.8 315.84 786.22 320.27 772.42 332.79 769.53 327.3 783.8 315.84"/><polygon class="cls-9" points="832.84 315.84 830.91 320.27 841.94 332.79 844.25 327.3 832.84 315.84"/><path class="cls-11" d="M758.1,288.41s-6.18,13.13-7.54,20.09,3.57,10.43,8.32,10.43,8.23-3.32,7.49-9.87S760.9,294,758.1,288.41Z"/><path class="cls-4" d="M752.85,306a3.72,3.72,0,0,0-.1,2.14,1.37,1.37,0,0,0,1.7.93c.59-.26.77-1,.88-1.62.36-2.07,2-7.33.53-9C754.26,300.32,753.47,303.62,752.85,306Z"/><path class="cls-12" d="M943.08,474.56c-30.2-18.27-56.25-26.29-73.47-34.75l1.45-.74-11-14.14-33.6,12.48-4.57,21a81.24,81.24,0,0,1-10.31.28l-5.18-21.28L739,416.2l-3.74,10.9a25.48,25.48,0,0,0-3.81,2.1c-13.92,7.47-40.73,3-93.06,24.64l14.18,32.39,55.54-6.79c-.31,47.19,14.19,135.24,14.19,135.24,118.34,11,140.12,0,140.12,0,2.64-38.92,15.4-98.63,12.68-133.27,4.91,11,54.18,32.58,53.17,30.14Z"/><path class="cls-2" d="M796.48,633.76c0,.16,0,.33,0,.49-2-.26-4.14-.44-6.36-.52-33.24-1.15-32.09,25.26-32.64,79-.28,27.39-1.85,50.64-3.32,66.91h76.49c-1.47-16.26-3-39.52-3.32-66.91C826.79,660,827.8,633.67,796.48,633.76Z"/><path class="cls-13" d="M786.29,614.07l0,.1,6.07,0Z"/><path class="cls-13" d="M797.24,614.08l-4.84,0,4.83,0S797.24,614.11,797.24,614.08Z"/><path class="cls-14" d="M851.5,711.87l11-97.2-65.23-.51-4.83,0-6.07,0-64,.5,11,97.2-5.23,67.62-.51.13h26.6c1.47-16.26,3-39.52,3.32-66.91.55-53.72-.6-80.13,32.64-79,2.23.08,4.34.26,6.36.52,0-.16,0-.33,0-.49,31.32-.09,30.31,26.26,30.85,78.94.28,27.39,1.85,50.64,3.32,66.91h26.6l-.51-.13Z"/><path class="cls-13" d="M833.38,804.43h58.08c0,.29-1.11-16.66-1.11-16.66l-33.1-8.16h-26.6C832.06,795.25,833.38,804.43,833.38,804.43Z"/><path class="cls-13" d="M693.34,804.43h58.08s1.32-9.17,2.73-24.81h-26.6l-33.1,8.16S693.35,804.71,693.34,804.43Z"/><rect class="cls-13" x="720.45" y="608.87" width="141.46" height="10.71"/><rect class="cls-14" x="745.9" y="606.81" width="4.43" height="15.02"/><rect class="cls-14" x="828.61" y="606.81" width="4.43" height="15.02"/><rect class="cls-14" x="720.45" y="606.81" width="142.01" height="2.06"/><path class="cls-15" d="M781.84,606.81v14.28h21.33V606.81Zm19.69,12.64H783.31V608.61h18.22Z"/><path class="cls-3" d="M580.94,512.31a7.75,7.75,0,0,1,1.1-.88s-.45.34-1.1.88a20,20,0,0,0-2.08,2.31l.11-.1a2.87,2.87,0,0,1,2-.89,2.76,2.76,0,0,1,1.09.46c1.06.65,2.06,1.37,3.07,2.09,2.66-3.71,5.24-7.45,5.24-7.45-.14.48-.83-14.91-10.76-17.1S552.18,502.23,554,506.94c1.25,3.29,5.53-.49,8-3.06l1.8-2s-.73.89-1.8,2c-6,6.67-10.69,11.85-8.61,14.92,1.17,1.73,4.48-1.32,7.44-4.7,1.39-1.93,3.13-4.15,5.29-6.73,0,0-2.48,3.51-5.29,6.73-6.12,8.5-5.42,11.33-3.34,13.3,1.4,1.33,4.47-2.23,6.95-5.71a35.27,35.27,0,0,1,3.68-5.65s-1.64,2.8-3.68,5.65c-5,9.71.31,13.76,4.26,5.69C572.35,519.87,578.49,514.34,580.94,512.31Z"/></g></g></g></svg>