<svg xmlns="http://www.w3.org/2000/svg" viewBox="0 0 1501.93 960"><defs><style>.cls-1{isolation:isolate;}.cls-2{fill:#d19267;}.cls-16,.cls-2,.cls-3,.cls-4,.cls-5,.cls-6,.cls-7,.cls-9{fill-rule:evenodd;}.cls-3{fill:#af7554;}.cls-14,.cls-4{fill:#0a080b;}.cls-5{fill:#dadadd;}.cls-6,.cls-8{fill:#553b2e;}.cls-7{fill:#242323;}.cls-9{fill:#996247;}.cls-10{fill:#fff;}.cls-11{font-size:119.95px;fill:#211915;font-family:MyriadPro-Regular, Myriad Pro;}.cls-12{fill:#525254;opacity:0.4;mix-blend-mode:multiply;}.cls-13{fill:none;}.cls-15{fill:#2d4965;}.cls-16{fill:#a2a2a3;}</style></defs><title>7_3</title><g class="cls-1"><g id="Camada_2" data-name="Camada 2"><g id="Camada_1-2" data-name="Camada 1"><path id="_Caminho_composto_" data-name="&lt;Caminho composto&gt;" class="cls-2" d="M816.22,459.68c-6.87-.29-19.47-14-25.87-15.75-9.25-2.49-9-16.26-18.39-18.17-8.79-1.8-17.59-3.75-26.47-5.11-7.29-1.12-15.57-.69-22.07-4.68-8.94-5.5-6.66-16.36-6.56-25.17.11-9.61-1.92-19.18-2.72-28.73q-.92-10.89-1.76-21.79c-.18-2.36-2.08-9.73-.9-11.87a7.32,7.32,0,0,0,.46-1c.64,5.5-3.82-15.41-3.09-9.51,3.51-6.65,3.34-22.2,3.39-25.58.16-12.83,4.9-.31,11-11.77,4.75-9,13.84-7,15-12.12C746.54,244,851.62,231,857,268.39c0,.23.46,0,.69,0,7.56,1,14.13,12.24,15.61,18.58,1,4.29-2.23,24.5,2.1,26.53.2.09.39.17.58.23,2.62.86,2,39.54,2.19,43.74.3,7.66.43,15.34.79,23,.3,6.35,2.16,13.15.47,19.42C877,409.3,868.19,418,860.66,423.69,849.16,432.42,830.64,460.29,816.22,459.68Z"/><path class="cls-3" d="M845.35,384.81a68.54,68.54,0,0,0-14.3-7.85c-4.42-1.72-9,.51-13.47.44s-8.92-2.44-13.24-.26c-4.74,2.38-4.13-.61-8.33,2.61L763.11,405c-8.74,6.7-18.33,15-18.32,26l36.48,14.52c9.59,3.82,20.56,9.3,22.12,19.5l2.29-22.66,2,18.46a27.53,27.53,0,0,1,14.49,1.67l6-13.08c.68-1.47,1.35-2.94,2.16-4.33,5.37-9.26,15.71-14.18,24.84-19.78,8.91-5.46,24.35-12.93,22.2-24.25C875.57,391.64,852.85,390.07,845.35,384.81Z"/><path class="cls-2" d="M657.87,514.06C654,516.37,643,508.87,643,497.55c-.48-23.84,17.65-79.63,15.46-98.51,2.79,3.87,7.75,17.62,7.64,22.39-.06,2.38,3,1.3,2.9,3.68-1,16.81-2.45,36.8-3.15,54.51,2.36-3.1,3.2-3.45,7-2.75a10.69,10.69,0,0,1,4,2c8.07,5.62,21,10.06,9.38,18.29C677.4,503.48,667.23,508.44,657.87,514.06Z"/><path class="cls-4" d="M717.59,447a156.78,156.78,0,0,0-26.42-7.18A105.56,105.56,0,0,1,669,465.58a26.63,26.63,0,0,0-2.51,2.34l-.38,8.51c.43.45.88.88,1.35,1.28a154.17,154.17,0,0,0,21.74,15.88c1.57,1,3.32,1.91,5.14,1.64,2.12-.31,3.61-2.17,4.89-3.88L718.1,466C723.91,458.19,729.82,451.54,717.59,447Z"/><path id="_Caminho_composto_2" data-name="&lt;Caminho composto&gt;" class="cls-5" d="M862.84,269.56c.72-1.32,1.4-2.67,2-4,.43,1.18.85,2.44,1.28,3.79Z"/><path class="cls-6" d="M879.69,282.5a62.29,62.29,0,0,0-5.11-16.77l0,0c-.18-.36-.38-.68-.57-1s-.52-1-.8-1.46-.57-.89-.86-1.33a25.21,25.21,0,0,0-5.28-5.95l-.22-.2c3.86-16.58,6.2-47-.19-61.77a51.55,51.55,0,0,0-8.44-13.59h0a40.52,40.52,0,0,1,1.07,4.78c.09.55.2,1.11.26,1.63,1.54,13.49-9.27,13-18.21,22.48,9.35-17.69-17.82-42.43-35.56-47.8,28.73,48.88-19.73,47.75-46.2,49.23-14.8.84-29.5,16.78-36.08,35.7a37.38,37.38,0,0,0-1.82,15.31l-1.32-.45A21.18,21.18,0,0,0,707,261a16.52,16.52,0,0,0-9.7,8.4c-8.28,16.17-4,39.76,1.3,56.19,2.58,7.89,5,25,12.13,28.88a8.91,8.91,0,0,0,1-3.25v.06c0-.12,0-.24,0-.36q.1-.82.13-1.68c0-.14,0-.28,0-.42,0-.69,0-1.39,0-2.09-.07-1.58-.19-3.15-.2-4.55,0-5.52,0-11.7.51-17.91,1.06-13.15,4.22-26.47,13.37-34.14.46-.39,1.15-.52,1.51-1,38.47-51.8,122.38-32,127.28-4.8,1.67,2,3.43,3.92,5.14,6a63.61,63.61,0,0,1,4.29,5.61c3.63,5.47,5.32,13,6.75,19.5.17.77.31,1.58.43,2.4.08.56.14,1.15.2,1.73,0,.28.07.56.1.85s0,.55.08.83a58,58,0,0,0,1.25,9.1c0,.07,0,.15,0,.22a18.38,18.38,0,0,0,.61,1.8c.07.18.12.37.2.55a13.51,13.51,0,0,0,.75,1.42c.12.2.2.43.33.62v0c.08.12.13.25.21.37,4.84-3.89,5.46-18,6-24.25A116.89,116.89,0,0,0,879.69,282.5Z"/><path id="_Caminho_" data-name="&lt;Caminho&gt;" class="cls-7" d="M829.22,300.28c.69,5.17,3.22,9.1,5.66,8.78s3.85-4.78,3.17-10-3.23-9.11-5.67-8.79S828.53,295.09,829.22,300.28Z"/><path id="_Caminho_2" data-name="&lt;Caminho&gt;" class="cls-7" d="M782.45,301.82c.69,5.17,3.23,9.1,5.66,8.78s3.85-4.78,3.16-10-3.23-9.1-5.66-8.78S781.77,296.65,782.45,301.82Z"/><ellipse class="cls-8" cx="817.59" cy="337.2" rx="13.46" ry="9.97"/><polygon class="cls-8" points="784.45 278.83 786.86 283.26 773.06 295.78 770.17 290.29 784.45 278.83"/><polygon class="cls-8" points="827.72 276.21 826.86 280.96 840.47 290.62 841.45 284.75 827.72 276.21"/><path class="cls-9" d="M844.29,393.71a53.54,53.54,0,0,0-11.17-6.14c-3.45-1.34-7,.4-10.52.35s-7-1.9-10.34-.21c-3.7,1.86-3.22-.48-6.51,2L780,409.45c-6.83,5.23-14.32,11.73-14.31,20.33l28.5,11.34c7.49,3,16.07,7.26,17.28,15.23l1.79-17.7,1.53,14.42a21.51,21.51,0,0,1,11.32,1.3l4.71-10.22c.53-1.15,1.06-2.29,1.69-3.39,4.2-7.24,12.27-11.08,19.4-15.45,7-4.26,19-10.1,17.34-18.94C867.9,399,850.15,397.82,844.29,393.71Z"/><path class="cls-4" d="M910.35,491.46c0-17.05-22.88-44.76-40.1-53.22l1.45-.74-11-14.14-33.6,12.48-4.57,21c-3.15.3.58.4-3.15.28l-2.09-22.35-77.64-20.14-3.74,10.9a25.48,25.48,0,0,0-3.81,2.1l-30.68,16.46c-.31,47.19,21.54,169,21.54,169,118.34,11,140.12,0,140.12,0,2.64-38.92,18.56-76.49,15.83-111.12,3.8,5.36-.77,3.45,11.39,6.89S910.35,508.52,910.35,491.46Z"/><path class="cls-2" d="M803,451.44c28.44,13.92,85.22,29.7,85.22,29.7,17.91-5.74,23.6,21.76,8.82,21.76,0,0-26.27-3-57.83-15.45s-46.51-27.3-46.51-27.3Z"/><path class="cls-10" d="M718.62,452.73,789.11,457a12.55,12.55,0,0,0,13.27-11.62l6.33-86.9A12.55,12.55,0,0,0,796.64,345l-111.59-3.95a12.55,12.55,0,0,0-13,12l-3.49,83.45a12.55,12.55,0,0,0,11.51,13Z"/><text class="cls-11" transform="matrix(1, 0.02, -0.02, 1, 707.98, 437.96)">7</text><path class="cls-2" d="M799.85,445.69c.46.45.88.84,1.22,1.11.66.48,1.12.79,1.12.79Z"/><path class="cls-2" d="M802.73,440.56l-.55,7a8,8,0,0,1-1.12-.79,54.12,54.12,0,0,1-5.28-4.41l-.07-.06h0a40.12,40.12,0,0,1-7.15-8.82c-4.08-7.09-9.32-3.62-4.16,4.91,2.08,2.52,3.77,5,3.77,5a32.1,32.1,0,0,1-3.77-5c-2.53-3.07-5.65-6.21-7-5.07-2,1.69-2.7,4.15,3.56,11.64,2.86,2.84,5.4,5.93,5.4,5.93-2.2-2.27-4-4.23-5.4-5.93-3-3-6.37-5.69-7.51-4.2-2,2.66,2.74,7.23,8.85,13.12,1.08,1,1.83,1.77,1.83,1.77l-1.83-1.77c-2.51-2.28-6.84-5.62-8-2.77-1.71,4.08,16,15.45,25.86,13.66s10.31-15.2,10.45-14.78C810.54,450,806,444.42,802.73,440.56Z"/><path class="cls-2" d="M681.24,398.48c-6.73,1.46-13.35,2.38-13.35,2.38,5.28-1.07,9.68-1.85,13.35-2.38,7.08-1.54,14.28-3.68,14-6-.48-4.15-11.54-1.6-25.77,1.65-2.4.6-4.18.95-4.18.95l4.18-.95c5.66-1.42,14.89-4.29,13.16-7.61-1.55-3-11.14-1.92-20.58,2.47l-.67,1c-3,4.53-3.17,10.28-3.26,15.69-.06,3.48-.18,7.36,1.39,10.58a7.72,7.72,0,0,0,1.15,1.67,24.06,24.06,0,0,0,2.43,4.78,4.93,4.93,0,0,0,1.79,1.78,5.47,5.47,0,0,0,2,.41l2.85.21-.18-8.24a79.83,79.83,0,0,1,15.07-1.74c13-.06,15.62-8.54-.35-8.16-5.4.76-10.26,1.1-10.26,1.1A67.28,67.28,0,0,1,684.3,407c6.58-.93,14-2.5,14.41-4.88C699.34,398.55,697.41,396.13,681.24,398.48Z"/><ellipse class="cls-12" cx="786.93" cy="802.87" rx="97.1" ry="13.66"/><path class="cls-13" d="M797.12,632.2c0,.16,0,.33,0,.49-2-.26-4.14-.44-6.36-.52-33.24-1.15-32.09,25.26-32.64,79-.28,27.39-1.85,50.64-3.32,66.91h76.49c-1.47-16.26-3-39.52-3.32-66.91C827.43,658.46,828.44,632.11,797.12,632.2Z"/><path class="cls-14" d="M786.93,612.51l0,.1,6.07,0Z"/><path class="cls-14" d="M797.88,612.52l-4.84,0,4.83,0S797.88,612.54,797.88,612.52Z"/><path class="cls-15" d="M852.14,710.31l11-97.2-65.23-.51-4.83,0-6.07,0-64,.5,11,97.2-5.23,67.62-.51.13h26.6c1.47-16.26,3-39.52,3.32-66.91.55-53.72-.6-80.13,32.64-79,2.23.08,4.34.26,6.36.52,0-.16,0-.33,0-.49,31.32-.09,30.31,26.26,30.85,78.94.28,27.39,1.85,50.64,3.32,66.91h26.6l-.51-.13Z"/><path class="cls-14" d="M834,802.87H892.1c0,.29-1.11-16.66-1.11-16.66l-33.1-8.16h-26.6C832.7,793.69,834,802.87,834,802.87Z"/><path class="cls-14" d="M694,802.87h58.08s1.32-9.17,2.73-24.81H728.2l-33.1,8.16S694,803.15,694,802.87Z"/><rect class="cls-14" x="721.09" y="607.31" width="141.46" height="10.71"/><rect class="cls-15" x="746.54" y="605.25" width="4.43" height="15.02"/><rect class="cls-15" x="829.25" y="605.25" width="4.43" height="15.02"/><rect class="cls-15" x="721.09" y="605.25" width="142.01" height="2.06"/><path class="cls-16" d="M782.48,605.25v14.28h21.33V605.25Zm19.69,12.64H784V607.05h18.22Z"/><rect class="cls-13" width="1501.93" height="960"/></g></g></g></svg>