<?xml version="1.0" encoding="iso-8859-1"?>
<!-- Generator: Adobe Illustrator 19.0.0, SVG Export Plug-In . SVG Version: 6.00 Build 0)  -->
<svg version="1.1" id="Layer_1" xmlns="http://www.w3.org/2000/svg" xmlns:xlink="http://www.w3.org/1999/xlink" x="0px" y="0px"
	 viewBox="0 0 24 24" style="enable-background:new 0 0 24 24;" xml:space="preserve">
<g id="XMLID_1154_">
	<path id="XMLID_1162_" style="fill:none;" d="M0,0h14.281v14.281H0V0z"/>
	<path id="XMLID_1161_" style="fill:#944684;" d="M10.265,11.046l-4.296,2.566l0.725,1.172l5.021-3.012V6.025h-1.45L10.265,11.046
		L10.265,11.046z"/>
	<path id="XMLID_1157_" style="fill:#F5A622;" d="M8.814,23.04h14.17l-7.085-12.217L8.814,23.04z M16.569,21.087h-1.283v-1.283
		h1.283V21.087z M16.569,18.521h-1.283v-2.566h1.283V18.521z"/>
	<path id="XMLID_1156_" style="fill:#944684;" d="M10.488,18.465c-4.128-0.167-7.364-3.515-7.364-7.643
		c0-4.24,3.459-7.699,7.699-7.699c4.24,0,7.699,3.459,7.699,7.699c0,0.725-0.112,1.45-0.335,2.12l1.227,2.12
		c0.614-1.283,1.004-2.734,1.004-4.24c0-5.3-4.296-9.595-9.595-9.595s-9.595,4.296-9.595,9.595c0,4.853,3.57,8.814,8.256,9.484
		L10.488,18.465z"/>
</g>
</svg>
