<svg xmlns="http://www.w3.org/2000/svg" viewBox="0 0 1501.93 960"><defs><style>.cls-1{isolation:isolate;}.cls-2{fill:none;}.cls-3{fill:#fff;}.cls-4{font-size:119.95px;fill:#211915;font-family:MyriadPro-Regular, Myriad Pro;}.cls-5{fill:#d19267;}.cls-11,.cls-12,.cls-15,.cls-5,.cls-6,.cls-7,.cls-8{fill-rule:evenodd;}.cls-6{fill:#dadadd;}.cls-7,.cls-9{fill:#553b2e;}.cls-8{fill:#242323;}.cls-10{fill:#525254;opacity:0.4;mix-blend-mode:multiply;}.cls-11{fill:#47a3a2;}.cls-12,.cls-13{fill:#0a080b;}.cls-14{fill:#2d4965;}.cls-15{fill:#a2a2a3;}</style></defs><title>1_5</title><g class="cls-1"><g id="Camada_2" data-name="Camada 2"><g id="Camada_1-2" data-name="Camada 1"><rect class="cls-2" width="1501.93" height="960"/><path class="cls-3" d="M705.15,754l69.06-14.78a12.55,12.55,0,0,0,9.68-14.75L766.71,639.1a12.55,12.55,0,0,0-15.24-9.73L642.9,655.45a12.55,12.55,0,0,0-9.29,15.06l19,81.34a12.55,12.55,0,0,0,14.58,9.47Z"/><text class="cls-4" transform="matrix(0.99, -0.15, 0.15, 0.99, 687.03, 740.44)">1</text><path id="_Caminho_" data-name="&lt;Caminho&gt;" class="cls-5" d="M722.17,620.24s8.26,8.84,10.46,11.75-.52,6.64-4.39,2.92-4.68-6.08-4.68-6.08,4.42,9.4,11.71,15.12.74,11.44-9.28-.73c0,0,10.45,9.61,8.24,11.86s-5.26,2.32-15.47-10.88c0,0,11.06,12.09,8.1,14s-7.21-4.63-12.79-12.29c0,0,7.19,9.08,3.19,10.32s-12.74-17.63-10-27.24S722.54,620.43,722.17,620.24Z"/><path class="cls-5" d="M719.89,621.62c-10.62-35.46-17.19-70.27-19.19-104.37L679,503.51s-.57,31.2,8.08,70.09,22.15,58.7,22.15,58.7Z"/><path id="_Caminho_composto_" data-name="&lt;Caminho composto&gt;" class="cls-5" d="M816.14,459.66c-6.87-.29-19.47-14-25.87-15.75-9.25-2.49-9-16.26-18.39-18.17-8.79-1.8-17.59-3.75-26.47-5.11-7.29-1.12-15.57-.69-22.07-4.68-8.94-5.5-6.66-16.36-6.56-25.17.11-9.61-1.92-19.18-2.72-28.73q-.92-10.89-1.76-21.79c-.18-2.36-2.08-9.73-.9-11.87a7.32,7.32,0,0,0,.46-1c.64,5.5-3.82-15.41-3.09-9.51,3.51-6.65,3.34-22.2,3.39-25.58.16-12.83,4.9-.31,11-11.77,4.75-9,9.74-12.12,15-12.12,8.42,0,17.48,8.18,27.24,13.53a74.14,74.14,0,0,0,35.56,9.38,67.47,67.47,0,0,0,15.45-1.78A78.63,78.63,0,0,0,840.76,279c4.2-2.69,10.78-10.64,16.2-10.64a5.61,5.61,0,0,1,.69,0c7.56,1,14.13,12.24,15.61,18.58,1,4.29-2.23,24.5,2.1,26.53.2.09.39.17.58.23,2.62.86,2,39.54,2.19,43.74.3,7.66.43,15.34.79,23,.3,6.35,2.16,13.15.47,19.42-2.52,9.38-11.29,18.05-18.82,23.77C849.08,432.39,830.56,460.26,816.14,459.66Z"/><path id="_Caminho_composto_2" data-name="&lt;Caminho composto&gt;" class="cls-6" d="M862.76,269.53c.72-1.32,1.4-2.67,2-4,.43,1.18.85,2.44,1.28,3.79Z"/><path class="cls-7" d="M881.48,277.59a48.48,48.48,0,0,0-5.11-14.47l0,0c-.18-.31-.38-.59-.57-.89s-.52-.85-.8-1.26-.57-.77-.86-1.15a23.19,23.19,0,0,0-5.28-5.13l-.22-.17c3.86-14.31,3.28-29.91-3.11-42.62a44,44,0,0,0-8.44-11.73h0a30.92,30.92,0,0,1,1.07,4.13c.09.47.2,1,.26,1.41,1.54,11.64-7,16.35-16,24.54,9.35-15.27-4.2-39.26-21.94-43.89,28.73,42.18-26,42.63-52.49,43.91-14.8.73-36.15-.12-42.73,16.2a28.13,28.13,0,0,0-1.82,13.21l-1.32-.39a24.38,24.38,0,0,0-13.43-.26,16.08,16.08,0,0,0-9.7,7.25c-8.28,13.95-4,34.31,1.3,48.48,2.58,6.81,5,21.54,12.13,24.92a7,7,0,0,0,1-2.8v.05c0-.1,0-.21,0-.31a13.58,13.58,0,0,0,.13-1.45c0-.12,0-.24,0-.36,0-.6,0-1.2,0-1.8-.07-1.37-.19-2.72-.2-3.92,0-4.77,0-10.09.51-15.45,1.06-11.35,4.22-22.84,13.37-29.46a17,17,0,0,1,1.51-.87c3.74-2.15,8.48-3.22,12.76-3.78,1.21-.16,2.49-.05,3.56-.18.95.21,1.89.43,2.82.68,3,.78,5.82,1.63,8.6,2.56a88,88,0,0,1,14.89,6.39c2.58,1.41,5.16,2.85,7.79,4.21,5.49,2.84,11.17,5.28,17.38,6a82.34,82.34,0,0,0,31.15-2.92c3.36-.93,6.65-2,9.84-3.27a46.05,46.05,0,0,0,18.48-13.82c1.67,1.7,3.43,3.38,5.14,5.13a56.64,56.64,0,0,1,4.29,4.84c3.63,4.72,5.32,11.24,6.75,16.83.17.67.31,1.36.43,2.07.08.49.14,1,.2,1.49,0,.25.07.48.1.73s0,.48.08.71a43.65,43.65,0,0,0,1.25,7.85c0,.06,0,.13,0,.19a14.42,14.42,0,0,0,.61,1.56c.07.16.12.32.2.47a11.21,11.21,0,0,0,.75,1.23c.12.18.2.37.33.54v0c.08.1.13.22.21.32,4.84-3.36,5.46-15.52,6-20.93A87.2,87.2,0,0,0,881.48,277.59Z"/><path id="_Caminho_2" data-name="&lt;Caminho&gt;" class="cls-8" d="M829.14,335.7c.69,5.17,3.22,9.1,5.66,8.78s3.85-4.78,3.17-10-3.23-9.11-5.67-8.79S828.45,330.51,829.14,335.7Z"/><path id="_Caminho_3" data-name="&lt;Caminho&gt;" class="cls-8" d="M782.37,341.18c.69,5.17,3.23,9.1,5.66,8.78s3.85-4.78,3.16-10-3.23-9.1-5.66-8.78S781.68,336,782.37,341.18Z"/><ellipse class="cls-9" cx="813.57" cy="384.43" rx="13.46" ry="9.97"/><ellipse class="cls-10" cx="786.85" cy="802.84" rx="97.1" ry="13.66"/><polygon class="cls-9" points="784.36 314.25 786.78 318.69 772.98 331.2 770.09 325.72 784.36 314.25"/><polygon class="cls-9" points="833.4 314.25 831.47 318.69 842.49 331.2 844.8 325.72 833.4 314.25"/><path class="cls-11" d="M739,310.45s-6.18,13.13-7.54,20.09S735,341,739.74,341s8.23-3.32,7.49-9.87S741.77,316.07,739,310.45Z"/><path class="cls-3" d="M733.71,328.06a3.72,3.72,0,0,0-.1,2.14,1.37,1.37,0,0,0,1.7.93c.59-.26.77-1,.88-1.62.36-2.07,2-7.33.53-9C735.12,322.37,734.33,325.67,733.71,328.06Z"/><path class="cls-12" d="M922.08,499.31c-8.53-34.5-34.7-52.63-51.92-61.1l1.45-.74-11-14.14L827,435.82l-4.57,21a81.24,81.24,0,0,1-10.31.28L807,435.82l-67.38-21.21-3.74,10.9a25.48,25.48,0,0,0-3.81,2.1c-13.92,7.47-62.27,37.22-63.56,90.59l38.54,2c-.31,47.19,15.87,92.88,15.87,92.88,118.34,11,140.12,0,140.12,0,2.64-38.92,18.56-76.49,15.83-111.12a40.25,40.25,0,0,1,7.45,18.71Z"/><path class="cls-2" d="M797,632.18c0,.16,0,.33,0,.49-2-.26-4.14-.44-6.36-.52-33.24-1.15-32.09,25.26-32.64,79-.28,27.39-1.85,50.64-3.32,66.91h76.49c-1.47-16.26-3-39.52-3.32-66.91C827.35,658.43,828.36,632.08,797,632.18Z"/><path class="cls-13" d="M786.85,612.48l0,.1,6.07,0Z"/><path class="cls-13" d="M797.8,612.49l-4.84,0,4.83,0S797.8,612.52,797.8,612.49Z"/><path class="cls-14" d="M852.06,710.29l11-97.2-65.23-.51-4.83,0-6.07,0-64,.5,11,97.2-5.23,67.62-.51.13h26.6c1.47-16.26,3-39.52,3.32-66.91.55-53.72-.6-80.13,32.64-79,2.23.08,4.34.26,6.36.52,0-.16,0-.33,0-.49,31.32-.09,30.31,26.26,30.85,78.94.28,27.39,1.85,50.64,3.32,66.91h26.6l-.51-.13Z"/><path class="cls-13" d="M833.94,802.84H892c0,.29-1.11-16.66-1.11-16.66L857.81,778h-26.6C832.62,793.67,833.94,802.84,833.94,802.84Z"/><path class="cls-13" d="M693.9,802.84H752s1.32-9.17,2.73-24.81h-26.6L695,786.18S693.9,803.13,693.9,802.84Z"/><rect class="cls-13" x="721.01" y="607.28" width="141.46" height="10.71"/><rect class="cls-14" x="746.45" y="605.22" width="4.43" height="15.02"/><rect class="cls-14" x="829.16" y="605.22" width="4.43" height="15.02"/><rect class="cls-14" x="721.01" y="605.22" width="142.01" height="2.06"/><path class="cls-15" d="M782.39,605.22V619.5h21.33V605.22Zm19.69,12.64H783.87V607h18.22Z"/><path class="cls-11" d="M871.31,334.09s-6.18,13.13-7.54,20.09,3.57,10.43,8.32,10.43,8.23-3.32,7.49-9.87S874.12,339.7,871.31,334.09Z"/><path class="cls-3" d="M866.06,351.69a3.72,3.72,0,0,0-.1,2.14,1.37,1.37,0,0,0,1.7.93c.59-.26.77-1,.88-1.62.36-2.07,2-7.33.53-9C867.48,346,866.69,349.3,866.06,351.69Z"/><path class="cls-11" d="M739,391.78s-6.18,13.13-7.54,20.09,3.57,10.43,8.32,10.43,8.23-3.32,7.49-9.87S741.77,397.4,739,391.78Z"/><path class="cls-3" d="M733.71,409.39a3.72,3.72,0,0,0-.1,2.14,1.37,1.37,0,0,0,1.7.93c.59-.26.77-1,.88-1.62.36-2.07,2-7.33.53-9C735.12,403.69,734.33,407,733.71,409.39Z"/><path id="_Caminho_4" data-name="&lt;Caminho&gt;" class="cls-5" d="M844.59,514.3s-.33-30.4.45-39.35,11-9.07,11.83,4.53-1.47,18.86-1.47,18.86,7-23.39,3.52-47,16.29-19,14.47,20.13c0,0-2.82-36.05,4.35-35s12.39,7.24,9.31,48.28c0,0,0-41.09,7.81-37.88s5,21.81,2.63,44.93c0,0,1.84-28.58,10.45-22.28s-5.64,53-24.93,62.06S844.25,513.23,844.59,514.3Z"/><path class="cls-5" d="M910.91,516a15.35,15.35,0,0,1-.67,5.23,13.81,13.81,0,0,1-3.47,4.93c-4.7,4.67-10.95,8-17.56,8.32s-13.52-2.61-17.15-8.15c12-6.14,25.12-16.12,37.91-19.85C910.91,509.46,910.91,512.81,910.91,516Z"/></g></g></g></svg>