<svg xmlns="http://www.w3.org/2000/svg" viewBox="0 0 1501.93 960"><defs><style>.cls-1{isolation:isolate;}.cls-2{fill:none;}.cls-3{fill:#d19267;}.cls-11,.cls-14,.cls-3,.cls-4,.cls-5,.cls-6,.cls-9{fill-rule:evenodd;}.cls-4{fill:#dadadd;}.cls-5,.cls-7{fill:#553b2e;}.cls-6{fill:#242323;}.cls-8{fill:#525254;opacity:0.4;mix-blend-mode:multiply;}.cls-9{fill:#47a3a2;}.cls-10{fill:#fff;}.cls-11,.cls-12{fill:#0a080b;}.cls-13{fill:#2d4965;}.cls-14{fill:#a2a2a3;}.cls-15{font-size:119.95px;fill:#211915;font-family:MyriadPro-Regular, Myriad Pro;}</style></defs><title>3_3</title><g class="cls-1"><g id="Camada_2" data-name="Camada 2"><g id="Camada_1-2" data-name="Camada 1"><rect class="cls-2" width="1501.93" height="960"/><path class="cls-3" d="M892.56,612s-20.31-54-18.18-88.1l23-13.74L910.2,611.91Z"/><path id="_Caminho_composto_" data-name="&lt;Caminho composto&gt;" class="cls-3" d="M816.25,460.57c-6.87-.29-19.47-14-25.87-15.75-9.25-2.49-9-16.26-18.39-18.17-8.79-1.8-17.59-3.75-26.47-5.11-7.29-1.12-15.57-.69-22.07-4.68-8.94-5.5-6.66-16.36-6.56-25.17.11-9.61-1.92-19.18-2.72-28.73q-.92-10.89-1.76-21.79c-.18-2.36-2.08-9.73-.9-11.87a7.32,7.32,0,0,0,.46-1c.64,5.5-3.82-15.41-3.09-9.51,3.51-6.65,3.34-22.2,3.39-25.58.16-12.83,4.9-.31,11-11.77,4.75-9,9.74-12.12,15-12.12,8.42,0,17.48,8.18,27.24,13.53A74.14,74.14,0,0,0,801,292.23a67.47,67.47,0,0,0,15.45-1.78,78.63,78.63,0,0,0,24.38-10.53c4.2-2.69,10.78-10.64,16.2-10.64a5.61,5.61,0,0,1,.69,0c7.56,1,14.13,12.24,15.61,18.58,1,4.29-2.23,24.5,2.1,26.53.2.09.39.17.58.23,2.62.86,2,39.54,2.19,43.74.3,7.66.43,15.34.79,23,.3,6.35,2.16,13.15.47,19.42-2.52,9.38-11.29,18.05-18.82,23.77C849.2,433.3,830.68,461.18,816.25,460.57Z"/><path id="_Caminho_composto_2" data-name="&lt;Caminho composto&gt;" class="cls-4" d="M862.87,270.44c.72-1.32,1.4-2.67,2-4,.43,1.18.85,2.44,1.28,3.79Z"/><path class="cls-5" d="M881.6,278.5A48.48,48.48,0,0,0,876.49,264l0,0c-.18-.31-.38-.59-.57-.89s-.52-.85-.8-1.26-.57-.77-.86-1.15a23.19,23.19,0,0,0-5.28-5.13l-.22-.17c3.86-14.31,3.28-29.91-3.11-42.62A44,44,0,0,0,857.24,201h0a30.92,30.92,0,0,1,1.07,4.13c.09.47.2,1,.26,1.41,1.54,11.64-7,16.35-16,24.54,9.35-15.27-4.2-39.26-21.94-43.89,28.73,42.18-26,42.63-52.49,43.91-14.8.73-36.15-.12-42.73,16.2a28.13,28.13,0,0,0-1.82,13.21l-1.32-.39a24.38,24.38,0,0,0-13.43-.26,16.08,16.08,0,0,0-9.7,7.25c-8.28,13.95-4,34.31,1.3,48.48,2.58,6.81,5,21.54,12.13,24.92a7,7,0,0,0,1-2.8v.05c0-.1,0-.21,0-.31a13.58,13.58,0,0,0,.13-1.45c0-.12,0-.24,0-.36,0-.6,0-1.2,0-1.8-.07-1.37-.19-2.72-.2-3.92,0-4.77,0-10.09.51-15.45,1.06-11.35,4.22-22.84,13.37-29.46a17,17,0,0,1,1.51-.87c3.74-2.15,8.48-3.22,12.76-3.78,1.21-.16,2.49-.05,3.56-.18.95.21,1.89.43,2.82.68,3,.78,5.82,1.63,8.6,2.56a88,88,0,0,1,14.89,6.39c2.58,1.41,5.16,2.85,7.79,4.21,5.49,2.84,11.17,5.28,17.38,6a82.34,82.34,0,0,0,31.15-2.92c3.36-.93,6.65-2,9.84-3.27A46.05,46.05,0,0,0,856.24,280c1.67,1.7,3.43,3.38,5.14,5.13a56.64,56.64,0,0,1,4.29,4.84c3.63,4.72,5.32,11.24,6.75,16.83.17.67.31,1.36.43,2.07.08.49.14,1,.2,1.49,0,.25.07.48.1.73s0,.48.08.71a43.65,43.65,0,0,0,1.25,7.85c0,.06,0,.13,0,.19a14.42,14.42,0,0,0,.61,1.56c.07.16.12.32.2.47a11.21,11.21,0,0,0,.75,1.23c.12.18.2.37.33.54v0c.08.1.13.22.21.32,4.84-3.36,5.46-15.52,6-20.93A87.2,87.2,0,0,0,881.6,278.5Z"/><path id="_Caminho_" data-name="&lt;Caminho&gt;" class="cls-6" d="M829.25,336.61c.69,5.17,3.22,9.1,5.66,8.78s3.85-4.78,3.17-10-3.23-9.11-5.67-8.79S828.56,331.43,829.25,336.61Z"/><path id="_Caminho_2" data-name="&lt;Caminho&gt;" class="cls-6" d="M782.48,342.1c.69,5.17,3.23,9.1,5.66,8.78s3.85-4.78,3.16-10-3.23-9.1-5.66-8.78S781.8,336.92,782.48,342.1Z"/><ellipse class="cls-7" cx="813.68" cy="384.31" rx="3.14" ry="13.46" transform="translate(170.28 1013.43) rotate(-69.64)"/><path id="_Caminho_3" data-name="&lt;Caminho&gt;" class="cls-3" d="M913.4,603.58s9.59,12,12,15.91-2.3,7.88-6.89,2.74-5.17-8.11-5.17-8.11,4,12,13,20.18-1.66,13.86-13-2.48c0,0,12.5,13.34,8.85,15.67s-8,1.88-19.3-15.73c0,0,12.78,16.43,8.14,18.16s-9.09-6.8-15.17-17c0,0,8,12.15,2.08,12.94s-13.84-23.36-7.72-34.43S913.88,603.88,913.4,603.58Z"/><ellipse class="cls-8" cx="786.97" cy="803.76" rx="97.1" ry="13.66"/><polygon class="cls-7" points="784.48 315.17 786.89 319.6 773.09 332.12 770.2 326.63 784.48 315.17"/><polygon class="cls-7" points="824.62 324.19 827.76 327.87 843.84 323.43 839.91 318.95 824.62 324.19"/><path class="cls-9" d="M739.07,311.37s-6.18,13.13-7.54,20.09,3.57,10.43,8.32,10.43,8.23-3.32,7.49-9.87S741.88,317,739.07,311.37Z"/><path class="cls-10" d="M733.82,329a3.72,3.72,0,0,0-.1,2.14,1.37,1.37,0,0,0,1.7.93c.59-.26.77-1,.88-1.62.36-2.07,2-7.33.53-9C735.24,323.28,734.45,326.58,733.82,329Z"/><path class="cls-11" d="M902.77,517.92c-8.53-34.5-15.27-70.33-32.49-78.79l1.45-.74-11-14.14-33.6,12.48-4.57,21a81.24,81.24,0,0,1-10.31.28l-5.18-21.28L739.7,415.52,736,426.42a25.48,25.48,0,0,0-3.81,2.1c-13.92,7.47-62.27,37.22-63.56,90.59l38.54,2C706.84,568.31,723,614,723,614c118.34,11,140.12,0,140.12,0,2.64-38.92,18.56-76.49,15.83-111.12,3.8,5.36-1.14,12.92-.26,20.15Z"/><path class="cls-2" d="M797.15,633.09c0,.16,0,.33,0,.49-2-.26-4.14-.44-6.36-.52-33.24-1.15-32.09,25.26-32.64,79-.28,27.39-1.85,50.64-3.32,66.91h76.49c-1.47-16.26-3-39.52-3.32-66.91C827.46,659.34,828.47,633,797.15,633.09Z"/><path class="cls-12" d="M787,613.39l0,.1,6.07,0Z"/><path class="cls-12" d="M797.91,613.4l-4.84,0,4.83,0S797.91,613.43,797.91,613.4Z"/><path class="cls-13" d="M852.18,711.2l11-97.2-65.23-.51-4.83,0-6.07,0-64,.5,11,97.2-5.23,67.62-.51.13h26.6c1.47-16.26,3-39.52,3.32-66.91.55-53.72-.6-80.13,32.64-79,2.23.08,4.34.26,6.36.52,0-.16,0-.33,0-.49C828.47,633,827.46,659.34,828,712c.28,27.39,1.85,50.64,3.32,66.91h26.6l-.51-.13Z"/><path class="cls-12" d="M834.05,803.75h58.08c0,.29-1.11-16.66-1.11-16.66l-33.1-8.16h-26.6C832.73,794.58,834.05,803.75,834.05,803.75Z"/><path class="cls-12" d="M694,803.75H752.1s1.32-9.17,2.73-24.81h-26.6l-33.1,8.16S694,804,694,803.75Z"/><rect class="cls-12" x="721.13" y="608.2" width="141.46" height="10.71"/><rect class="cls-13" x="746.57" y="606.13" width="4.43" height="15.02"/><rect class="cls-13" x="829.28" y="606.13" width="4.43" height="15.02"/><rect class="cls-13" x="721.13" y="606.13" width="142.01" height="2.06"/><path class="cls-14" d="M782.51,606.13v14.28h21.33V606.13Zm19.69,12.64H784V607.94H802.2Z"/><path class="cls-10" d="M663.56,576.69l69.06-14.78a12.55,12.55,0,0,0,9.68-14.75l-17.18-85.43A12.55,12.55,0,0,0,709.88,452L601.31,478.09A12.55,12.55,0,0,0,592,493.15l19,81.34A12.55,12.55,0,0,0,625.59,584Z"/><text class="cls-15" transform="matrix(0.99, -0.15, 0.15, 0.99, 645.44, 563.08)">3</text><path class="cls-3" d="M640.55,566.47c-.76-1.72-5.86.08-10.66,2.25-2.38,1.3-5.29,2.77-8.84,4.44,0,0,4.28-2.38,8.84-4.44,10.49-5.74,10.69-8.28,8.92-10.41-1.19-1.44-6.18.85-10.44,3.21a45.86,45.86,0,0,1-6.5,3.91s3-2,6.5-3.91c9.6-7,4.73-11.63-3-5.76a65.53,65.53,0,0,1-16.72,8.65h0c-1.47.53-2.72.94-3.62,1.22a12.54,12.54,0,0,1-1.59.47s.6-.16,1.59-.47a30.19,30.19,0,0,0,3.54-1.56l-1.34-5.76c-5.48,2.85-7.27,4.78-7.27,4.78.34-.37-1.86,15.94,9.23,20.05s26.64-2.48,26.24-6.84c-.28-3.06-6.87-.84-10.78.76l-2.84,1.25s1.19-.57,2.84-1.25C634.35,572.82,641.9,569.54,640.55,566.47Z"/><path class="cls-9" d="M865.88,369s-6.18,13.13-7.54,20.09,3.57,10.43,8.32,10.43,8.23-3.32,7.49-9.87S868.68,374.66,865.88,369Z"/><path class="cls-10" d="M860.63,386.65a3.72,3.72,0,0,0-.1,2.14,1.37,1.37,0,0,0,1.7.93c.59-.26.77-1,.88-1.62.36-2.07,2-7.33.53-9C862,381,861.25,384.26,860.63,386.65Z"/></g></g></g></svg>