<svg xmlns="http://www.w3.org/2000/svg" viewBox="0 0 1501.93 960"><defs><style>.cls-1{isolation:isolate;}.cls-2{fill:#d19267;}.cls-10,.cls-14,.cls-2,.cls-3,.cls-4,.cls-5,.cls-8{fill-rule:evenodd;}.cls-3{fill:#dadadd;}.cls-4,.cls-6{fill:#553b2e;}.cls-5{fill:#242323;}.cls-7{fill:#525254;opacity:0.4;mix-blend-mode:multiply;}.cls-8{fill:#47a3a2;}.cls-9{fill:#fff;}.cls-10,.cls-12{fill:#0a080b;}.cls-11{fill:none;}.cls-13{fill:#2d4965;}.cls-14{fill:#a2a2a3;}.cls-15{font-size:119.95px;fill:#211915;font-family:MyriadPro-Regular, Myriad Pro;}</style></defs><title>5_3</title><g class="cls-1"><g id="Camada_2" data-name="Camada 2"><g id="Camada_1-2" data-name="Camada 1"><path id="_Caminho_composto_" data-name="&lt;Caminho composto&gt;" class="cls-2" d="M816,463.28c-6.87-.29-19.47-14-25.87-15.75-9.25-2.49-9-16.26-18.39-18.17-8.79-1.8-17.59-3.75-26.47-5.11-7.29-1.12-15.57-.69-22.07-4.68-8.94-5.5-6.66-16.36-6.56-25.17.11-9.61-1.92-19.18-2.72-28.73q-.92-10.89-1.76-21.79c-.18-2.36-2.08-9.73-.9-11.87a7.32,7.32,0,0,0,.46-1c.64,5.5-3.82-15.41-3.09-9.51,3.51-6.65,3.34-22.2,3.39-25.58.16-12.83,4.9-.31,11-11.77,4.75-9,9.74-12.12,15-12.12,8.42,0,17.48,8.18,27.24,13.53a74.14,74.14,0,0,0,35.56,9.38,67.47,67.47,0,0,0,15.45-1.78,78.63,78.63,0,0,0,24.38-10.53c4.2-2.69,10.78-10.64,16.2-10.64a5.61,5.61,0,0,1,.69,0c7.56,1,14.13,12.24,15.61,18.58,1,4.29-2.23,24.5,2.1,26.53.2.09.39.17.58.23,2.62.86,2,39.54,2.19,43.74.3,7.66.43,15.34.79,23,.3,6.35,2.16,13.15.47,19.42-2.52,9.38-11.29,18.05-18.82,23.77C848.93,436,830.41,463.89,816,463.28Z"/><path id="_Caminho_composto_2" data-name="&lt;Caminho composto&gt;" class="cls-3" d="M862.61,273.16c.72-1.32,1.4-2.67,2-4,.43,1.18.85,2.44,1.28,3.79Z"/><path class="cls-4" d="M881.33,281.21a48.48,48.48,0,0,0-5.11-14.47l0,0c-.18-.31-.38-.59-.57-.89s-.52-.85-.8-1.26-.57-.77-.86-1.15a23.19,23.19,0,0,0-5.28-5.13l-.22-.17c3.86-14.31,3.28-29.91-3.11-42.62A44,44,0,0,0,857,203.76h0a30.92,30.92,0,0,1,1.07,4.13c.09.47.2,1,.26,1.41,1.54,11.64-7,16.35-16,24.54,9.35-15.27-4.2-39.26-21.94-43.89,28.73,42.18-26,42.63-52.49,43.91-14.8.73-36.15-.12-42.73,16.2a28.13,28.13,0,0,0-1.82,13.21l-1.32-.39a24.38,24.38,0,0,0-13.43-.26,16.08,16.08,0,0,0-9.7,7.25c-8.28,13.95-4,34.31,1.3,48.48,2.58,6.81,5,21.54,12.13,24.92a7,7,0,0,0,1-2.8v.05c0-.1,0-.21,0-.31a13.58,13.58,0,0,0,.13-1.45c0-.12,0-.24,0-.36,0-.6,0-1.2,0-1.8-.07-1.37-.19-2.72-.2-3.92,0-4.77,0-10.09.51-15.45,1.06-11.35,4.22-22.84,13.37-29.46a17,17,0,0,1,1.51-.87c3.74-2.15,8.48-3.22,12.76-3.78,1.21-.16,2.49-.05,3.56-.18.95.21,1.89.43,2.82.68,3,.78,5.82,1.63,8.6,2.56a88,88,0,0,1,14.89,6.39c2.58,1.41,5.16,2.85,7.79,4.21,5.49,2.84,11.17,5.28,17.38,6a82.34,82.34,0,0,0,31.15-2.92c3.36-.93,6.65-2,9.84-3.27A46.05,46.05,0,0,0,856,282.75c1.67,1.7,3.43,3.38,5.14,5.13a56.64,56.64,0,0,1,4.29,4.84c3.63,4.72,5.32,11.24,6.75,16.83.17.67.31,1.36.43,2.07.08.49.14,1,.2,1.49,0,.25.07.48.1.73s0,.48.08.71a43.65,43.65,0,0,0,1.25,7.85c0,.06,0,.13,0,.19a14.42,14.42,0,0,0,.61,1.56c.07.16.12.32.2.47a11.21,11.21,0,0,0,.75,1.23c.12.18.2.37.33.54v0c.08.1.13.22.21.32,4.84-3.36,5.46-15.52,6-20.93A87.2,87.2,0,0,0,881.33,281.21Z"/><path id="_Caminho_" data-name="&lt;Caminho&gt;" class="cls-5" d="M829,339.32c.69,5.17,3.22,9.1,5.66,8.78s3.85-4.78,3.17-10-3.23-9.11-5.67-8.79S828.3,334.14,829,339.32Z"/><path id="_Caminho_2" data-name="&lt;Caminho&gt;" class="cls-5" d="M782.22,344.81c.69,5.17,3.23,9.1,5.66,8.78s3.85-4.78,3.16-10-3.23-9.1-5.66-8.78S781.54,339.63,782.22,344.81Z"/><ellipse class="cls-6" cx="813.42" cy="388.06" rx="13.46" ry="9.97"/><path id="_Caminho_3" data-name="&lt;Caminho&gt;" class="cls-2" d="M869,623.87s-8.79,8.84-11.12,11.75.55,6.64,4.66,2.92,5-6.08,5-6.08-4.7,9.4-12.45,15.12-.79,11.44,9.87-.73c0,0-11.11,9.61-8.76,11.86s5.6,2.32,16.45-10.88c0,0-11.76,12.09-8.61,14s7.66-4.63,13.59-12.29c0,0-7.65,9.08-3.4,10.32s13.54-17.63,10.65-27.24S868.64,624.06,869,623.87Z"/><ellipse class="cls-7" cx="786.7" cy="806.47" rx="97.1" ry="13.66"/><polygon class="cls-6" points="784.22 317.88 786.63 322.31 772.83 334.83 769.94 329.34 784.22 317.88"/><polygon class="cls-6" points="833.25 317.88 831.32 322.31 842.35 334.83 844.65 329.34 833.25 317.88"/><path class="cls-8" d="M738.81,314.08s-6.18,13.13-7.54,20.09,3.57,10.43,8.32,10.43,8.23-3.32,7.49-9.87S741.62,319.7,738.81,314.08Z"/><path class="cls-9" d="M733.56,331.69a3.72,3.72,0,0,0-.1,2.14,1.37,1.37,0,0,0,1.7.93c.59-.26.77-1,.88-1.62.36-2.07,2-7.33.53-9C735,326,734.19,329.29,733.56,331.69Z"/><path class="cls-10" d="M921.93,502.94c-8.53-34.5-34.7-52.63-51.92-61.1l1.45-.74-11-14.14-33.6,12.48-4.57,21a81.24,81.24,0,0,1-10.31.28l-5.18-21.28-67.38-21.21-3.74,10.9a25.48,25.48,0,0,0-3.81,2.1c-13.92,7.47-62.27,37.22-63.56,90.59l38.54,2c-.31,47.19,15.87,92.88,15.87,92.88,118.34,11,140.12,0,140.12,0,2.64-38.92,18.56-76.49,15.83-111.12a40.25,40.25,0,0,1,7.45,18.71Z"/><path class="cls-2" d="M871.47,625.25c11.3-35.46,18.28-70.27,20.41-104.37l23-13.74s.6,31.2-8.59,70.09-23.55,58.7-23.55,58.7Z"/><path class="cls-11" d="M796.89,635.8c0,.16,0,.33,0,.49-2-.26-4.14-.44-6.36-.52-33.24-1.15-32.09,25.26-32.64,79-.28,27.39-1.85,50.64-3.32,66.91h76.49c-1.47-16.26-3-39.52-3.32-66.91C827.2,662.06,828.21,635.71,796.89,635.8Z"/><path class="cls-12" d="M786.7,616.11l0,.1,6.07,0Z"/><path class="cls-12" d="M797.65,616.12l-4.84,0,4.83,0S797.65,616.14,797.65,616.12Z"/><path class="cls-13" d="M851.91,713.91l11-97.2-65.23-.51-4.83,0-6.07,0-64,.5,11,97.2-5.23,67.62-.51.13h26.6c1.47-16.26,3-39.52,3.32-66.91.55-53.72-.6-80.13,32.64-79,2.23.08,4.34.26,6.36.52,0-.16,0-.33,0-.49,31.32-.09,30.31,26.26,30.85,78.94.28,27.39,1.85,50.64,3.32,66.91h26.6l-.51-.13Z"/><path class="cls-12" d="M833.79,806.47h58.08c0,.29-1.11-16.66-1.11-16.66l-33.1-8.16h-26.6C832.47,797.29,833.79,806.47,833.79,806.47Z"/><path class="cls-12" d="M693.75,806.47h58.08s1.32-9.17,2.73-24.81H728l-33.1,8.16S693.76,806.75,693.75,806.47Z"/><rect class="cls-12" x="720.86" y="610.91" width="141.46" height="10.71"/><rect class="cls-13" x="746.31" y="608.85" width="4.43" height="15.02"/><rect class="cls-13" x="829.02" y="608.85" width="4.43" height="15.02"/><rect class="cls-13" x="720.86" y="608.85" width="142.01" height="2.06"/><path class="cls-14" d="M782.25,608.85v14.28h21.33V608.85Zm19.69,12.64H783.72V610.65h18.22Z"/><path class="cls-9" d="M663.3,579.4l69.06-14.78A12.55,12.55,0,0,0,742,549.88l-17.18-85.43a12.55,12.55,0,0,0-15.24-9.73L601,480.81a12.55,12.55,0,0,0-9.29,15.06l19,81.34a12.55,12.55,0,0,0,14.58,9.47Z"/><text class="cls-15" transform="matrix(0.99, -0.15, 0.15, 0.99, 645.17, 565.8)">5</text><path class="cls-2" d="M640.29,569.18c-.76-1.72-5.86.08-10.66,2.25-2.38,1.3-5.29,2.77-8.84,4.44,0,0,4.28-2.38,8.84-4.44,10.49-5.74,10.69-8.28,8.92-10.41-1.19-1.44-6.18.85-10.44,3.21a45.86,45.86,0,0,1-6.5,3.91s3-2,6.5-3.91c9.6-7,4.73-11.63-3-5.76a65.53,65.53,0,0,1-16.72,8.65h0c-1.47.53-2.72.94-3.62,1.22a12.54,12.54,0,0,1-1.59.47s.6-.16,1.59-.47a30.19,30.19,0,0,0,3.54-1.56L607,561c-5.48,2.85-7.27,4.78-7.27,4.78.34-.37-1.86,15.94,9.23,20.05s26.64-2.48,26.24-6.84c-.28-3.06-6.87-.84-10.78.76L621.54,581s1.19-.57,2.84-1.25C634.09,575.53,641.64,572.25,640.29,569.18Z"/><rect class="cls-11" width="1501.93" height="960"/></g></g></g></svg>