<svg xmlns="http://www.w3.org/2000/svg" viewBox="0 0 1501.93 960"><defs><style>.cls-1{isolation:isolate;}.cls-2{fill:#d19267;}.cls-10,.cls-11,.cls-2,.cls-3,.cls-4,.cls-5{fill-rule:evenodd;}.cls-3,.cls-8{fill:#0a080b;}.cls-4{fill:#dadadd;}.cls-5{fill:#553b2e;}.cls-6{fill:#525254;opacity:0.4;mix-blend-mode:multiply;}.cls-7{fill:none;}.cls-9{fill:#2d4965;}.cls-10{fill:#a2a2a3;}.cls-11{fill:#242323;}.cls-12{fill:#fff;}.cls-13{font-size:119.95px;fill:#211915;font-family:MyriadPro-Regular, Myriad Pro;}</style></defs><title>8_2</title><g class="cls-1"><g id="Camada_2" data-name="Camada 2"><g id="Camada_1-2" data-name="Camada 1"><path id="_Caminho_" data-name="&lt;Caminho&gt;" class="cls-2" d="M901.47,305.31s-6.88-11.8-8.53-15.48,2.83-6,6.19-.91,3.54,7.7,3.54,7.7-2.12-10.72-8.89-19.18,2.93-11.1,10.8,4.59c0,0-9.23-13.45-5.85-14.65s7,0,14.78,16.76c0,0-9.13-16-5-16.57s7,7.39,11.11,17c0,0-5.53-11.59-.36-11.07s9.28,22,2.84,29.9S901.09,305,901.47,305.31Z"/><path class="cls-2" d="M904.64,305c.82,37.89-3,73.48-11.94,106.47l21.18,22.06S925,404.31,927.62,364s-6.79-64.65-6.79-64.65Z"/><path class="cls-3" d="M713,463.75A156.78,156.78,0,0,0,729.65,442a105.56,105.56,0,0,1-15.42-30.29,26.63,26.63,0,0,0-1.22-3.21l-7.74-3.57c-.58.23-1.15.49-1.7.76a154.17,154.17,0,0,0-22.92,14.12c-1.47,1.1-3,2.36-3.46,4.14-.51,2.08.64,4.17,1.74,6l16.34,27.1C700.29,465.39,704.21,473.37,713,463.75Z"/><path id="_Caminho_composto_" data-name="&lt;Caminho composto&gt;" class="cls-2" d="M817.27,463.93c-6.87-.29-19.47-14-25.87-15.75-9.25-2.49-9-16.26-18.39-18.17-8.79-1.8-17.59-3.75-26.47-5.11-7.29-1.12-15.57-.69-22.07-4.68-8.94-5.5-6.66-16.36-6.56-25.17.11-9.61-1.92-19.18-2.72-28.73q-.92-10.89-1.76-21.79c-.18-2.36-2.08-9.73-.9-11.87a7.32,7.32,0,0,0,.46-1c.64,5.5-3.82-15.41-3.09-9.51,3.51-6.65,3.34-22.2,3.39-25.58.16-12.83,4.9-.31,11-11.77,4.75-9,9.74-12.12,15-12.12,8.42,0,17.48,8.18,27.24,13.53a74.14,74.14,0,0,0,35.56,9.38,67.47,67.47,0,0,0,15.45-1.78,78.63,78.63,0,0,0,24.38-10.53c4.2-2.69,10.78-10.64,16.2-10.64a5.61,5.61,0,0,1,.69,0c7.56,1,14.13,12.24,15.61,18.58,1,4.29-2.23,24.5,2.1,26.53.2.09.39.17.58.23,2.62.86,2,39.54,2.19,43.74.3,7.66.43,15.34.79,23,.3,6.35,2.16,13.15.47,19.42-2.52,9.38-11.29,18.05-18.82,23.77C850.21,436.66,831.69,464.54,817.27,463.93Z"/><path id="_Caminho_composto_2" data-name="&lt;Caminho composto&gt;" class="cls-4" d="M863.89,273.8c.72-1.32,1.4-2.67,2-4,.43,1.18.85,2.44,1.28,3.79Z"/><path class="cls-5" d="M882.61,281.86a48.48,48.48,0,0,0-5.11-14.47l0,0c-.18-.31-.38-.59-.57-.89s-.52-.85-.8-1.26-.57-.77-.86-1.15a23.19,23.19,0,0,0-5.28-5.13l-.22-.17c3.86-14.31,3.28-29.91-3.11-42.62a44,44,0,0,0-8.44-11.73h0a30.92,30.92,0,0,1,1.07,4.13c.09.47.2,1,.26,1.41,1.54,11.64-7,16.35-16,24.54,9.35-15.27-4.2-39.26-21.94-43.89,28.73,42.18-26,42.63-52.49,43.91-14.8.73-36.15-.12-42.73,16.2a28.13,28.13,0,0,0-1.82,13.21l-1.32-.39a24.38,24.38,0,0,0-13.43-.26,16.08,16.08,0,0,0-9.7,7.25c-8.28,13.95-4,34.31,1.3,48.48,2.58,6.81,5,21.54,12.13,24.92a7,7,0,0,0,1-2.8v.05c0-.1,0-.21,0-.31a13.58,13.58,0,0,0,.13-1.45c0-.12,0-.24,0-.36,0-.6,0-1.2,0-1.8-.07-1.37-.19-2.72-.2-3.92,0-4.77,0-10.09.51-15.45,1.06-11.35,4.22-22.84,13.37-29.46a17,17,0,0,1,1.51-.87c3.74-2.15,8.48-3.22,12.76-3.78,1.21-.16,2.49-.05,3.56-.18.95.21,1.89.43,2.82.68,3,.78,5.82,1.63,8.6,2.56a88,88,0,0,1,14.89,6.39c2.58,1.41,5.16,2.85,7.79,4.21,5.49,2.84,11.17,5.28,17.38,6a82.34,82.34,0,0,0,31.15-2.92c3.36-.93,6.65-2,9.84-3.27a46.05,46.05,0,0,0,18.48-13.82c1.67,1.7,3.43,3.38,5.14,5.13a56.64,56.64,0,0,1,4.29,4.84c3.63,4.72,5.32,11.24,6.75,16.83.17.67.31,1.36.43,2.07.08.49.14,1,.2,1.49,0,.25.07.48.1.73s0,.48.08.71a43.65,43.65,0,0,0,1.25,7.85c0,.06,0,.13,0,.19a14.42,14.42,0,0,0,.61,1.56c.07.16.12.32.2.47a11.21,11.21,0,0,0,.75,1.23c.12.18.2.37.33.54v0c.08.1.13.22.21.32,4.84-3.36,5.46-15.52,6-20.93A87.2,87.2,0,0,0,882.61,281.86Z"/><path class="cls-3" d="M924.09,414c-.87-1.65-2.82-2.4-4.65-3-9-2.95-37.51-.34-37.51-.34a28.74,28.74,0,0,0-.62,3.66,117.46,117.46,0,0,1-7.49,29.57c-.85-.5-1.7-1-2.53-1.39l1.45-.74-11-14.14-33.6,12.48-4.57,21c-3.15.3.58.4-3.15.28L818.35,439l-77.64-20.14L737,429.78a25.48,25.48,0,0,0-3.81,2.1l-30.68,16.46c-.31,47.19,21.54,169,21.54,169,118.34,11,140.12,0,140.12,0,2.11-31.17,12.72-61.47,15.47-90.09,6.14-11.55,9.45-24.9,14.82-37,2.69-6.08,11.77-16.21,12.37-22.43a8.34,8.34,0,0,0-.15-2.44c2.09-2.86,3.49-7.24,5.1-11.78q5.87-16.48,11.76-33C924.31,418.41,925.1,415.91,924.09,414Z"/><ellipse class="cls-6" cx="787.98" cy="807.12" rx="97.1" ry="13.66"/><path class="cls-7" d="M798.17,636.45c0,.16,0,.33,0,.49-2-.26-4.14-.44-6.36-.52-33.24-1.15-32.09,25.26-32.64,79-.28,27.39-1.85,50.64-3.32,66.91h76.49c-1.47-16.26-3-39.52-3.32-66.91C828.48,662.71,829.49,636.36,798.17,636.45Z"/><path class="cls-8" d="M788,616.76l0,.1,6.07,0Z"/><path class="cls-8" d="M798.93,616.77l-4.84,0,4.83,0S798.93,616.79,798.93,616.77Z"/><path class="cls-9" d="M853.19,714.56l11-97.2-65.23-.51-4.83,0-6.07,0-64,.5,11,97.2-5.23,67.62-.51.13h26.6c1.47-16.26,3-39.52,3.32-66.91.55-53.72-.6-80.13,32.64-79,2.23.08,4.34.26,6.36.52,0-.16,0-.33,0-.49,31.32-.09,30.31,26.26,30.85,78.94.28,27.39,1.85,50.64,3.32,66.91h26.6l-.51-.13Z"/><path class="cls-8" d="M835.07,807.11h58.08c0,.29-1.11-16.66-1.11-16.66l-33.1-8.16h-26.6C833.75,797.94,835.07,807.11,835.07,807.11Z"/><path class="cls-8" d="M695,807.11h58.08s1.32-9.17,2.73-24.81h-26.6l-33.1,8.16S695,807.4,695,807.11Z"/><rect class="cls-8" x="722.14" y="611.56" width="141.46" height="10.71"/><rect class="cls-9" x="747.58" y="609.49" width="4.43" height="15.02"/><rect class="cls-9" x="830.29" y="609.49" width="4.43" height="15.02"/><rect class="cls-9" x="722.14" y="609.49" width="142.01" height="2.06"/><path class="cls-10" d="M783.52,609.49v14.28h21.33V609.49Zm19.69,12.64H785V611.3h18.22Z"/><path id="_Caminho_2" data-name="&lt;Caminho&gt;" class="cls-11" d="M823.41,349.36c.74,5.51,3.43,9.71,6,9.36s4.11-5.1,3.38-10.62-3.45-9.71-6-9.37S822.67,343.83,823.41,349.36Z"/><path id="_Caminho_3" data-name="&lt;Caminho&gt;" class="cls-11" d="M773.55,355.21c.73,5.52,3.44,9.7,6,9.36s4.1-5.1,3.37-10.62-3.44-9.7-6-9.36S772.81,349.69,773.55,355.21Z"/><path id="_Caminho_4" data-name="&lt;Caminho&gt;" class="cls-5" d="M809.3,417.15c14.37.26,22.58-15.23,25.91-17.48.67-1-.08-2.26-1.13-4.07-1.67,1.38-7.23,3.17-24.92,2.91-18.61-.27-24.24-2.11-25.84-3.47a5.35,5.35,0,0,0,.56,4.16C787.68,401.28,796,416.91,809.3,417.15Z"/><polygon id="_Caminho_5" data-name="&lt;Caminho&gt;" class="cls-5" points="749.63 321.3 769.26 316.23 792.16 324.15 793.2 311.53 768.85 305.73 747.72 312.14 749.63 321.3"/><polygon id="_Caminho_6" data-name="&lt;Caminho&gt;" class="cls-5" points="855.18 321.3 835.55 316.23 812.64 324.15 811.61 311.53 835.96 305.73 857.09 312.14 855.18 321.3"/><path class="cls-2" d="M653.18,358c4.09,23.9,14.35,46.53,28.27,66.39A57,57,0,0,1,702,408.23c-5-11.72-41.06-52-24.9-109,1.77-6.25-5.24,4-2.33-7.86-17.22-10.8-19,7.44-21.53,21.71A130.29,130.29,0,0,0,653.18,358Z"/><path class="cls-12" d="M721.53,275.81l68.2-18.34a12.55,12.55,0,0,0,8.9-15.23L777,157.83a12.55,12.55,0,0,0-15.72-8.93L654.25,180.58a12.55,12.55,0,0,0-8.5,15.52l23.18,80.24A12.55,12.55,0,0,0,684,285Z"/><text class="cls-13" transform="translate(702.73 263.17) rotate(-11.78)">8</text><path class="cls-2" d="M684,281.72c-6.73,1.46-13.35,2.38-13.35,2.38,5.28-1.07,9.68-1.85,13.35-2.38,7.08-1.54,14.28-3.68,14-6-.48-4.15-11.54-1.6-25.77,1.65-2.4.6-4.18.95-4.18.95l4.18-.95c5.66-1.42,14.89-4.29,13.16-7.61-1.55-3-11.14-1.92-20.58,2.47l-.67,1c-3,4.53-3.17,10.28-3.26,15.69-.06,3.48-.18,7.36,1.39,10.58a7.72,7.72,0,0,0,1.15,1.67,24.06,24.06,0,0,0,2.43,4.78,4.93,4.93,0,0,0,1.79,1.78,5.47,5.47,0,0,0,2,.41l2.85.21-.18-8.24a79.83,79.83,0,0,1,15.07-1.74c13-.06,15.62-8.54-.35-8.16-5.4.76-10.26,1.1-10.26,1.1a67.28,67.28,0,0,1,10.26-1.1c6.58-.93,14-2.5,14.41-4.88C702.13,281.78,700.2,279.37,684,281.72Z"/><rect class="cls-7" width="1501.93" height="960"/></g></g></g></svg>