<svg xmlns="http://www.w3.org/2000/svg" viewBox="0 0 1501.93 960"><defs><style>.cls-1{isolation:isolate;}.cls-2{fill:#d19267;}.cls-13,.cls-16,.cls-2,.cls-3,.cls-4,.cls-5,.cls-6,.cls-7,.cls-8{fill-rule:evenodd;}.cls-11,.cls-3{fill:#0a080b;}.cls-4{fill:#242323;}.cls-14,.cls-5{fill:#fff;}.cls-6{fill:#bbbabc;}.cls-7{fill:#dadadd;}.cls-8{fill:#553b2e;}.cls-9{fill:#525254;opacity:0.4;mix-blend-mode:multiply;}.cls-10{fill:none;}.cls-12{fill:#2d4965;}.cls-13{fill:#a2a2a3;}.cls-15{font-size:119.95px;fill:#211915;font-family:MyriadPro-Regular, Myriad Pro;}.cls-16{fill:#915f3d;}</style></defs><title>9_1</title><g class="cls-1"><g id="Camada_2" data-name="Camada 2"><g id="Camada_1-2" data-name="Camada 1"><path class="cls-2" d="M782.75,436.69l21.05,24.63c2.15,2.51,4.37,5.09,7.32,6.6,4,2,8.68,1.87,13.14,1.65a13,13,0,0,0,4.51-.76c2.69-1.15,4.31-4,4.89-6.88s.33-5.83.36-8.76a44.69,44.69,0,0,1,4.88-19.78c1.86-3.63,4.28-7.22,4.35-11.3-6.51-1.21-12.86,2.3-19.33,3.69-6.87,1.48-14,.55-21-.39-5.53-.74-18.66-5.1-23.76-3.15C772.86,424.65,780,433.45,782.75,436.69Z"/><path class="cls-3" d="M875,610a39.11,39.11,0,0,1-14.1,14.65c3.05-9.48,1.89-19.75,3.23-29.61a3.55,3.55,0,0,1,1-2.44,3.63,3.63,0,0,1,1.62-.56c2.86-.5,6-1.5,8.92-1.57s2.92,1,3,4.06A32.2,32.2,0,0,1,875,610Z"/><path class="cls-2" d="M651.25,346.45c1.67,14.82,3.36,29.77,8,43.94a217,217,0,0,0,8.19,20.18c8.6,19.33,17.32,38.85,30.13,55.68A100.81,100.81,0,0,0,714,449.34a9.78,9.78,0,0,0,1.69-2.86c1.09-3.39-1.46-6.75-3.75-9.47a180.53,180.53,0,0,1-35.58-66.68c-5.65-19.76-7.87-40.31-10.44-60.7a7.76,7.76,0,0,0-1.16-3.77,7.17,7.17,0,0,0-3.36-2.12c-12.49-4.69-15.2-2-13.8,10.45Z"/><path id="_Caminho_composto_" data-name="&lt;Caminho composto&gt;" class="cls-2" d="M819.25,435.5a95.66,95.66,0,0,1-20.69-3.22c-9.53-2.56-19.24-4.17-28.9-6.15-9.06-1.85-18.13-3.87-27.27-5.27-7.51-1.15-16-.71-22.74-4.83-9.21-5.67-6.86-16.86-6.76-25.93.12-9.9-2-19.76-2.8-29.6q-.94-11.22-1.81-22.45c-.19-2.43-2.15-10-.92-12.23a7.54,7.54,0,0,0,.47-1c.65,5.67-3.94-15.88-3.19-9.8,3.62-6.85,3.44-22.88,3.5-26.36.16-13.23,5.05-.32,11.31-12.13,4.9-9.23,10-12.49,15.42-12.49,8.68,0,18,8.43,28.07,13.94a76.4,76.4,0,0,0,36.64,9.67,69.53,69.53,0,0,0,15.92-1.84,81,81,0,0,0,25.12-10.85c4.33-2.77,11.11-11,16.69-11a5.78,5.78,0,0,1,.71,0c7.79,1,14.56,12.61,16.09,19.15,1,4.42-2.29,25.24,2.17,27.33.2.09.4.17.59.24,2.7.88,2.09,40.74,2.25,45.07.31,7.9.45,15.8.82,23.7.31,6.54,2.22,13.55.49,20-2.6,9.66-11.63,18.6-19.39,24.49C849.21,433,834.11,436.13,819.25,435.5Z"/><path id="_Caminho_" data-name="&lt;Caminho&gt;" class="cls-4" d="M830.42,336.78c.71,5.33,3.32,9.38,5.83,9s4-4.93,3.26-10.26-3.33-9.38-5.84-9.05S829.71,331.44,830.42,336.78Z"/><path id="_Caminho_2" data-name="&lt;Caminho&gt;" class="cls-4" d="M782.23,342.44c.71,5.33,3.33,9.38,5.83,9s4-4.93,3.26-10.27-3.33-9.38-5.84-9S781.52,337.1,782.23,342.44Z"/><path id="_Caminho_3" data-name="&lt;Caminho&gt;" class="cls-5" d="M811.34,411.5c25.58,1.4,40.64-6.69,46.56-18.55,1.2-5.21-.15-11.92-2-21.5-3,7.28-12.87,16.74-44.36,15.39-33.13-1.42-43.15-11.16-46-18.32a79.4,79.4,0,0,0,1,21.95C773.3,401.45,787.62,410.22,811.34,411.5Z"/><path id="_Caminho_4" data-name="&lt;Caminho&gt;" class="cls-6" d="M773.73,390.81s17,9.53,36.32,7.43C808.12,402.15,782.67,400.47,773.73,390.81Z"/><path id="_Caminho_composto_2" data-name="&lt;Caminho composto&gt;" class="cls-7" d="M863.3,265.17c.74-1.36,1.44-2.75,2.09-4.16.45,1.21.88,2.51,1.32,3.9Z"/><path class="cls-8" d="M882.6,273.48a50,50,0,0,0-5.26-14.91l0,0c-.18-.32-.39-.61-.58-.92s-.54-.87-.82-1.3-.58-.79-.88-1.18a23.9,23.9,0,0,0-5.44-5.29l-.23-.18c4-14.75,3.38-30.82-3.2-43.92a45.38,45.38,0,0,0-8.7-12.09h0a31.81,31.81,0,0,1,1.11,4.25c.09.49.21,1,.27,1.45,1.58,12-7.25,16.85-16.46,25.29,9.64-15.73-4.32-40.46-22.61-45.23,29.61,43.46-26.81,43.93-54.09,45.25-15.25.75-37.25-.13-44,16.7A29,29,0,0,0,719.81,255l-1.36-.4a25.12,25.12,0,0,0-13.84-.27,16.57,16.57,0,0,0-10,7.47c-8.54,14.37-4.16,35.36,1.34,50,2.66,7,5.18,22.2,12.5,25.68a7.18,7.18,0,0,0,1.06-2.89v.05c0-.1,0-.21,0-.32a14,14,0,0,0,.13-1.49c0-.12,0-.25,0-.37,0-.62,0-1.24,0-1.86-.07-1.41-.2-2.8-.21-4,0-4.91,0-10.4.52-15.92,1.1-11.69,4.35-23.54,13.77-30.35a17.49,17.49,0,0,1,1.56-.9c3.85-2.22,8.73-3.32,13.15-3.9,1.24-.16,2.56-.05,3.67-.19,1,.22,1.95.45,2.91.7,3.08.8,6,1.68,8.86,2.63a90.72,90.72,0,0,1,15.35,6.58c2.65,1.45,5.32,2.94,8,4.34,5.66,2.93,11.51,5.44,17.91,6.18a84.85,84.85,0,0,0,32.1-3c3.46-1,6.85-2.1,10.14-3.37a47.45,47.45,0,0,0,19-14.24c1.72,1.75,3.53,3.49,5.3,5.29a58.36,58.36,0,0,1,4.42,5c3.74,4.86,5.48,11.59,7,17.34.18.69.32,1.4.44,2.13.08.5.14,1,.21,1.53,0,.25.07.5.1.75s.05.49.08.74a45,45,0,0,0,1.29,8.09c0,.06,0,.13.05.2a14.86,14.86,0,0,0,.63,1.6c.07.16.13.33.2.49a11.55,11.55,0,0,0,.77,1.26c.12.18.21.38.34.55v0c.08.11.13.23.22.33,5-3.46,5.62-16,6.14-21.56A89.86,89.86,0,0,0,882.6,273.48Z"/><ellipse class="cls-9" cx="787.26" cy="803.14" rx="97.1" ry="13.66"/><path class="cls-3" d="M922.49,499.61c-8.53-34.5-34.7-52.63-51.92-61.1l1.45-.74-11-14.14-33.6,12.48-4.57,21a81.24,81.24,0,0,1-10.31.28l-5.18-21.28L740,414.9l-3.74,10.9a25.48,25.48,0,0,0-3.81,2.1c-5,2.69-24.75-18.46-31.21-13s-11.43,8.83-28.88,20.67l35.08,84.92c-.31,47.19,15.87,92.88,15.87,92.88,118.34,11,140.12,0,140.12,0,2.64-38.92,18.56-76.49,15.83-111.12A40.25,40.25,0,0,1,886.71,521Z"/><path class="cls-10" d="M797.45,632.47c0,.16,0,.33,0,.49-2-.26-4.14-.44-6.36-.52-33.24-1.15-32.09,25.26-32.64,79-.28,27.39-1.85,50.64-3.32,66.91h76.49c-1.47-16.26-3-39.52-3.32-66.91C827.76,658.73,828.77,632.38,797.45,632.47Z"/><path class="cls-11" d="M787.26,612.78l0,.1,6.07,0Z"/><path class="cls-11" d="M798.21,612.79l-4.84,0,4.83,0S798.21,612.81,798.21,612.79Z"/><path class="cls-12" d="M852.47,710.58l11-97.2-65.23-.51-4.83,0-6.07,0-64,.5,11,97.2L729,778.2l-.51.13h26.6c1.47-16.26,3-39.52,3.32-66.91.55-53.72-.6-80.13,32.64-79,2.23.08,4.34.26,6.36.52,0-.16,0-.33,0-.49,31.32-.09,30.31,26.26,30.85,78.94.28,27.39,1.85,50.64,3.32,66.91h26.6l-.51-.13Z"/><path class="cls-11" d="M834.35,803.14h58.08c0,.29-1.11-16.66-1.11-16.66l-33.1-8.16h-26.6C833,794,834.35,803.14,834.35,803.14Z"/><path class="cls-11" d="M694.31,803.14h58.08s1.32-9.17,2.73-24.81h-26.6l-33.1,8.16S694.31,803.42,694.31,803.14Z"/><rect class="cls-11" x="721.42" y="607.58" width="141.46" height="10.71"/><rect class="cls-12" x="746.86" y="605.52" width="4.43" height="15.02"/><rect class="cls-12" x="829.57" y="605.52" width="4.43" height="15.02"/><rect class="cls-12" x="721.42" y="605.52" width="142.01" height="2.06"/><path class="cls-13" d="M782.8,605.52v14.28h21.33V605.52Zm19.69,12.64H784.28V607.32H802.5Z"/><path class="cls-14" d="M629.78,275.16l68.79,16a12.55,12.55,0,0,0,15-9.24l20.75-84.63A12.55,12.55,0,0,0,724.69,182L615.32,159.46a12.55,12.55,0,0,0-14.81,9.68l-17.37,81.7a12.55,12.55,0,0,0,9.18,14.77Z"/><text class="cls-15" transform="matrix(0.96, 0.28, -0.28, 0.96, 619.15, 255.16)">9</text><path class="cls-2" d="M885.73,554c5.38-10.57,4.48-24.81,13.72-32.25a7.87,7.87,0,0,1,5-2,10.16,10.16,0,0,1,4.34,1.54c4,2.13,8.39,5,8.77,9.44a12.79,12.79,0,0,1-1.09,5.41c-7.15,19.42-20,36.15-32.87,52.32.46-.58-9.42-6.31-10-6.85-3-2.61-3.69-2.86-2.67-7C872.8,567.09,882.17,561,885.73,554Z"/><path class="cls-2" d="M915.91,516a40.23,40.23,0,0,0,1.15,5.67c.7,2.29,1.82,4.56,1.6,6.94a12.8,12.8,0,0,1-2.32,5.44l-2.6,4.16A9.56,9.56,0,0,1,911,541.4a3.27,3.27,0,0,1-3.88,0c-.65-.6-.92-1.51-1.51-2.17-1.61-1.79-4.51-.91-6.89-1.25a6.51,6.51,0,0,1-5.38-6.65c.11-1.6.83-3.1,1.05-4.69.51-3.68-1.65-7.15-3.77-10.21,3-3.6,7.39-5.61,11.65-7.5,2.11-.93,9.15-5.47,11.27-4.14S915.5,513.69,915.91,516Z"/><path class="cls-2" d="M860.46,573.42a1.19,1.19,0,0,0-.59.51c-.32.74.84,1.17,1.64,1.15,1.93-.05,5.78-.45,6.63,1.28.41.84,2.43,2.51,2.32,3.45-.15,1.33-4,3-4.83,4.32-1.56,2.47-.6,4.53-1.49,6.87-.81,2.12-1.8,4.45-1,6.58a1.05,1.05,0,0,0,.44.6,1.2,1.2,0,0,0,.79,0l14.07-3a9.2,9.2,0,0,0,2.07-.61c2.65-1.26,3.45-4.57,3.95-7.46a6.92,6.92,0,0,0-.35-4.38l-2.16-6.65a7.45,7.45,0,0,0-1.37-2.79c-1.29-1.42-6.19-3.72-8.17-4C868.86,568.78,863.48,571.82,860.46,573.42Z"/><path class="cls-2" d="M859,590.36c-4,2.16-8.81,2.57-12.47,5.22-1.67,1.21-3,2.82-4.63,4.08-2.55,2-5.68,3-8.74,4-2.84.94-5.78,1.89-8.76,1.62a86.38,86.38,0,0,0,12.2.05c8.76-.38,18.06.52,26.82.14.34,0,.15-1.3.46-1.44.86-.4,1-1.54,1.07-2.49.17-3,.53-6,1-9,.22-1.51,2.1-7.48,1.36-8.69C866.17,582.08,861.25,589.24,859,590.36Z"/><path class="cls-3" d="M840.62,599.45a74.35,74.35,0,0,1-43.94,15.16,36,36,0,0,1-8.14-.68,69.24,69.24,0,0,1-9.37-3.25c-15.63-5.88-32.76-6.45-49.43-5.46-2.29.14-5.35-.3-5.64-2.57-.31-2.46,3-3.53,5.46-3.67l31.69-1.86c13.47-.79,26.94-1.58,40.37-2.84,9-.85,18-1.9,27-2.65s18.34.08,27.17-1C850.13,590.8,844.84,596.23,840.62,599.45Z"/><path class="cls-16" d="M859.95,593.82a5.9,5.9,0,0,0-1-1.86c-1.09-1.06-2.88-.66-4.33-.19-3.55,1.15-7.24,2.39-9.88,5-.71.71-1.33,1.51-2.07,2.18a16.7,16.7,0,0,1-3.15,2.07l-7,3.88a31.18,31.18,0,0,0,8.68-3,47.08,47.08,0,0,1,4.57-2.8,18.75,18.75,0,0,1,4.76-1.17c2.28-.35,4.7-.69,6.83.21a26.06,26.06,0,0,1,3.46,2.18,5,5,0,0,0,3.88.88c-.11,0,.39-2.47.37-2.56-.24-.95-.54-.72-1.47-1.22A7.9,7.9,0,0,1,859.95,593.82Z"/><path class="cls-3" d="M868.82,576.69a3.47,3.47,0,0,1,1.71,1.42,2.32,2.32,0,0,1-.32,2.23,6.49,6.49,0,0,1-1.75,1.56,10.41,10.41,0,0,1-4.32,2,3.16,3.16,0,0,1-2-.28,2.78,2.78,0,0,1-1.29-2.25,5.43,5.43,0,0,1,.59-2.6c.55-1.21,1.67-3.26,3.05-3.68S867.69,576.11,868.82,576.69Z"/><path class="cls-2" d="M666.19,301.12a22.09,22.09,0,0,1,1.2-3.89,8.73,8.73,0,0,1,6.88-5.3,6,6,0,0,0,2.51-.42,4.15,4.15,0,0,0,1.3-1.43q3.61-5.53,7-11.18a10.09,10.09,0,0,0,1.76-4.33,3.51,3.51,0,0,0-2.23-3.73c-1.44-.38-2.89.53-4,1.51a22.35,22.35,0,0,0-5.24,6.7c-.93,1.82-1.76,3.92-3.61,4.78s-3.77.19-5.61-.35a156.35,156.35,0,0,0-21.52-4.28c1.46,5.87-.58,12.13.58,18.07a34.23,34.23,0,0,0,3.73,9.18,3.22,3.22,0,0,0,2.9,2.31c2.21.38,9.68,3,11.56,1.87C664.93,309.74,666.19,302.86,666.19,301.12Z"/><rect class="cls-10" width="1501.93" height="960"/></g></g></g></svg>