<svg xmlns="http://www.w3.org/2000/svg" viewBox="0 0 1501.93 960"><defs><style>.cls-1{isolation:isolate;}.cls-2{fill:none;}.cls-3{fill:#d19267;}.cls-10,.cls-11,.cls-12,.cls-13,.cls-3,.cls-4,.cls-5,.cls-7{fill-rule:evenodd;}.cls-4{fill:#dadadd;}.cls-5{fill:#553b2e;}.cls-6{fill:#525254;opacity:0.4;mix-blend-mode:multiply;}.cls-7,.cls-8{fill:#0a080b;}.cls-9{fill:#2d4965;}.cls-10{fill:#a2a2a3;}.cls-11{fill:#242323;}.cls-12{fill:#fff;}.cls-13{fill:#bbbabc;}</style></defs><title>inicial</title><g class="cls-1"><g id="Camada_2" data-name="Camada 2"><g id="Camada_1-2" data-name="Camada 1"><rect class="cls-2" width="1501.93" height="960"/><path class="cls-3" d="M720,621.53c-10.62-35.46-17.19-70.27-19.19-104.37l-21.66-13.74s-.57,31.2,8.08,70.09,22.15,58.7,22.15,58.7Z"/><path id="_Caminho_composto_" data-name="&lt;Caminho composto&gt;" class="cls-3" d="M816.28,459.57c-6.87-.29-19.47-14-25.87-15.75-9.25-2.49-9-16.26-18.39-18.17-8.79-1.8-17.59-3.75-26.47-5.11-7.29-1.12-15.57-.69-22.07-4.68-8.94-5.5-6.66-16.36-6.56-25.17.11-9.61-1.92-19.18-2.72-28.73q-.92-10.89-1.76-21.79c-.18-2.36-2.08-9.73-.9-11.87a7.32,7.32,0,0,0,.46-1c.64,5.5-3.82-15.41-3.09-9.51,3.51-6.65,3.34-22.2,3.39-25.58.16-12.83,4.9-.31,11-11.77,4.75-9,9.74-12.12,15-12.12,8.42,0,17.48,8.18,27.24,13.53a74.14,74.14,0,0,0,35.56,9.38,67.47,67.47,0,0,0,15.45-1.78,78.63,78.63,0,0,0,24.38-10.53c4.2-2.69,10.78-10.64,16.2-10.64a5.61,5.61,0,0,1,.69,0c7.56,1,14.13,12.24,15.61,18.58,1,4.29-2.23,24.5,2.1,26.53.2.09.39.17.58.23,2.62.86,2,39.54,2.19,43.74.3,7.66.43,15.34.79,23,.3,6.35,2.16,13.15.47,19.42-2.52,9.38-11.29,18.05-18.82,23.77C849.23,432.3,830.71,460.17,816.28,459.57Z"/><path id="_Caminho_composto_2" data-name="&lt;Caminho composto&gt;" class="cls-4" d="M862.9,269.44c.72-1.32,1.4-2.67,2-4,.43,1.18.85,2.44,1.28,3.79Z"/><path class="cls-5" d="M881.63,277.5A48.48,48.48,0,0,0,876.52,263l0,0c-.18-.31-.38-.59-.57-.89s-.52-.85-.8-1.26-.57-.77-.86-1.15a23.19,23.19,0,0,0-5.28-5.13l-.22-.17c3.86-14.31,3.28-29.91-3.11-42.62A44,44,0,0,0,857.27,200h0a30.92,30.92,0,0,1,1.07,4.13c.09.47.2,1,.26,1.41,1.54,11.64-7,16.35-16,24.54,9.35-15.27-4.2-39.26-21.94-43.89,28.73,42.18-26,42.63-52.49,43.91-14.8.73-36.15-.12-42.73,16.2a28.13,28.13,0,0,0-1.82,13.21l-1.32-.39a24.38,24.38,0,0,0-13.43-.26,16.08,16.08,0,0,0-9.7,7.25c-8.28,13.95-4,34.31,1.3,48.48,2.58,6.81,5,21.54,12.13,24.92a7,7,0,0,0,1-2.8v.05c0-.1,0-.21,0-.31a13.58,13.58,0,0,0,.13-1.45c0-.12,0-.24,0-.36,0-.6,0-1.2,0-1.8-.07-1.37-.19-2.72-.2-3.92,0-4.77,0-10.09.51-15.45,1.06-11.35,4.22-22.84,13.37-29.46a17,17,0,0,1,1.51-.87c3.74-2.15,8.48-3.22,12.76-3.78,1.21-.16,2.49-.05,3.56-.18.95.21,1.89.43,2.82.68,3,.78,5.82,1.63,8.6,2.56a88,88,0,0,1,14.89,6.39c2.58,1.41,5.16,2.85,7.79,4.21,5.49,2.84,11.17,5.28,17.38,6A82.34,82.34,0,0,0,828,296.12c3.36-.93,6.65-2,9.84-3.27A46.05,46.05,0,0,0,856.28,279c1.67,1.7,3.43,3.38,5.14,5.13A56.64,56.64,0,0,1,865.7,289c3.63,4.72,5.32,11.24,6.75,16.83.17.67.31,1.36.43,2.07.08.49.14,1,.2,1.49,0,.25.07.48.1.73s0,.48.08.71a43.65,43.65,0,0,0,1.25,7.85c0,.06,0,.13,0,.19a14.42,14.42,0,0,0,.61,1.56c.07.16.12.32.2.47a11.21,11.21,0,0,0,.75,1.23c.12.18.2.37.33.54v0c.08.1.13.22.21.32,4.84-3.36,5.46-15.52,6-20.93A87.2,87.2,0,0,0,881.63,277.5Z"/><ellipse class="cls-6" cx="787" cy="802.75" rx="97.1" ry="13.66"/><path class="cls-7" d="M922.23,499.22c-8.53-34.5-34.7-52.63-51.92-61.1l1.45-.74-11-14.14-33.6,12.48-4.57,21a81.24,81.24,0,0,1-10.31.28l-5.18-21.28-67.38-21.21L736,425.42a25.48,25.48,0,0,0-3.81,2.1c-13.92,7.47-62.27,37.22-63.56,90.59l38.54,2C706.87,567.31,723,613,723,613c118.34,11,140.12,0,140.12,0,2.64-38.92,18.56-76.49,15.83-111.12a40.25,40.25,0,0,1,7.45,18.71Z"/><path class="cls-2" d="M797.18,632.09c0,.16,0,.33,0,.49-2-.26-4.14-.44-6.36-.52-33.24-1.15-32.09,25.26-32.64,79-.28,27.39-1.85,50.64-3.32,66.91h76.49c-1.47-16.26-3-39.52-3.32-66.91C827.49,658.34,828.51,632,797.18,632.09Z"/><path class="cls-8" d="M787,612.39l0,.1,6.07,0Z"/><path class="cls-8" d="M797.95,612.4l-4.84,0,4.83,0S797.94,612.43,797.95,612.4Z"/><path class="cls-9" d="M852.21,710.2l11-97.2-65.23-.51-4.83,0-6.07,0-64,.5,11,97.2-5.23,67.62-.51.13h26.6c1.47-16.26,3-39.52,3.32-66.91.55-53.72-.6-80.13,32.64-79,2.23.08,4.34.26,6.36.52,0-.16,0-.33,0-.49C828.51,632,827.49,658.34,828,711c.28,27.39,1.85,50.64,3.32,66.91H858l-.51-.13Z"/><path class="cls-8" d="M834.08,802.75h58.08c0,.29-1.11-16.66-1.11-16.66L858,777.94h-26.6C832.76,793.58,834.08,802.75,834.08,802.75Z"/><path class="cls-8" d="M694,802.75h58.08s1.32-9.17,2.73-24.81h-26.6l-33.1,8.16S694,803,694,802.75Z"/><rect class="cls-8" x="721.16" y="607.19" width="141.46" height="10.71"/><rect class="cls-9" x="746.6" y="605.13" width="4.43" height="15.02"/><rect class="cls-9" x="829.31" y="605.13" width="4.43" height="15.02"/><rect class="cls-9" x="721.16" y="605.13" width="142.01" height="2.06"/><path class="cls-10" d="M782.54,605.13v14.28h21.33V605.13Zm19.69,12.64H784V606.94h18.22Z"/><path class="cls-3" d="M911.06,515.89a15.35,15.35,0,0,1-.67,5.23,13.81,13.81,0,0,1-3.47,4.93c-4.7,4.67-10.95,8-17.56,8.32s-13.52-2.61-17.15-8.15c12-6.14,25.12-16.12,37.91-19.85C911.06,509.37,911.06,512.72,911.06,515.89Z"/><path id="_Caminho_" data-name="&lt;Caminho&gt;" class="cls-11" d="M827.51,333.39c.71,5.33,3.32,9.38,5.83,9s4-4.93,3.26-10.26-3.33-9.38-5.84-9.05S826.8,328.05,827.51,333.39Z"/><path id="_Caminho_2" data-name="&lt;Caminho&gt;" class="cls-11" d="M779.32,339c.71,5.33,3.33,9.38,5.83,9s4-4.93,3.26-10.27-3.33-9.38-5.84-9S778.61,333.71,779.32,339Z"/><path id="_Caminho_3" data-name="&lt;Caminho&gt;" class="cls-12" d="M808.43,408.11c25.58,1.4,40.64-6.69,46.56-18.55,1.2-5.21-.15-11.92-2-21.5-3,7.28-12.87,16.74-44.36,15.39-33.13-1.42-43.15-11.16-46-18.32a79.4,79.4,0,0,0,1,21.95C770.39,398.06,784.71,406.83,808.43,408.11Z"/><path id="_Caminho_4" data-name="&lt;Caminho&gt;" class="cls-13" d="M770.82,387.42s17,9.53,36.32,7.43C805.21,398.76,779.76,397.08,770.82,387.42Z"/><path class="cls-3" d="M851.27,503.31c-.36-3.81-.69-7.82.85-11.32,1.75-4,5.71-6.68,9.89-7.92s8.62-1.21,13-1.12c6.34.14,13.26.63,17.91,4.94,12.51,11.6,14.65,36.89-4.26,41.8-7.17,1.86-18.36,1.59-25.6.51C849.18,528.14,852.47,516.15,851.27,503.31Z"/><path class="cls-3" d="M866.42,450.46c3.95-4.27,11.44-5.27,15.6-1.2,2.46,2.42,3.38,6,3.37,9.49s-.82,6.84-1.31,10.26a55.65,55.65,0,0,0,1.17,21.69,12.05,12.05,0,0,1-11.1-.71c-4.93-3-6-2.48-6.43-8.22a27.23,27.23,0,0,0-2-8.71C862.83,465.64,860.19,457.22,866.42,450.46Z"/><path class="cls-3" d="M735.42,643.86a40.53,40.53,0,0,1-8.18-9.09,19.64,19.64,0,0,1-1.93-3.06c-.39-.67-.71-1.25-1-1.72a7.43,7.43,0,0,1-.64-1.24s.23.47.64,1.24c.13.22.3.48.49.75-.27-.55-.52-1.11-.77-1.65a1.24,1.24,0,0,1,.27-1.76l2.36-2.4c-2.33-2.56-4.39-4.76-4.39-4.76.38.19-12.2-.9-14.92,8.71s6,28.48,10,27.24c2.79-.86.12-5.56-1.74-8.31l-1.46-2s.65.83,1.46,2c4.86,6.74,8.63,12,11.33,10.28,1.52-1-.64-4.59-3.1-7.91-1.44-1.61-3.09-3.6-5-6.06,0,0,2.64,2.89,5,6.06,6.33,7,8.69,6.66,10.48,4.82,1.2-1.22-1.32-4.6-3.88-7.44a31.38,31.38,0,0,1-4.36-4.43s2.2,2,4.36,4.43C737.86,653.53,741.59,648.7,735.42,643.86Z"/></g></g></g></svg>