<?xml version="1.0" encoding="utf-8"?><!-- Generator: Adobe Illustrator 22.1.0, SVG Export Plug-In . SVG Version: 6.00 Build 0)  --><svg version="1.1" id="Camada_1" xmlns="http://www.w3.org/2000/svg" xmlns:xlink="http://www.w3.org/1999/xlink" x="0px" y="0px"	 viewBox="0 0 335 160.1" style="enable-background:new 0 0 335 160.1;" xml:space="preserve"><style type="text/css">	.st0{clip-path:url(#SVGID_2_);}	.st1{clip-path:url(#SVGID_4_);fill:#FFFFFF;}	.st2{clip-path:url(#SVGID_6_);}	.st3{clip-path:url(#SVGID_104_);}	.st4{clip-path:url(#SVGID_105_);}	.st5{clip-path:url(#SVGID_106_);}	.st6{clip-path:url(#SVGID_107_);}	.st7{clip-path:url(#SVGID_108_);}	.st8{clip-path:url(#SVGID_109_);}	.st9{clip-path:url(#SVGID_110_);}	.st10{clip-path:url(#SVGID_111_);}	.st11{clip-path:url(#SVGID_112_);}	.st12{clip-path:url(#SVGID_113_);}	.st13{clip-path:url(#SVGID_114_);}	.st14{clip-path:url(#SVGID_115_);}	.st15{clip-path:url(#SVGID_116_);}	.st16{clip-path:url(#SVGID_117_);}	.st17{clip-path:url(#SVGID_118_);}	.st18{clip-path:url(#SVGID_119_);}	.st19{clip-path:url(#SVGID_120_);}	.st20{clip-path:url(#SVGID_121_);}	.st21{clip-path:url(#SVGID_122_);}	.st22{clip-path:url(#SVGID_123_);}	.st23{clip-path:url(#SVGID_124_);}	.st24{clip-path:url(#SVGID_125_);}	.st25{clip-path:url(#SVGID_126_);}	.st26{clip-path:url(#SVGID_127_);}	.st27{clip-path:url(#SVGID_128_);}	.st28{clip-path:url(#SVGID_129_);}	.st29{clip-path:url(#SVGID_130_);}	.st30{clip-path:url(#SVGID_131_);}	.st31{clip-path:url(#SVGID_132_);}	.st32{clip-path:url(#SVGID_133_);}	.st33{clip-path:url(#SVGID_134_);}	.st34{clip-path:url(#SVGID_135_);}	.st35{clip-path:url(#SVGID_136_);}	.st36{clip-path:url(#SVGID_137_);}	.st37{clip-path:url(#SVGID_138_);}	.st38{clip-path:url(#SVGID_139_);}	.st39{clip-path:url(#SVGID_140_);}	.st40{clip-path:url(#SVGID_141_);}	.st41{clip-path:url(#SVGID_142_);}	.st42{clip-path:url(#SVGID_143_);}	.st43{clip-path:url(#SVGID_144_);}	.st44{clip-path:url(#SVGID_145_);}	.st45{clip-path:url(#SVGID_146_);}	.st46{clip-path:url(#SVGID_147_);}	.st47{clip-path:url(#SVGID_148_);}	.st48{clip-path:url(#SVGID_149_);}	.st49{clip-path:url(#SVGID_150_);}	.st50{clip-path:url(#SVGID_151_);}	.st51{clip-path:url(#SVGID_152_);}	.st52{clip-path:url(#SVGID_153_);}	.st53{clip-path:url(#SVGID_154_);}	.st54{clip-path:url(#SVGID_155_);}	.st55{clip-path:url(#SVGID_156_);}	.st56{clip-path:url(#SVGID_157_);}	.st57{clip-path:url(#SVGID_158_);}	.st58{clip-path:url(#SVGID_159_);}	.st59{clip-path:url(#SVGID_160_);}	.st60{clip-path:url(#SVGID_161_);}	.st61{clip-path:url(#SVGID_162_);}	.st62{clip-path:url(#SVGID_163_);}	.st63{clip-path:url(#SVGID_164_);}	.st64{clip-path:url(#SVGID_165_);}	.st65{clip-path:url(#SVGID_166_);}	.st66{clip-path:url(#SVGID_167_);}	.st67{clip-path:url(#SVGID_168_);}	.st68{clip-path:url(#SVGID_169_);}	.st69{clip-path:url(#SVGID_170_);}	.st70{clip-path:url(#SVGID_171_);}	.st71{clip-path:url(#SVGID_172_);}	.st72{clip-path:url(#SVGID_173_);}	.st73{clip-path:url(#SVGID_174_);}	.st74{clip-path:url(#SVGID_175_);}	.st75{clip-path:url(#SVGID_176_);}	.st76{clip-path:url(#SVGID_177_);}	.st77{clip-path:url(#SVGID_178_);}	.st78{clip-path:url(#SVGID_179_);}	.st79{clip-path:url(#SVGID_180_);}	.st80{clip-path:url(#SVGID_181_);}	.st81{clip-path:url(#SVGID_182_);}	.st82{clip-path:url(#SVGID_183_);}	.st83{clip-path:url(#SVGID_184_);}	.st84{clip-path:url(#SVGID_185_);}	.st85{clip-path:url(#SVGID_186_);}	.st86{clip-path:url(#SVGID_187_);}	.st87{clip-path:url(#SVGID_188_);}	.st88{clip-path:url(#SVGID_189_);}	.st89{clip-path:url(#SVGID_190_);}	.st90{clip-path:url(#SVGID_191_);}	.st91{clip-path:url(#SVGID_192_);}	.st92{clip-path:url(#SVGID_193_);}	.st93{clip-path:url(#SVGID_194_);}	.st94{clip-path:url(#SVGID_195_);}	.st95{clip-path:url(#SVGID_196_);}	.st96{clip-path:url(#SVGID_197_);}	.st97{clip-path:url(#SVGID_198_);}	.st98{clip-path:url(#SVGID_199_);}	.st99{clip-path:url(#SVGID_200_);fill:#772067;}	.st100{clip-path:url(#SVGID_200_);}	.st101{fill:#5F4B99;}	.st102{fill:#36B9EC;}	.st103{fill:#69C0B2;}	.st104{fill:#2276BC;}	.st105{fill:#71B639;}	.st106{fill:#FFFFFF;}	.st107{fill:#EF7B9C;}	.st108{fill:#E50C50;}	.st109{fill:#77C08D;}	.st110{fill:#EEE53C;}	.st111{fill:#F4A6BB;}			.st112{clip-path:url(#SVGID_200_);fill:#36B9EC;stroke:#000000;stroke-width:2;stroke-linecap:round;stroke-linejoin:round;stroke-miterlimit:10;}	.st113{fill:#F9CF4C;}			.st114{clip-path:url(#SVGID_200_);fill:#5F4B99;stroke:#000000;stroke-width:2;stroke-linecap:round;stroke-linejoin:round;stroke-miterlimit:10;}	.st115{fill:none;}	.st116{fill:url(#SVGID_201_);}	.st117{fill:#781866;}	.st118{fill:#DFA600;}	.st119{fill:#DEA727;}</style><rect x="-8" y="-8" class="st117" width="351" height="175"/><g>	<g>		<path class="st106" d="M44.8,82.4c0.7,0.3,1.3,0.4,2,0.4c1.2,0,2.3-0.5,3.1-1.4c0.8-0.9,1.2-2.1,1.2-3.6c0-0.1,0-0.1,0-0.2			c0-0.1,0-0.1,0-0.2c0-1.2-0.3-2.2-0.8-3.1c-0.6-0.9-1.2-1.7-1.9-2.6c-0.1-0.1-0.2-0.2-0.3-0.3c-0.1-0.1-0.2-0.2-0.3-0.3			c-0.9-0.9-1.6-1.9-2.3-3c-0.7-1.1-1-2.4-1-3.9c0-0.1,0-0.1,0-0.1c0,0,0-0.1,0-0.1c0,0,0-0.1,0-0.1c0,0,0-0.1,0-0.1			c0.1-2.9,1-5.2,2.6-7c1.6-1.8,3.6-2.7,6-2.7c0.7,0,1.4,0.1,2.2,0.2c0.7,0.2,1.5,0.4,2.3,0.7l-0.6,4.3c-0.4-0.3-0.8-0.5-1.3-0.7			c-0.5-0.2-0.9-0.3-1.4-0.4c-0.1,0-0.2,0-0.3,0c-0.1,0-0.2,0-0.3,0c-1.1,0-2.1,0.3-3,1.1c-0.9,0.8-1.5,1.9-1.7,3.5c0,0,0,0.1,0,0.1			c0,0,0,0.1,0,0.1c0,0.1,0,0.1,0,0.1c0,0,0,0.1,0,0.1c0,0.1,0,0.2,0,0.3c0,0.1,0,0.2,0.1,0.3c0.2,0.8,0.6,1.7,1.3,2.5			c0.7,0.8,1.4,1.7,2.2,2.7c0.9,1.1,1.7,2.2,2.4,3.4c0.7,1.2,1.1,2.7,1.1,4.2c0,0,0,0.1,0,0.1c0,0,0,0.1,0,0.1c0,0,0,0.1,0,0.1			c0,0,0,0.1,0,0.1c-0.1,2.9-0.9,5.1-2.4,6.7c-1.5,1.6-3.1,2.5-4.9,2.9c-0.3,0.1-0.6,0.1-1,0.2c-0.3,0-0.6,0-1,0			c-0.9,0-1.8-0.1-2.6-0.4c-0.8-0.3-1.4-0.7-1.9-1.3l0.7-4.1C43.4,81.7,44.1,82.2,44.8,82.4z"/>		<path class="st106" d="M66.5,54.4l-3.7,24.1c0,0.3,0,0.6-0.1,0.8c0,0.2,0,0.5,0,0.7c0,1.1,0.2,1.9,0.6,2.3c0.4,0.4,1,0.6,1.8,0.6			c1.2,0,2-0.3,2.6-0.8c0.6-0.6,1.1-1.8,1.4-3.9l3.7-23.8h4l-3.7,23.8c-0.5,3.4-1.4,5.7-2.8,6.9c-1.4,1.2-3.2,1.8-5.6,1.8			c-1.7,0-3.2-0.4-4.4-1.2c-1.2-0.8-1.8-2.4-1.8-4.7c0-0.4,0-0.8,0.1-1.2c0-0.4,0.1-0.8,0.1-1.3l3.7-24.2H66.5z"/>		<path class="st106" d="M82.2,54.4h6c2.4,0,4.1,0.7,5,2c0.9,1.3,1.4,3,1.4,5.2c0,0.2,0,0.4,0,0.6s0,0.4,0,0.7			c-0.5,3.9-1.6,6.4-3.4,7.8c-1.8,1.3-4,2-6.4,2c-0.2,0-0.4,0-0.6,0s-0.4,0-0.7,0l-2.3,14h-4L82.2,54.4z M84.6,68.9			c0.1,0,0.3,0,0.4,0c1.3,0,2.4-0.4,3.2-1.2c0.8-0.8,1.4-2.1,1.7-3.9c0.1-0.4,0.1-0.8,0.1-1.1c0-0.3,0.1-0.7,0.1-0.9			c0-1.3-0.3-2.2-1-2.8c-0.7-0.6-1.7-0.9-3.2-0.9l-1.7,10.7C84.4,68.9,84.5,68.9,84.6,68.9z"/>		<path class="st106" d="M98.6,54.4h6c2.4,0,4.1,0.7,5,2c0.9,1.3,1.4,3,1.4,5.2c0,0.2,0,0.4,0,0.6s0,0.4,0,0.7			c-0.5,3.9-1.6,6.4-3.4,7.8c-1.8,1.3-4,2-6.4,2c-0.2,0-0.4,0-0.6,0s-0.4,0-0.7,0l-2.3,14h-4L98.6,54.4z M101.1,68.9			c0.1,0,0.3,0,0.4,0c1.3,0,2.4-0.4,3.2-1.2c0.8-0.8,1.4-2.1,1.7-3.9c0.1-0.4,0.1-0.8,0.1-1.1c0-0.3,0.1-0.7,0.1-0.9			c0-1.3-0.3-2.2-1-2.8c-0.7-0.6-1.7-0.9-3.2-0.9l-1.7,10.7C100.8,68.9,100.9,68.9,101.1,68.9z"/>		<path class="st106" d="M120.1,54.4l-4.7,28.2h7.4l-0.6,4h-11.7l5-32.2H120.1z"/>		<path class="st106" d="M127.5,72.8l-3.7-18.4h4.7l1.7,15.1l1.7-5.4l4-9.7h4.7l-8.7,18.1l-2.3,14.1h-4.3L127.5,72.8z"/>		<path class="st106" d="M164.1,55l-0.7,4c-0.3-0.2-0.5-0.3-0.8-0.4c-0.3-0.1-0.5-0.2-0.8-0.3c-0.2,0-0.4-0.1-0.6-0.1			c-0.2,0-0.4,0-0.5,0c-1,0-1.9,0.3-2.8,0.9c-0.9,0.6-1.6,1.4-2.2,2.4c-0.1,0.2-0.2,0.5-0.4,0.8c-0.1,0.3-0.2,0.6-0.4,0.9			c-0.4,1.1-0.8,2.5-1.2,4c-0.4,1.5-0.7,3.1-0.9,4.8c-0.1,0.7-0.2,1.4-0.2,2.1c-0.1,0.7-0.1,1.4-0.1,2c0,0.7,0,1.4,0.1,2			c0.1,0.7,0.2,1.3,0.3,1.8c0.2,1,0.7,1.8,1.4,2.4c0.7,0.6,1.6,1,2.7,1c0.4,0,0.8-0.1,1.3-0.2c0.4-0.1,0.9-0.3,1.3-0.5l-0.7,3.6			c-0.5,0.3-1,0.5-1.6,0.7c-0.6,0.1-1.2,0.2-1.8,0.2c-0.1,0-0.2,0-0.4,0c-0.1,0-0.3,0-0.4,0c-0.9-0.1-1.8-0.3-2.7-0.7			c-0.9-0.4-1.6-1-2.1-1.7c-0.7-0.9-1.3-2.1-1.6-3.6c-0.3-1.5-0.5-3.1-0.5-4.9c0-0.8,0-1.7,0.1-2.5c0.1-0.9,0.2-1.7,0.3-2.6			c0.4-2.8,1.1-5.5,2.1-8.1c1-2.6,2.1-4.5,3.3-5.8c0.1-0.1,0.1-0.1,0.2-0.2c0.1-0.1,0.2-0.1,0.3-0.2c0.7-0.6,1.6-1.2,2.7-1.7			c1.1-0.5,2.2-0.8,3.5-0.8c0.6,0,1.2,0.1,1.9,0.2C162.8,54.5,163.4,54.8,164.1,55L164.1,55z"/>		<path class="st106" d="M172.1,54.4l-2,12.4h6l2.3-12.4h4.3l-5.4,32.2h-4.3l2.7-15.7h-6.4l-2.7,15.7h-4.3l5.4-32.2H172.1z"/>		<path class="st106" d="M195.8,54.4l1.7,32.2h-4.3l-0.3-6h-6.3l-2,6h-4.3l12-32.2H195.8z M192.5,76.8l0.3-15.7l-5,15.7H192.5z"/>		<path class="st106" d="M209.9,54.4l-5,32.2h-4.3l5-32.2H209.9z"/>		<path class="st106" d="M214.6,54.4h4.4l3.7,24.8l0.7-11.4l2-13.4h4.4l-5.4,32.2h-3.7l-3.7-24.8l-0.6,10.1l-2.4,14.7h-4.3			L214.6,54.4z"/>		<path class="st119" d="M248.1,54.4c3.9,0,6.4,0.8,7.6,2.4c1.1,1.6,1.7,3.3,1.8,5.2c0,0.1,0,0.2,0,0.4c0,0.1,0,0.3,0,0.4			c0,1.2-0.1,2.8-0.2,4.7c-0.2,1.9-0.4,3.9-0.9,5.9c-0.6,2.7-1.5,5.3-2.7,7.7c-1.2,2.4-2.9,4-5,4.8c-0.9,0.3-1.8,0.5-2.9,0.6			c-1,0.1-2.1,0.1-3.2,0.1c-0.4,0-0.7,0-1.1,0c-0.4,0-0.7,0-1.1,0c-0.4,0-0.7,0-1.1,0s-0.7,0-1,0l5.4-32.2H248.1z M247.4,58.1			l-4,24.8c0.1,0.1,0.3,0.1,0.4,0.1s0.2,0,0.3,0c1.5,0,2.8-0.4,3.8-1.3c1-0.8,1.8-1.9,2.2-3.1c0.1-0.4,0.3-1,0.5-1.7			c0.2-0.7,0.4-1.6,0.6-2.5c0.1-0.7,0.3-1.3,0.4-2c0.1-0.7,0.3-1.4,0.4-2.1c0.2-1.3,0.4-2.5,0.6-3.8c0.2-1.2,0.2-2.3,0.2-3.1			c0-0.2,0-0.3,0-0.5s0-0.3,0-0.4c-0.2-1.3-0.7-2.4-1.7-3.2C250.2,58.5,248.9,58.1,247.4,58.1L247.4,58.1z"/>		<path class="st119" d="M271.6,54.4l1.7,32.2h-4.3l-0.3-6h-6.3l-2,6h-4.3l12-32.2H271.6z M268.2,76.8l0.3-15.7l-5,15.7H268.2z"/>		<path class="st119" d="M279.9,72.8l-3.7-18.4h4.7l1.7,15.1l1.7-5.4l4-9.7h4.7l-8.7,18.1l-2.3,14.1h-4.3L279.9,72.8z"/>	</g>	<g>		<path class="st119" d="M255,104.2h3.5l-0.3,1.5h-6c0.4-0.7,0.9-1.3,1.3-2c0.4-0.7,0.9-1.3,1.3-2c0.3-0.4,0.6-0.9,0.8-1.3			c0.3-0.4,0.6-0.9,0.8-1.4c0.1-0.1,0.1-0.2,0.2-0.4c0.1-0.1,0.2-0.3,0.2-0.4c0.4-0.7,0.7-1.3,0.9-2c0.2-0.6,0.3-1.1,0.3-1.6			c0-0.3-0.1-0.6-0.2-0.8c-0.1-0.2-0.3-0.3-0.5-0.3c0,0,0,0,0,0s0,0,0,0c0,0,0,0,0,0c0,0,0,0,0,0c-0.5,0-0.8,0.2-1,0.5			c-0.2,0.3-0.3,0.8-0.4,1.3c0,0.2-0.1,0.4-0.1,0.5c0,0.2-0.1,0.4-0.1,0.6l-1.8,0c0.1-1.1,0.4-2.1,0.9-3.1c0.5-0.9,1.3-1.4,2.6-1.5			c0.8,0,1.4,0.2,2,0.6c0.5,0.4,0.8,1,0.8,1.9c0,0.2,0,0.5-0.1,0.8c-0.1,0.3-0.1,0.6-0.2,0.9c-0.2,0.6-0.5,1.3-0.8,1.9			c-0.3,0.7-0.7,1.3-1.2,2c-0.3,0.5-0.7,1.1-1.1,1.6c-0.4,0.5-0.8,1.1-1.2,1.6c-0.1,0.1-0.2,0.3-0.3,0.4			C255.2,103.9,255.1,104.1,255,104.2L255,104.2z"/>		<path class="st119" d="M260.1,102.6c0-0.3,0-0.6,0-0.9c0-0.3,0-0.6,0.1-1c0.2-2.2,0.6-4.2,1.3-6c0.7-1.8,1.7-2.7,3.1-2.7			c0.8,0,1.4,0.3,1.8,0.8c0.4,0.5,0.6,1.2,0.6,2.1c0,0,0,0.1,0,0.1c0,0,0,0.1,0,0.1c0,0,0,0.1,0,0.1c0,0,0,0.1,0,0.1			c0,0.6-0.1,1.3-0.1,2c-0.1,0.7-0.2,1.5-0.3,2.3c-0.3,1.6-0.7,3.1-1.4,4.4c-0.6,1.3-1.6,2-2.8,2c-0.6,0-1.1-0.2-1.5-0.6			C260.4,105,260.1,104.1,260.1,102.6L260.1,102.6z M261.8,102.4c0,0.6,0,1.1,0.1,1.5c0.1,0.4,0.3,0.6,0.6,0.6			c0.7,0,1.2-0.6,1.5-1.8c0.3-1.2,0.6-2.6,0.8-4c0.1-0.4,0.1-0.9,0.2-1.3c0-0.4,0.1-0.9,0.1-1.3c0-0.1,0-0.2,0-0.3			c0-0.1,0-0.2,0-0.3c0-0.5-0.1-0.9-0.2-1.2c-0.1-0.3-0.4-0.4-0.7-0.4c-0.5,0-0.9,0.5-1.2,1.4c-0.3,0.9-0.6,1.9-0.8,3			c-0.2,0.9-0.3,1.7-0.4,2.5C261.8,101.5,261.8,102.1,261.8,102.4L261.8,102.4z"/>		<path class="st119" d="M270.6,93.7h-1.3l0.3-1.5h2.9l-2.1,13.4h-1.7L270.6,93.7z"/>		<path class="st119" d="M278.3,100.4c-0.1,0.1-0.3,0.2-0.4,0.2c-0.1,0.1-0.3,0.1-0.4,0.1c-0.1,0-0.3,0-0.4,0			c-0.5,0-0.9-0.2-1.2-0.6c-0.3-0.4-0.5-1-0.5-1.8c0,0,0-0.1,0-0.1c0,0,0-0.1,0-0.1c0.1-2,0.4-3.4,1-4.3c0.6-0.9,1.2-1.4,1.9-1.5			c0.1,0,0.2,0,0.3-0.1c0.1,0,0.2,0,0.3,0c1.1,0,1.8,0.2,2.2,0.7c0.3,0.5,0.5,1,0.5,1.7c0,0.4,0,0.8-0.1,1.2c0,0.4-0.1,0.8-0.2,1.2			c-0.2,1-0.5,2.1-0.9,3.1c-0.4,1-0.8,1.9-1.3,2.6l-2,2.9H275l3.8-5.6C278.6,100.3,278.5,100.4,278.3,100.4z M277.2,97.6			c0,0.1,0,0.2,0,0.2c0,0.1,0,0.1,0,0.2c0,0.3,0.1,0.6,0.2,0.8c0.1,0.2,0.4,0.3,0.7,0.3c0.5,0,0.8-0.3,1.1-1			c0.2-0.6,0.4-1.5,0.6-2.5c0-0.1,0-0.2,0-0.2c0-0.1,0-0.2,0-0.2c0-0.4-0.1-0.7-0.2-1c-0.1-0.3-0.4-0.4-0.7-0.4			c-0.4,0-0.7,0.2-0.9,0.7c-0.2,0.5-0.4,1-0.5,1.5c-0.1,0.3-0.1,0.5-0.2,0.8C277.3,97.2,277.2,97.4,277.2,97.6L277.2,97.6z"/>	</g></g></svg>