<?xml version="1.0" encoding="utf-8"?>
<!-- Generator: Adobe Illustrator 22.1.0, SVG Export Plug-In . SVG Version: 6.00 Build 0)  -->
<svg version="1.1" id="Camada_1" xmlns="http://www.w3.org/2000/svg" xmlns:xlink="http://www.w3.org/1999/xlink" x="0px" y="0px"
	 viewBox="0 0 1920 1080" style="enable-background:new 0 0 1920 1080;" xml:space="preserve">
<style type="text/css">
	.st0{fill:#772067;}
	.st1{fill:#FFFFFF;}
	.st2{fill:#DEA827;}
</style>
<rect x="-5" y="-5" class="st0" width="1930" height="1090"/>
<g>
	<g>
		<path class="st1" d="M335.9,498.4c10.2,11.6,20.2,20.2,30.1,25.9c9.9,5.7,19.8,8.6,29.6,8.6c9.2,0,16.7-2.5,22.6-7.4
			c5.9-4.9,8.8-11.2,8.8-18.7c0-8.4-2.5-14.8-7.6-19.3c-5.1-4.5-16.6-9.2-34.6-14c-24.6-6.6-42-15.3-52.2-25.9
			c-10.2-10.6-15.3-25.2-15.3-43.8c0-24,8-43.6,24.1-58.8c16.1-15.2,36.9-22.7,62.6-22.7c13.8,0,27,1.9,39.4,5.6
			c12.4,3.7,24.2,9.4,35.3,16.9l-21.5,49.3c-7.8-6.6-15.8-11.6-23.9-15c-8.2-3.4-16.3-5.1-24.3-5.1c-8.2,0-14.9,2-20.1,5.9
			c-5.1,3.9-7.7,9-7.7,15.2c0,6.3,2.3,11.3,6.8,15.1c4.5,3.8,13.2,7.4,26.2,10.8l3.1,0.9c27.9,7.6,46.3,15.8,55.1,24.9
			c5.9,6.2,10.5,13.6,13.6,22.2c3.1,8.6,4.6,18.2,4.6,28.7c0,26.7-8.8,48.1-26.3,64.3c-17.5,16.2-40.8,24.3-70,24.3
			c-17.5,0-33.4-3-47.8-8.9c-14.4-5.9-28.2-15.3-41.4-28L335.9,498.4z"/>
		<path class="st1" d="M527.4,328.3h68.3v122.2c0,18,0.5,30.9,1.4,38.7c0.9,7.8,2.5,14.4,4.6,19.7c2.6,6.4,7.2,11.3,13.7,14.7
			c6.5,3.4,14.5,5.1,23.9,5.1c9.4,0,17.3-1.7,23.8-5.1c6.5-3.4,11.1-8.3,13.8-14.7c2.2-5.3,3.7-11.8,4.6-19.7
			c0.9-7.8,1.4-20.7,1.4-38.7v-17.2v-105H751v132.8c0,27.6-1.7,47.9-5,61c-3.3,13.1-8.9,24.3-16.8,33.6
			c-8.6,10.2-20.4,17.8-35.4,22.9c-15,5.1-33.2,7.6-54.6,7.6c-21.5,0-39.7-2.5-54.7-7.6s-26.7-12.7-35.4-22.9
			c-7.8-9.3-13.4-20.5-16.7-33.6c-3.4-13.1-5.1-33.4-5.1-61v-26.1V328.3z"/>
		<path class="st1" d="M867.2,579.6h-64.2V328.3h71.6c28,0,47.7,1.4,59,4.1s20.9,7.4,28.8,14.1c9.3,7.7,16.3,17.2,21.2,28.7
			c4.9,11.5,7.3,24.3,7.3,38.4c0,15-2.4,28.2-7.2,39.6c-4.8,11.4-11.9,20.7-21.3,28.1c-7.1,5.5-15.4,9.4-25.1,11.8
			c-9.6,2.4-25,3.6-46.2,3.6h-11.7h-12.4V579.6z M867.2,441.4h13c16.5,0,28-2.3,34.5-6.8s9.8-12.2,9.8-23.1c0-10.5-3.2-18-9.6-22.5
			c-6.4-4.5-17.7-6.7-34-6.7h-13.7V441.4z"/>
		<path class="st1" d="M1090,579.6h-64.2V328.3h71.6c28,0,47.7,1.4,59,4.1s20.9,7.4,28.8,14.1c9.3,7.7,16.3,17.2,21.2,28.7
			c4.9,11.5,7.3,24.3,7.3,38.4c0,15-2.4,28.2-7.2,39.6s-11.9,20.7-21.3,28.1c-7.1,5.5-15.4,9.4-25.1,11.8c-9.6,2.4-25,3.6-46.2,3.6
			h-11.7H1090V579.6z M1090,441.4h13c16.5,0,28-2.3,34.5-6.8c6.5-4.5,9.8-12.2,9.8-23.1c0-10.5-3.2-18-9.6-22.5
			c-6.4-4.5-17.7-6.7-34-6.7H1090V441.4z"/>
		<path class="st1" d="M1248.6,579.6V328.3h68.5v192.6h85.1v58.7H1248.6z"/>
		<path class="st1" d="M1461.1,579.6V465l-87.9-136.6h78.6l33.8,64.7c0.2,0.3,0.6,1,1,1.9c3.5,6.8,6,13.2,7.4,19.4
			c1.1-5.6,3.6-11.8,7.4-18.7c0.7-1.3,1.1-2.1,1.4-2.6l33.5-64.7h78.8L1527.1,465v114.6H1461.1z"/>
	</g>
	<g>
		<path class="st2" d="M339.3,645.6h-21l4.3-25.3h68.7l-4.3,25.3h-19.6l-18.3,109.2h-27.9L339.3,645.6z"/>
		<path class="st2" d="M402.3,620.3h28.1c15.9,0.1,26.9,3.3,33.2,9.6c6.2,6.3,9.3,13.5,9.3,21.5c0,1,0,1.9-0.1,2.8
			c-0.1,0.9-0.1,1.8-0.3,2.8c-1.1,7.6-3.9,14.8-8.4,21.5c-4.5,6.8-9.4,11.3-14.6,13.7c-0.7,0.4-1.4,0.6-2,0.8
			c-0.7,0.2-1.3,0.3-1.9,0.4l14.1,61.4h-27.9l-14.1-60.3l-9.8,60.3h-26.7L402.3,620.3z M421.3,679.4c0.2,0,0.4,0,0.6,0
			c0.2,0.1,0.4,0.2,0.6,0.2c0.2,0,0.4,0,0.6,0c6,0,11.1-2,15-6c4-4,6.4-8.3,7.4-13.1c0.1-0.7,0.2-1.4,0.3-2c0.1-0.7,0.1-1.3,0.1-2
			c0-3.8-1.2-7.1-3.6-9.8c-2.4-2.7-6.3-4.1-11.6-4.1c-0.7,0-1.4,0-2.1,0.1c-0.7,0.1-1.5,0.1-2.3,0.3l-5.5,36.3
			C420.9,679.3,421.1,679.4,421.3,679.4z"/>
		<path class="st2" d="M520.1,620.3h29.5l11.2,134.5h-29.5l-1.4-22.4h-26.5l-7.1,22.4h-27.9L520.1,620.3z M527.2,680.6l1.2-28.1
			l-18.1,58.9h18.1L527.2,680.6z"/>
		<path class="st2" d="M590.1,620.3h26.7l21,84.1V689l9.8-68.7h26.7l-21,134.5H628l-19.6-84v12.4l-11.2,71.5h-28.1L590.1,620.3z"/>
		<path class="st2" d="M685.6,728.3c2,1.1,4,1.9,6,2.5c1.1,0.2,2.1,0.4,3.2,0.5c1.1,0.1,2.1,0.2,3,0.2c4.7,0,8.9-1.3,12.4-4
			c3.5-2.7,5.5-6.6,6-11.7c0-0.1,0-0.2,0-0.3c0-0.1,0-0.1,0-0.3s0-0.2,0-0.4c0-2.3-0.6-4.4-1.9-6.3c-1.2-2-2.9-3.8-4.9-5.6
			c-1.4-1.3-2.9-2.6-4.5-3.8c-1.6-1.2-3.2-2.6-4.9-4c-4-3.4-7.7-7.5-11.1-12.3c-3.4-4.7-5.1-10.8-5.1-18.1c0-0.6,0-1.2,0-1.9
			c0-0.7,0.1-1.3,0.2-1.9c1.1-13.4,5.8-23.8,14.2-31.1c8.4-7.4,17.8-11.1,28.3-11.2c3.8,0,7.5,0.5,11.2,1.5c3.7,1,7.2,2.5,10.7,4.5
			l-4.1,26.3c-1.8-2.3-3.9-4.1-6.5-5.6c-2.6-1.5-5.2-2.5-7.9-2.9c-0.6-0.1-1.2-0.2-1.7-0.3c-0.5-0.1-1.1-0.1-1.7-0.1
			c-3.7,0-6.9,1.1-9.7,3.3c-2.8,2.2-4.4,5.5-4.7,10.1c0,0.1,0,0.2,0,0.4c0,0.1,0,0.2,0,0.4c0,0.1,0,0.2,0,0.4c0,0.1,0,0.2,0,0.4
			c0,4.6,1.2,8.4,3.7,11.5c2.5,3,5.3,5.8,8.5,8.4c0.6,0.5,1.2,0.9,1.7,1.3c0.5,0.4,1,0.8,1.5,1.2c3.8,3.1,7.3,6.6,10.6,10.6
			c3.3,4,4.9,9.5,4.9,16.5c0,0.4,0,0.7,0,1.2c0,0.4,0,0.9,0,1.3c0,0.2,0,0.4-0.1,0.6c-0.1,0.2-0.1,0.4-0.1,0.6
			c-1.1,14.6-5.9,25.9-14.5,33.9c-8.6,8-18,12.4-28.2,13.1c-0.5,0.1-0.9,0.2-1.3,0.2c-0.4,0-0.9,0-1.3,0c-3.9,0-7.7-0.5-11.5-1.6
			c-3.7-1.1-7.2-2.7-10.4-5l4.1-26.7C681.7,725.8,683.6,727.2,685.6,728.3z"/>
		<path class="st2" d="M770.8,620.3h54.6l-4.1,25.3h-26.7l-4.1,27.9h23.7l-4.1,25.3h-23.8l-9.8,56h-26.7L770.8,620.3z"/>
		<path class="st2" d="M825.6,708.6c0-22.3,5-42.5,15-60.7c10-18.2,24.2-27.3,42.4-27.3c12,0,21.3,4.6,27.8,13.7
			c6.6,9.1,9.9,20.8,10.1,35c0,0.4,0,0.7,0,1.1c0,0.4,0,0.7,0,1.1c-0.1,0.5-0.2,0.9-0.2,1.2c0,0.4,0,0.7,0,1.1
			c-1.4,23.8-7.3,43.8-17.5,59.9c-10.3,16.1-24.5,24.1-42.6,24.1c-11.9,0-20.7-4.5-26.4-13.4c-5.8-9-8.6-20.8-8.6-35.5V708.6z
			 M853.6,701.6c0,1.8,0,3.6,0,5.4c0,1.8,0.1,3.7,0.2,5.6c0.4,5.3,1.4,10.2,3,14.7c1.7,4.4,4.8,6.7,9.4,6.7
			c7.7,0,13.9-6.1,18.6-18.2c4.7-12.2,7.4-26.7,8.1-43.5c0-9.8-0.9-16.7-2.7-20.6c-1.8-3.9-5.1-5.9-10-5.9
			c-6.9,0-12.2,3.9-16.1,11.8c-3.9,7.9-6.7,16.6-8.4,26.1c-0.5,3.1-0.9,6.2-1.2,9.2c-0.4,3.1-0.7,6-0.9,8.9V701.6z"/>
		<path class="st2" d="M944.6,620.3h28.1c15.9,0.1,26.9,3.3,33.2,9.6c6.2,6.3,9.3,13.5,9.3,21.5c0,1,0,1.9-0.1,2.8
			c-0.1,0.9-0.1,1.8-0.3,2.8c-1.1,7.6-3.9,14.8-8.4,21.5c-4.5,6.8-9.4,11.3-14.6,13.7c-0.7,0.4-1.4,0.6-2,0.8
			c-0.7,0.2-1.3,0.3-1.9,0.4l14.1,61.4h-27.9l-14.1-60.3l-9.8,60.3h-26.7L944.6,620.3z M963.6,679.4c0.2,0,0.4,0,0.6,0
			c0.2,0.1,0.4,0.2,0.6,0.2c0.2,0,0.4,0,0.6,0c6,0,11.1-2,15-6c4-4,6.4-8.3,7.4-13.1c0.1-0.7,0.2-1.4,0.3-2c0.1-0.7,0.1-1.3,0.1-2
			c0-3.8-1.2-7.1-3.6-9.8c-2.4-2.7-6.3-4.1-11.6-4.1c-0.7,0-1.4,0-2.1,0.1c-0.7,0.1-1.5,0.1-2.3,0.3l-5.5,36.3
			C963.2,679.3,963.4,679.4,963.6,679.4z"/>
		<path class="st2" d="M1045.6,620.3h35l1.2,79.9l22.4-79.9h36.5l-6.9,134.5h-26.7l8.4-93.9l-30.8,93.9h-21l-2.8-93.9l-18.1,93.9
			h-29.4L1045.6,620.3z"/>
		<path class="st2" d="M1191.1,620.3h29.5l11.2,134.5h-29.5l-1.4-22.4h-26.5l-7.1,22.4h-27.9L1191.1,620.3z M1198.3,680.6l1.2-28.1
			l-18.1,58.9h18.1L1198.3,680.6z"/>
		<path class="st2" d="M1262.6,645.6h-21l4.3-25.3h68.7l-4.3,25.3h-19.6l-18.3,109.2h-27.9L1262.6,645.6z"/>
		<path class="st2" d="M1325.6,620.3h26.7l-19.6,134.5H1306L1325.6,620.3z"/>
		<path class="st2" d="M1355.1,708.6c0-22.3,5-42.5,15-60.7c10-18.2,24.2-27.3,42.4-27.3c12,0,21.3,4.6,27.8,13.7
			c6.6,9.1,9.9,20.8,10.1,35c0,0.4,0,0.7,0,1.1c0,0.4,0,0.7,0,1.1c-0.1,0.5-0.2,0.9-0.2,1.2c0,0.4,0,0.7,0,1.1
			c-1.4,23.8-7.3,43.8-17.5,59.9c-10.3,16.1-24.5,24.1-42.6,24.1c-11.9,0-20.7-4.5-26.4-13.4c-5.8-9-8.6-20.8-8.6-35.5V708.6z
			 M1383.1,701.6c0,1.8,0,3.6,0,5.4c0,1.8,0.1,3.7,0.2,5.6c0.4,5.3,1.4,10.2,3,14.7c1.7,4.4,4.8,6.7,9.4,6.7
			c7.7,0,13.9-6.1,18.6-18.2c4.7-12.2,7.4-26.7,8.1-43.5c0-9.8-0.9-16.7-2.7-20.6c-1.8-3.9-5.1-5.9-10-5.9
			c-6.9,0-12.2,3.9-16.1,11.8c-3.9,7.9-6.7,16.6-8.4,26.1c-0.5,3.1-0.9,6.2-1.2,9.2c-0.4,3.1-0.7,6-0.9,8.9V701.6z"/>
		<path class="st2" d="M1474.1,620.3h26.7l21,84.1V689l9.8-68.7h26.7l-21,134.5H1512l-19.6-84v12.4l-11.2,71.5h-28.1L1474.1,620.3z"
			/>
	</g>
</g>
</svg>
