<?xml version="1.0" encoding="iso-8859-1"?>
<!-- Generator: Adobe Illustrator 19.0.0, SVG Export Plug-In . SVG Version: 6.00 Build 0)  -->
<svg version="1.1" id="Layer_1" xmlns="http://www.w3.org/2000/svg" xmlns:xlink="http://www.w3.org/1999/xlink" x="0px" y="0px"
	 viewBox="0 0 24 24" style="enable-background:new 0 0 24 24;" xml:space="preserve">
<g id="XMLID_663_">
	<path id="XMLID_671_" style="fill:none;" d="M0.064,0.064h23.872v23.872H0.064V0.064z"/>
	<path id="XMLID_664_" style="fill:#944684;" d="M7.027,11.005h1.989v1.989H7.027V11.005z M20.952,6.032v13.925
		c0,1.094-0.895,1.989-1.989,1.989H5.037c-1.104,0-1.989-0.895-1.989-1.989l0.01-13.925c0-1.094,0.875-1.989,1.979-1.989h0.995
		V2.053h1.989v1.989h7.957V2.053h1.989v1.989h0.995C20.057,4.043,20.952,4.938,20.952,6.032z M5.037,8.021h13.925V6.032H5.037V8.021
		z M18.963,19.957v-9.947H5.037v9.947H18.963z M14.984,12.995h1.989v-1.989h-1.989V12.995z M11.005,12.995h1.989v-1.989h-1.989
		V12.995z"/>
</g>
</svg>
