<?xml version="1.0" encoding="iso-8859-1"?>
<!-- Generator: Adobe Illustrator 19.0.0, SVG Export Plug-In . SVG Version: 6.00 Build 0)  -->
<svg version="1.1" id="Layer_1" xmlns="http://www.w3.org/2000/svg" xmlns:xlink="http://www.w3.org/1999/xlink" x="0px" y="0px"
	 viewBox="0 0 24 24" style="enable-background:new 0 0 24 24;" xml:space="preserve">
<path id="XMLID_1051_" style="fill:none;" d="M1.5,1.5h21v21h-21V1.5z"/>
<path id="XMLID_1048_" style="fill:#944684;" d="M2.375,20.75h3.5v-10.5h-3.5V20.75z M21.625,11.125c0-0.963-0.787-1.75-1.75-1.75
	h-5.521l0.831-3.999l0.026-0.28c0-0.359-0.149-0.691-0.385-0.928L13.899,3.25L8.141,9.016C7.817,9.331,7.625,9.769,7.625,10.25V19
	c0,0.963,0.787,1.75,1.75,1.75h7.875c0.726,0,1.348-0.438,1.61-1.067l2.642-6.169c0.079-0.201,0.122-0.411,0.122-0.639V11.125z"/>
</svg>
