<?xml version="1.0" encoding="iso-8859-1"?>
<!-- Generator: Adobe Illustrator 19.0.0, SVG Export Plug-In . SVG Version: 6.00 Build 0)  -->
<svg version="1.1" id="Layer_1" xmlns="http://www.w3.org/2000/svg" xmlns:xlink="http://www.w3.org/1999/xlink" x="0px" y="0px"
	 viewBox="0 0 24 24" style="enable-background:new 0 0 24 24;" xml:space="preserve">
<g id="XMLID_1328_">
	<path id="XMLID_1335_" style="fill:none;" d="M0.817,0.817h22.366v22.366H0.817V0.817z"/>
	<path id="XMLID_1329_" style="fill:#944684;" d="M7.34,10.136H5.477V8.272c0-0.513-0.419-0.932-0.932-0.932S3.613,7.76,3.613,8.272
		v1.864H1.749c-0.513,0-0.932,0.419-0.932,0.932C0.817,11.581,1.236,12,1.749,12h1.864v1.864c0,0.513,0.419,0.932,0.932,0.932
		s0.932-0.419,0.932-0.932V12H7.34c0.513,0,0.932-0.419,0.932-0.932C8.272,10.556,7.853,10.136,7.34,10.136z M17.591,11.068
		c1.547,0,2.786-1.249,2.786-2.796s-1.239-2.796-2.786-2.796c-0.298,0-0.587,0.047-0.848,0.13c0.531,0.755,0.839,1.668,0.839,2.665
		s-0.317,1.901-0.839,2.665C17.004,11.021,17.293,11.068,17.591,11.068z M12.932,11.068c1.547,0,2.786-1.249,2.786-2.796
		s-1.239-2.796-2.786-2.796s-2.796,1.249-2.796,2.796S11.385,11.068,12.932,11.068z M12.932,12.932
		c-1.864,0-5.591,0.932-5.591,2.796v0.932c0,0.513,0.419,0.932,0.932,0.932h9.319c0.513,0,0.932-0.419,0.932-0.932v-0.932
		C18.523,13.864,14.796,12.932,12.932,12.932z M19.101,13.081c0.773,0.68,1.286,1.547,1.286,2.647v1.398
		c0,0.158-0.019,0.317-0.047,0.466h2.376c0.261,0,0.466-0.205,0.466-0.466v-1.398C23.183,14.293,20.974,13.407,19.101,13.081z"/>
</g>
</svg>
