<?xml version="1.0" encoding="iso-8859-1"?>
<!-- Generator: Adobe Illustrator 19.0.0, SVG Export Plug-In . SVG Version: 6.00 Build 0)  -->
<svg version="1.1" id="Layer_1" xmlns="http://www.w3.org/2000/svg" xmlns:xlink="http://www.w3.org/1999/xlink" x="0px" y="0px"
	 viewBox="0 0 24 24" style="enable-background:new 0 0 24 24;" xml:space="preserve">
<g id="XMLID_815_">
	<path id="XMLID_820_" style="fill:none;" d="M1,1h22v22H1V1z"/>
	<path id="XMLID_816_" style="fill:#944684;" d="M18.737,10.203C18.114,7.041,15.337,4.667,12,4.667
		c-2.649,0-4.95,1.503-6.096,3.703C3.145,8.663,1,11.001,1,13.833c0,3.034,2.466,5.5,5.5,5.5h11.917c2.53,0,4.583-2.053,4.583-4.583
		C23,12.33,21.121,10.368,18.737,10.203z M18.417,17.5H6.5c-2.026,0-3.667-1.641-3.667-3.667c0-1.879,1.402-3.447,3.263-3.639
		l0.981-0.101l0.458-0.871C8.407,7.545,10.112,6.5,12,6.5c2.402,0,4.473,1.705,4.941,4.061l0.275,1.375l1.403,0.101
		c1.43,0.092,2.548,1.292,2.548,2.713C21.167,16.262,19.929,17.5,18.417,17.5z M8.333,12.917h2.337v2.75h2.658v-2.75h2.337L12,9.25
		L8.333,12.917z"/>
</g>
</svg>
