<svg xmlns="http://www.w3.org/2000/svg" width="11.473" height="9.03" viewBox="0 0 11.473 9.03">
  <g id="camera" transform="translate(-236.521 -106.501)">
    <g id="Group_298" data-name="Group 298" transform="translate(236.521 106.501)">
      <g id="Group_297" data-name="Group 297" transform="translate(0 0)">
        <path id="Path_92" data-name="Path 92" d="M11.091,46.207a1.234,1.234,0,0,0-.905-.382H8.376V45.8a.979.979,0,0,0-.294-.709,1,1,0,0,0-.709-.294H4.1a1.005,1.005,0,0,0-1.014,1v.022h-1.8a1.234,1.234,0,0,0-.905.382A1.3,1.3,0,0,0,0,47.112v5.431a1.234,1.234,0,0,0,.382.905,1.3,1.3,0,0,0,.905.382h8.9a1.234,1.234,0,0,0,.905-.382,1.3,1.3,0,0,0,.382-.905V47.112A1.234,1.234,0,0,0,11.091,46.207Zm-.185,6.336H10.9a.707.707,0,0,1-.709.709h-8.9a.707.707,0,0,1-.709-.709V47.112a.707.707,0,0,1,.709-.709h2.1a.293.293,0,0,0,.294-.294v-.316a.411.411,0,0,1,.425-.425H7.372a.411.411,0,0,1,.425.425v.316a.293.293,0,0,0,.294.294h2.1a.707.707,0,0,1,.709.709Z" transform="translate(0 -44.8)" fill="#772066"/>
        <path id="Path_93" data-name="Path 93" d="M114.683,130.8a2.681,2.681,0,1,0,1.9.785A2.688,2.688,0,0,0,114.683,130.8Zm1.483,4.177a2.106,2.106,0,0,1-2.966,0,2.085,2.085,0,0,1-.611-1.483,2.131,2.131,0,0,1,.611-1.483,2.085,2.085,0,0,1,1.483-.611,2.131,2.131,0,0,1,1.483.611,2.085,2.085,0,0,1,.611,1.483A2.041,2.041,0,0,1,116.166,134.977Z" transform="translate(-108.946 -128.455)" fill="#772066"/>
        <circle id="Ellipse_11" data-name="Ellipse 11" cx="0.534" cy="0.534" r="0.534" transform="translate(9.085 2.334)" fill="#772066"/>
      </g>
    </g>
  </g>
</svg>
