<?xml version="1.0" encoding="utf-8"?>
<!-- Generator: Adobe Illustrator 23.1.0, SVG Export Plug-In . SVG Version: 6.00 Build 0)  -->
<svg version="1.1" id="Camada_1" xmlns="http://www.w3.org/2000/svg" xmlns:xlink="http://www.w3.org/1999/xlink" x="0px" y="0px"
	 viewBox="0 0 349 294" style="enable-background:new 0 0 349 294;" xml:space="preserve">
<style type="text/css">
	.st0{fill:#FFFFFF;}
</style>
<path class="st0" d="M27.5,145.14c0-24.94,0-49.89,0-74.83c0-4.67,0.72-9.18,3.43-13.12c2.6-3.77,6.22-6.23,10.51-7.79
	c35.07-12.76,70.14-25.48,105.17-38.35c5.76-2.12,11.34-2.31,17.27-0.99C208.95,20.09,254.04,30,299.13,39.95
	c2.28,0.5,4.56,0.98,6.82,1.53c9.44,2.28,15.5,9.94,15.5,19.56c0,49.16-0.06,98.32,0.05,147.48c0.02,9.51-4.23,15.83-12.53,19.96
	c-35.43,17.61-70.83,35.25-106.22,52.93c-5.09,2.55-10.25,3.03-15.68,1.46C139.04,268.94,91,255.04,42.98,241.11
	c-10.28-2.98-15.45-9.89-15.46-20.66C27.48,195.35,27.5,170.25,27.5,145.14z M209.29,172.94c0.96,0.25,1.57,0.38,2.17,0.56
	c21.04,6.27,42.08,12.56,63.12,18.83c5.54,1.65,11.09,3.32,16.64,4.93c4.1,1.19,6.38-0.56,6.46-4.86c0-0.16,0-0.32,0-0.48
	c0.02-38.41,0.04-76.82,0.06-115.23c0-4.81-2.52-6.38-7.2-4.41c-28.18,11.84-56.34,23.72-84.53,35.52c-2.69,1.13-3.79,2.78-3.78,5.7
	c0.09,13.88,0.04,27.76,0.04,41.64c0,30.75,0,61.49,0,92.24c0,4.56,2.91,6.36,7.01,4.39c19.81-9.5,39.62-19,59.44-28.47
	c2.01-0.96,3.86-2.05,3.62-4.54c-0.25-2.53-2.2-3.5-4.45-4.13c-4.65-1.28-9.27-2.67-13.89-4.02c-14.19-4.16-28.38-8.34-42.57-12.49
	c-1.08-0.32-2.18-0.37-2.17-2.01C209.32,188.5,209.29,180.92,209.29,172.94z M136.88,97.92c-1.15-0.22-1.93-0.35-2.7-0.53
	c-25.6-5.98-51.21-11.97-76.81-17.95c-5.06-1.18-6.97,0.28-6.96,5.51c0.05,37.53,0.13,75.06,0.21,112.6
	c0.01,4.43,2.67,6.13,6.7,4.24c27.82-13.09,55.62-26.22,83.44-39.32c2.15-1.01,3.09-2.54,3.09-4.94
	c-0.04-37.69-0.02-75.39-0.04-113.08c0-4.35-2.6-6.17-6.67-4.71c-14.69,5.25-29.36,10.56-44.06,15.79
	c-2.16,0.77-3.56,2.03-3.41,4.35c0.14,2.29,1.59,3.46,3.85,3.98c13.8,3.15,27.58,6.38,41.35,9.65c0.75,0.18,1.91,0.98,1.92,1.5
	C136.92,82.51,136.88,90,136.88,97.92z M171.43,185.59c-3.8-1.19-7.29-2.12-10.67-3.37c-2.85-1.07-5.33-0.79-8.08,0.52
	c-19.54,9.31-39.14,18.49-58.72,27.71c-5.61,2.64-11.22,5.27-16.83,7.9c-1.81,0.85-3.14,2.15-3,4.26c0.16,2.25,1.53,3.65,3.75,4.18
	c0.31,0.07,0.62,0.17,0.93,0.26c22.16,6.41,44.32,12.82,66.48,19.21c8.8,2.54,17.61,5.06,26.43,7.58c4.68,1.34,6.86-0.33,6.88-5.25
	c0-0.16,0-0.32,0-0.48c0-44.79,0-89.57,0-134.36c0-0.81,0.21-1.72-0.1-2.4c-0.6-1.31-1.23-2.93-2.34-3.59
	c-1.29-0.76-1.6-1.48-1.59-2.79c0.05-5.41,0.02-10.81,0.02-16.22c0-1.83,0-3.66,0-5.76c4.25,1.01,8.17,1.87,12.05,2.87
	c4.19,1.08,8.25,1,12.3-0.68c18.26-7.61,36.53-15.2,54.82-22.76c2.2-0.91,3.88-2.16,3.65-4.75c-0.24-2.63-2.23-3.48-4.5-3.97
	c-26.25-5.67-52.49-11.37-78.74-17.05c-4.77-1.03-6.75,0.6-6.75,5.56c0,18.4,0,36.8,0,55.2c0,19.29,0.02,38.57-0.02,57.86
	c0,2.29,0.47,4.27,2.73,5.16c1.38,0.54,1.5,1.39,1.5,2.61c-0.04,6.78-0.01,13.56-0.02,20.34
	C171.6,183.98,171.51,184.6,171.43,185.59z"/>
</svg>
