<svg xmlns="http://www.w3.org/2000/svg" viewBox="0 0 396.8 381.1"><defs><style>.cls-1,.cls-2{fill:#fff;}.cls-1{stroke:#fff;stroke-miterlimit:10;stroke-width:3px;}</style></defs><title>esqueci_senha</title><g id="Camada_2" data-name="Camada 2"><g id="Camada_1-2" data-name="Camada 1"><path class="cls-1" d="M379.39,182a42.73,42.73,0,1,0,3.28,40A124,124,0,1,1,260.8,121.11a122.76,122.76,0,0,1,54.8,12.73,5.26,5.26,0,1,0,4.65-9.43A133.17,133.17,0,0,0,260.8,110.6c-74.16,0-134.5,60.34-134.5,134.5s60.34,134.5,134.5,134.5,134.5-60.34,134.5-134.5a135,135,0,0,0-12.46-56.57A44.31,44.31,0,0,0,379.39,182Zm-3.72,23.08a32.26,32.26,0,1,1-4-15.51q.76,1.51,1.47,3A32,32,0,0,1,375.67,205.09Z"/><path class="cls-1" d="M238.3,162.34A42.75,42.75,0,1,0,281,205.09,42.8,42.8,0,0,0,238.3,162.34Zm0,75a32.23,32.23,0,1,1,32.23-32.23A32.27,32.27,0,0,1,238.3,237.32Z"/><circle class="cls-1" cx="228.89" cy="185.49" r="5.26"/><circle class="cls-1" cx="335.57" cy="184.76" r="5.26"/><path class="cls-1" d="M269,325.85a5.26,5.26,0,0,0,7.21-1.81c5.36-8.94,14.81-14.49,24.67-14.49a27.89,27.89,0,0,1,8.72,1.39,5.26,5.26,0,1,0,3.28-10,38.35,38.35,0,0,0-12-1.91c-13.53,0-26.44,7.51-33.69,19.6A5.26,5.26,0,0,0,269,325.85Z"/><circle class="cls-1" cx="334.17" cy="138.65" r="5.26"/><path class="cls-2" d="M30,49.14H7A7,7,0,0,0,7,63.2H30a7,7,0,0,0,0-14.06Z"/><path class="cls-2" d="M140.87,132.86H106a7,7,0,1,0,0,14.05h10.62l-.4,4.36c0,.15,0,.29,0,.44a7,7,0,0,0,7,7h.35a7,7,0,0,0,7-7c0-.19,0-.37,0-.56l-.26-4.25h10.5a7,7,0,0,0,0-14.05Z"/><path class="cls-2" d="M47.66,91.42a7,7,0,0,0-7-7h0a7,7,0,0,0-5,2.06L21.78,100.34a7,7,0,0,0,9.93,9.94L45.6,96.39A7,7,0,0,0,47.66,91.42Z"/><path class="cls-2" d="M31.72,2.06A7,7,0,0,0,21.78,12L35.66,25.88a7,7,0,1,0,9.94-9.94Z"/><path class="cls-2" d="M173.58,59.23a50.12,50.12,0,1,0-100.25,0c0,18,6.56,25.33,11.84,31.22,4.05,4.52,6.72,7.5,6.72,15.79a7,7,0,0,0,7,7H148a7,7,0,0,0,7-7c0-8.29,2.67-11.27,6.7-15.78C167,84.56,173.58,77.23,173.58,59.23Zm-22.3,21.84v0c-3.36,3.74-7.16,8-9.08,15.16l-.79,3H105.52l-.79-3c-1.92-7.16-5.72-11.41-9.07-15.15-4.63-5.17-8.27-9.23-8.27-21.87a36.06,36.06,0,1,1,72.13,0C159.52,71.84,155.88,75.91,151.28,81.06Z"/></g></g></svg>