<svg xmlns="http://www.w3.org/2000/svg" viewBox="0 0 377.63 373.29"><defs><style>.cls-1{fill:#fff;}</style></defs><title>foto</title><g id="Camada_2" data-name="Camada 2"><g id="Camada_1-2" data-name="Camada 1"><path class="cls-1" d="M244.1,347c-.39,1.27-4.59,14.22-8.56,24.8q7.39-1.88,14.53-4.34c2.66-13.45,11-41.59,12.71-52.59h-8.67C250.77,325.57,247.38,336.27,244.1,347Z"/><path class="cls-1" d="M118.63,124.71c-1.11,1.64-3.11,3.3-3.06,4.91,0,1.35,2.39,3.57,3.83,3.66,1.26.08,3.65-2.19,3.76-3.56.13-1.57-1.72-3.3-2.7-5Z"/><path class="cls-1" d="M188.82,0C84.54,0,0,84.54,0,188.82c0,90.42,63.56,166,148.43,184.47,4.91-24.58,15.07-68.29,18.48-87.48-43.84-14.78-77.4-40.55-92.33-87,5,.66,9.65,1.2,14.27,1.89,8.28,1.24,16.54,2.6,24.82,3.84,6.78,1,12.22-1.08,15.9-7.56,2,2.61,3.71,5,5.49,7.34C147.8,221.21,165,231,185.57,234.22c16,2.51,32.2,3.67,48.34,5.1,20.44,1.8,40.45,5,57.41,17.71,12.79,9.6,18.89,22.81,19.73,38.69.69,13-3.34,25.25-5.37,37.82-.22,1.39-.47,2.78-.73,4.16a188.49,188.49,0,0,0,72.68-148.88C377.63,84.54,293.1,0,188.82,0ZM122.16,88.06l8.15,3.42c-2.35,5.62-4.65,10.58-6.47,15.71-1.11,3.12-2.56,4.44-5.88,3.3a29.55,29.55,0,0,0-4.88-.75ZM78.62,187.17a60.84,60.84,0,0,1-12.7.86c-10-.27-14.16-5.23-13.62-19.79C53,164,54.12,155.82,56,147.84c2.28-9.55,7-12.14,17.45-12.71,17.8-1,27.17,14.66,26.8,27.44A26.06,26.06,0,0,1,78.62,187.17Zm52.85-59.63q-4.5,30.32-8.9,60.65c-.86,6-2.15,7.25-8,6.47-7.07-.95-14.1-2.12-21.93-3.31,13.33-9.56,19.32-22,15.61-37.59-3.61-15.21-13-25.16-29.51-27.53.38-2.89.55-5.36,1.07-7.75.61-2.83,2.54-4.19,5.47-3.75,13.84,2.08,27.67,4.16,41.49,6.32C131.1,121.73,132.08,123.36,131.46,127.54ZM151,160.18c-4.26-3-8.35-5.75-12.23-8.77a4.71,4.71,0,0,1-1.26-3.47,66.54,66.54,0,0,1,1.09-7.46l17.44,12.45Zm-9.79-34.85-2.93-8.3,19.43-7.63,3.29,8.25ZM288,177.5c-.7,27.63-23.93,50.53-52.21,50.38a51.87,51.87,0,0,1-52-52.25c.11-28.46,23.72-52.1,52.23-51.83C267.34,124.11,288.69,150.08,288,177.5Z"/></g></g></svg>