<svg xmlns="http://www.w3.org/2000/svg" viewBox="0 0 409.38 405.89"><defs><style>.cls-1{fill:#fff;}</style></defs><title>icon_bem_vindo</title><g id="Camada_2" data-name="Camada 2"><g id="Camada_1-2" data-name="Camada 1"><path class="cls-1" d="M397.26,162.29c-5-2.29-8.68-5.46-10.62-10.68-1-2.73-2-5.62-3.72-7.9-1.36-1.8-3.85-3.89-5.77-3.83-2.12.07-4.72,2-6.12,3.93-1.86,2.5-2.86,5.67-4,8.63a16.06,16.06,0,0,1-9.27,9.33c-3.08,1.24-6.34,2.33-9,4.22-1.82,1.3-3.79,3.85-3.78,5.84s2,4.53,3.79,5.85c2.53,1.83,5.69,2.83,8.64,4a16.58,16.58,0,0,1,9.62,9.53,82.42,82.42,0,0,0,4.33,9.41c2.61,4.68,8.63,4.63,11.37,0a15.28,15.28,0,0,0,1.69-3.61c2.63-9.4,8.9-15,18-18.07,2.58-.87,4.68-3.17,7-4.81v-4.8C405.36,167,401.5,164.23,397.26,162.29Zm-20.48,16.95-7.25-7.67,7.29-6.94,7.89,7.21Z"/><path class="cls-1" d="M328.09,195c.29-3.8-2.15-6.54-6.52-7.1-3-.39-6.09-.74-9.14-.85-19.18-.71-36.85,4.68-53.53,13.66C252.82,204,247,207.78,241.74,211l-48.39-48c5.41-12.73,11.65-25.15,16-38.19,7.43-22.13,7.64-44.46-1.8-66.34-2-4.6-5.21-6.39-9-4.93-3.65,1.39-4.76,5.09-3.06,9.8,1.49,4.12,3.3,8.19,4.23,12.44,6.36,29-3.94,54.14-18,78.79l-3.61-2.38c-6.42-4.29-12.71-8.79-19.28-12.84-8.64-5.32-17.64-10-27.74-11.91s-18.79.26-23.65,12.08C81.37,203,54.79,266.31,28.37,329.69q-13.75,33-27.51,66c-2.21,5.31,0,10,4.87,10.23a13,13,0,0,0,5.34-1.31q129-53.69,258-107.44c6.2-2.58,9.63-7.37,9.75-13.82a47.57,47.57,0,0,0-2-14.49c-3.94-13-11.4-24.28-19-35.4-2.67-3.9-5.53-7.68-8.36-11.6A129.47,129.47,0,0,1,283,204.44a82.85,82.85,0,0,1,37.42-3.76C324.93,201.27,327.8,198.79,328.09,195ZM18.72,387.31c.5-1.5.7-2.22,1-2.91,4.26-10.3,8.53-20.59,12.85-31l29.22,16Zm153-63.7c-11.3,4.71-22.58,9.47-33.95,14a8,8,0,0,1-5.58.08c-13.66-5.92-27.22-12.07-40.81-18.17-1.45-.65-2.82-1.52-4.29-2.13-3.53-1.46-7-.35-8.63,2.64a6.31,6.31,0,0,0,2.85,8.85c6.69,3.57,13.5,6.92,20.33,10.2,4.89,2.35,9.91,4.44,15.84,7.08-13.29,5.56-25.53,10.71-37.81,15.75a4,4,0,0,1-3-.2q-19.07-10-38.05-20.23c-.21-.11-.32-.41-.69-.89l12.54-30.12c1.88,1.18,3.52,2.18,5.14,3.22,5.1,3.26,8.91,3.17,11.26-.3s1-7.2-4.32-10.69l-6.94-4.57,13.08-31.29c32.82,23.6,67.58,42.62,106.56,55C173.68,322.6,172.71,323.18,171.68,323.61Zm61.77-25.76c-11.79,4.93-23.55,9.93-35.41,14.66a11.07,11.07,0,0,1-6.46.31c-42.35-11-80.21-31.22-115.42-56.76-.87-.63-1.75-2.51-1.42-3.34,3.9-9.89,8-19.69,12.25-29.93,1.42,1,2.6,1.73,3.7,2.58A428.65,428.65,0,0,0,157,267.55a18.3,18.3,0,0,0,4,1.73,5.87,5.87,0,0,0,7.06-3.2,6,6,0,0,0-1.63-7.9,21,21,0,0,0-3.74-2.29,435.84,435.84,0,0,1-67.47-43.37c-2.25-1.74-2.87-3-1.66-5.85,6.21-14.41,12.17-28.93,18.26-43.52C136,209.09,171.5,244.28,211.29,276L190,268.33a27.29,27.29,0,0,0-3.77-1.28c-3.59-.73-6.67.9-7.68,4.1-1.07,3.42.23,6,3.23,7.75a17.81,17.81,0,0,0,3.66,1.57q24,7.38,48,14.7c.89.27,1.79.52,3.28,1C235.4,296.85,234.46,297.43,233.46,297.85Zm31.22-24.7A29.9,29.9,0,0,1,266,279c.66,5.33-1,6.82-6.3,6-9.56-1.49-17.89-6.05-26-10.93-22.75-13.73-42.47-31.22-60.92-50.19-14.05-14.45-27.07-29.8-38-46.81-6-9.31-11.6-18.83-13.76-29.91-1.29-6.65.57-8.94,7.08-6.94a116.55,116.55,0,0,1,22,9.19c8.45,4.68,16.26,10.5,24.62,16-4,5.12-7.51,9.62-11,14.14a18.15,18.15,0,0,0-2.74,3.91,6,6,0,0,0,2.24,7.73,5.87,5.87,0,0,0,8.3-.94c3.39-3.74,6.44-7.8,9.62-11.74,1.16-1.44,2.26-2.91,4.1-5.29L231.38,219c-3.19,2.93-5.7,5.09-8,7.41-3.39,3.35-3.81,7-1.29,9.88s6.41,2.85,10.21-.43c2.19-1.9,4.34-3.85,6.78-6C249.19,243.6,259.24,257,264.67,273.15Z"/><path class="cls-1" d="M266.55,353c-10.19-2.95-16.66-9.46-19.57-19.61a3.42,3.42,0,0,0-.15-.37c-1.25-3-3-5.39-6.66-5.42s-5.76,2.17-6.67,5.3c-3.09,10.58-9.84,17.36-20.42,20.36a4.88,4.88,0,0,0-.74.29c-2.73,1.29-5.1,3.36-4.36,6.39.55,2.26,2.33,5.12,4.32,6,16.24,7.05,15.2,6.83,21.77,21.78.86,2,3.91,4.08,6,4.1s5.13-2,6-4c5.87-12.54,4-14.86,22.11-22,2.08-.82,3.41-3.56,4.38-4.63C272.26,355.88,269.76,353.88,266.55,353Zm-26.41,14.16-7.4-7.24,7.44-7.38,7.54,7.64Z"/><path class="cls-1" d="M319.19,38.08A22.17,22.17,0,0,0,326,41.31a19,19,0,0,1,12.56,12.41c.81,2.38,1.62,5,3.17,6.84s3.86,3.76,5.87,3.78,4.6-1.89,5.87-3.7c2-2.78,3.1-6.16,4.42-9.35a15.67,15.67,0,0,1,8.79-8.78c3.06-1.29,6.27-2.4,9-4.18,2-1.29,3.39-3.55,4.25-4.49-.14-5.51-2.71-7.4-5.91-8.36-9.95-3-16.58-9.17-19.38-19.28A11,11,0,0,0,354,4.74C352.81,2,350.88,0,347.71,0s-5.14,1.82-6.37,4.63-2.62,5.53-3.75,8.38a15.88,15.88,0,0,1-9.32,9.29c-3.08,1.24-6.36,2.32-9,4.23-1.8,1.3-3.59,3.88-3.66,6C315.57,34.34,317.5,36.71,319.19,38.08ZM348,24.7l7.14,7.5-7.6,7.65-7.32-7.62Z"/><path class="cls-1" d="M30.05,126.54c11.27,3.59,18.58,10.62,22.13,22,.59,1.89,3.91,4,6,4s5.41-2.12,6-4c3.53-11.39,10.82-18.44,22.12-22,2-.64,3.34-3.53,5.55-6-2.28-2.52-3.57-5.26-5.51-5.87C74.84,111.13,67.6,103.81,64,92.38c-.56-1.76-3.79-3.69-5.79-3.69S53,90.6,52.39,92.36c-3.65,11.4-10.82,18.76-22.3,22.38-1.84.58-3.79,4-3.85,6.09C26.18,122.76,28.26,126,30.05,126.54Zm28-13.66,7.83,7.71-8.16,7.68-7.29-7.74Z"/><path class="cls-1" d="M344.09,254.68c-15,.43-27,12.89-26.51,27.38.55,15,12.81,26.86,27.46,26.5,14.8-.36,27.09-13.08,26.51-27.45C370.94,266,358.77,254.25,344.09,254.68Zm.64,40.91a14.16,14.16,0,0,1-14.1-13.85,13.91,13.91,0,0,1,27.82-.31A14,14,0,0,1,344.73,295.58Z"/><path class="cls-1" d="M142.3,69.45c14.77-.09,27-12.49,26.82-27.1A27,27,0,0,0,142,15.65c-14.85.11-27,12.41-26.84,27.07A27.09,27.09,0,0,0,142.3,69.45Zm-.06-40.86A14,14,0,0,1,142,56.52a14,14,0,0,1,.23-27.92Z"/><path class="cls-1" d="M268.37,69.46a26.9,26.9,0,1,0-27.1-26.73A27,27,0,0,0,268.37,69.46ZM268,28.59a14.05,14.05,0,0,1,14.19,13.75,14,14,0,1,1-28,.4A14,14,0,0,1,268,28.59Z"/><path class="cls-1" d="M226.18,179.55a13,13,0,0,0,4.39-3.31c14.52-14.74,26.44-31.36,34.82-50.3,3.9-8.83,6.73-18.13,10-27.21-.83-4-2.9-6.71-6.25-7.2-3.7-.55-6.58,1.53-7.62,6-4.85,20.76-15,38.89-27.95,55.51-4.34,5.55-9.3,10.61-13.93,15.94-2.14,2.46-2.61,5.23-.8,8.07A5.8,5.8,0,0,0,226.18,179.55Z"/><path class="cls-1" d="M355.32,106.47c-5.32,1.64-10.76,3-15.93,5C317.46,120,298.94,133.74,282.14,150c-4.59,4.43-5.44,8.15-2.56,11.3s6.81,2.63,11.65-2c12.84-12.32,26.69-23.36,42.77-31.12,7.24-3.5,15.12-5.7,22.76-8.34,3.84-1.33,5.87-3.82,5.42-7.27C361.76,109.24,359,107,355.32,106.47Z"/></g></g></svg>