<svg id="Camada_1" data-name="Camada 1" xmlns="http://www.w3.org/2000/svg" viewBox="0 0 382.22 357.33"><defs><style>.cls-1{fill:#772067;}</style></defs><title>logo_cubo_live_university</title><path class="cls-1" d="M8.17,177V83.85c0-5.81.9-11.43,4.27-16.32a26.14,26.14,0,0,1,13.08-9.7Q91,34,156.4,10.1a37,37,0,0,1,21.5-1.23Q262,27.58,346.22,46.06c2.83.62,5.67,1.22,8.48,1.9C366.45,50.8,374,60.33,374,72.3q0,91.77.06,183.54c0,11.83-5.26,19.71-15.6,24.84q-66.13,32.86-132.19,65.88a25.8,25.8,0,0,1-19.52,1.81q-89.66-26-179.32-52-19.2-5.57-19.25-25.7Q8.12,223.84,8.17,177Zm226.24,34.59c1.19.3,2,.47,2.7.69l78.55,23.44c6.9,2.06,13.79,4.12,20.71,6.13,5.1,1.48,7.94-.7,8-6.05v-.6q0-71.71.07-143.41c0-6-3.13-7.94-9-5.49q-52.61,22.1-105.21,44.2c-3.35,1.4-4.72,3.46-4.7,7.08.12,17.28,0,34.55,0,51.83q0,57.39,0,114.79c0,5.68,3.62,7.91,8.73,5.46q37-17.73,74-35.43c2.5-1.19,4.8-2.55,4.5-5.65s-2.73-4.37-5.54-5.14c-5.78-1.59-11.53-3.32-17.29-5q-26.49-7.77-53-15.54c-1.35-.4-2.72-.47-2.7-2.5C234.45,230.94,234.41,221.51,234.41,211.57ZM144.3,118.21c-1.44-.28-2.41-.43-3.36-.66L45.35,95.21c-6.3-1.47-8.67.35-8.66,6.86q.09,70.07.26,140.13c0,5.51,3.33,7.63,8.34,5.27Q97.22,223,149.13,198.54a6.08,6.08,0,0,0,3.84-6.15q-.06-70.36,0-140.73c0-5.41-3.23-7.68-8.3-5.87-18.29,6.54-36.54,13.15-54.84,19.66-2.68,1-4.43,2.52-4.24,5.42s2,4.3,4.79,4.95q25.75,5.9,51.46,12c.93.22,2.38,1.22,2.39,1.87C144.35,99,144.3,108.35,144.3,118.21Zm43,109.1c-4.73-1.48-9.08-2.63-13.27-4.2a12,12,0,0,0-10.06.65c-24.31,11.58-48.71,23-73.08,34.48l-20.94,9.83c-2.25,1.05-3.91,2.68-3.73,5.3.2,2.8,1.91,4.54,4.67,5.19l1.15.32,82.73,23.92q16.44,4.74,32.89,9.43c5.83,1.67,8.54-.41,8.56-6.53V137.88c0-1,.26-2.14-.13-3-.74-1.62-1.52-3.65-2.9-4.46a3.38,3.38,0,0,1-2-3.48c.06-6.73,0-13.45,0-20.18V99.61c5.29,1.26,10.16,2.33,15,3.58a23.3,23.3,0,0,0,15.3-.85q34.1-14.2,68.23-28.32c2.73-1.13,4.83-2.69,4.53-5.91s-2.77-4.33-5.6-4.94q-49-10.59-98-21.23c-5.93-1.28-8.39.76-8.39,6.92q0,34.35,0,68.69,0,36,0,72c0,2.84.58,5.32,3.4,6.42,1.71.67,1.87,1.73,1.86,3.24,0,8.44,0,16.87,0,25.31C187.5,225.31,187.39,226.08,187.29,227.31Z"/></svg>