<svg xmlns="http://www.w3.org/2000/svg" viewBox="0 0 338.89 338.89"><defs><style>.cls-1{fill:#781866;}.cls-2{fill:#f18e00;}.cls-3{fill:#fbfbfb;}.cls-4{fill:#fdd205;}.cls-5{fill:#f1d053;}.cls-6{fill:#9a9da8;}.cls-7{fill:#fe9500;}.cls-8{fill:#fed100;}.cls-9{fill:#f39207;}.cls-10{fill:#5c5866;}.cls-11{fill:#4bb0b8;}</style></defs><title>icon_mba</title><g id="Camada_2" data-name="Camada 2"><g id="Camada_1-2" data-name="Camada 1"><circle class="cls-1" cx="169.44" cy="169.44" r="169.44"/><path class="cls-2" d="M75.8,220.46l.12-.11a2.25,2.25,0,0,0-.28-1.71,9.28,9.28,0,0,0-3.25-3.74,4.41,4.41,0,0,0-.65-.36c-2.65-1.17-5.28-1.47-7.84.22l-.52.59c-5.59,5.47-4.41,12.57,2.46,14.8h0a2.53,2.53,0,0,0,.47.14c1,.52,2.11-.17,3.06.44l.51,0a9.21,9.21,0,0,1,2.06-.81C75.16,228.46,77.82,223,75.8,220.46Z"/><path class="cls-3" d="M48.89,300.53c-1.29,2.6-3.65,2.1-5.81,1.88-1.17-.12-1.82-2.87-.86-4.23.78-1.1,1.33-2.49,2.68-3.13C45.64,297.31,47.58,298.69,48.89,300.53Z"/><path class="cls-4" d="M79.86,269h0a43.51,43.51,0,0,0-.58-7.43c.17-.23.33-.47.48-.71a3.06,3.06,0,0,0,.15-.76c-.6-7.29-1.24-14.59-2-21.87a8.27,8.27,0,0,0-4-6.5,2,2,0,0,0-.77-.2,2.17,2.17,0,0,0-.36.09c-.39-1.46-1.78-1.21-2.84-1.51a4.9,4.9,0,0,0-.83,0,4.21,4.21,0,0,0-2.8.63c-2.78.45-4.36,2.49-5.94,4.53a12.46,12.46,0,0,0-1.47,10.14c-.12.18-.24.36-.35.54-.09,1,.38,1.95-.1,2.89-.5,5.94-1,11.88-1.48,17.83-.6,7.92-.35,8.17,7.41,8.57a1.19,1.19,0,0,0,1,.15l.36-.31,8.57.16.5-.17c4.06.11,5.32-1.27,5.4-5.88A1.62,1.62,0,0,1,79.86,269Z"/><path class="cls-5" d="M66.3,230.3c1,.06,2.15-.44,3.06.44l-3.09,0A.81.81,0,0,0,66.3,230.3Z"/><path class="cls-6" d="M247.54,182.91c-.13-4.31.36-8.62-.28-12.92-1.07-1.71-2.39-.67-3.49-.2-11,4.7-21.94,9.35-32.88,14.1a8.46,8.46,0,0,0-3,1.67c-.18.22-.37.42-.56.62a15.37,15.37,0,0,0-1.57.53c-4.13,1.7-8.24,3.43-12.36,5.16l-1.5,1a14.39,14.39,0,0,0-1.4.47c-7.33,3.28-14.72,6.33-23,5.53.53.7,1.31.41,2,.49h0q0,8.22,0,16.45a12.69,12.69,0,0,0,0,9.47v.53a8.47,8.47,0,0,0-.16,2.07c.15,3.73.06,7.47,0,11.21,0,.84.35,1.92-.91,2.29-1,.15-1.93,0-2.89.11-1.56.12-3.25-.45-4.63.79a5.25,5.25,0,0,0,2.66.35c7.77.29,15.5-.43,23.24-1,1.19-.26,2.54.73,3.62-.45a1.43,1.43,0,0,1,0-.46l.17,0c3.36,1.06,6.34-.21,9.32-1.51l1-.55c13-3,24.88-8.13,34.78-17.26a33.28,33.28,0,0,0,10.38-17.2c.9-3.93.57-7.93.78-11.9C248.17,189.29,247.35,186.06,247.54,182.91Z"/><path class="cls-7" d="M185.59,132.48a29.2,29.2,0,0,1,0,9.33c-.44,2.69-2.57,4-4.8,5a27.71,27.71,0,0,1-22.18.08c-.57-.72-.07-1.29.37-1.74a34.48,34.48,0,0,1,5.21-5,2.7,2.7,0,0,1,.75-.17,29.22,29.22,0,0,0,10.55-.3C179.91,138.8,183.72,137,185.59,132.48Z"/><path class="cls-2" d="M157.58,138.52l6.45,2c-1.51,2.38-4.28,3.66-5.47,6.32l-.39.09c-1.77-1.25-3.7-2.34-4.67-4.42a1.2,1.2,0,0,1-.16-1.07C154.57,140.2,155.16,138,157.58,138.52Z"/><path class="cls-8" d="M179.19,126.49a2.6,2.6,0,0,0-.2-.42l-8-1.47c-1.53.22-3.11-.21-4.61.41a18.54,18.54,0,0,0-9.63,2.85c-1.71,1.05-3.26,2.33-3.33,4.62-.25,3.41,1.12,5.34,3.84,5.54,0,.05,0,.1,0,.16a1.41,1.41,0,0,0,.32.65c2,1.2,4,2.35,6.44,1.72l.52,0h0a25.19,25.19,0,0,0,17-2.32c2.2-1.16,4.18-2.75,4-5.7C185,128.82,182.22,127.53,179.19,126.49Z"/><path class="cls-9" d="M153.45,132.47c0,2.89,1.66,4.51,4.11,5.57q0,.24,0,.48c-1.9.27-2.46,2.33-4,3-.86-2.29,0-4.7-.47-7C153.27,133.85,152.88,133.07,153.45,132.47Z"/><path class="cls-10" d="M153.06,134.52c-5,.11-9.89,1.56-14.85,2.27-5.69.82-11.29,2.17-17,2.75-.78,1-2.24,0-3,1-3.4,0-6.64,1-10,1.53h0l0-.06c-11.77,2-23.55,4-35.31,6.09-6.3,1.1-8.87,3.68-9.09,8.92q.06,14.68.11,29.37,0,4.73,0,9.46,0,9.65,0,19.29a9,9,0,0,1,7.91,0,4.33,4.33,0,0,0,.24-2.43c0-7.78,0-15.55,0-23.34,0-.57-.1-.89-.29-1q0-4.67,0-9.33c.22-.32.43-.65.64-1,.21-5.74,0-11.48.1-17.22.06-3.62.07-3.6,3.6-4.23,6.76-1.2,13.54-2.32,20.3-3.54,1.05-.43,2.29-.19,3.26-.94.11-.18.24-.34.36-.51,3.45.94,6.6-.07,9.67-1.6l0,0a1.59,1.59,0,0,0,.17.31,1.87,1.87,0,0,0,.73.2c12.94-1.94,25.78-4.42,38.68-6.62a2.64,2.64,0,0,0,1.76-.82c.69-.79,1.61-.38,2.44-.49l0-1C153.78,139.17,154.39,136.78,153.06,134.52Z"/><path class="cls-10" d="M169.52,216.27a3.15,3.15,0,0,0,.62-1.4c0-5.09.44-10.2-.26-15.28-.52-.84-1.45-.88-2.25-1.16a44,44,0,0,1-12.54-3,2.81,2.81,0,0,0-1.49-.19l-.14.15-6.37-2.48q0-.24,0-.48a4.91,4.91,0,0,1-1.21-.19q-11.35-4.89-22.68-9.81c-.29-.38-.56-.81-1.15-.52h0l-6.32-2.46h0q0-.24,0-.48a1.7,1.7,0,0,0-.74-.64c-6.79-3.06-13.66-5.91-20.5-8.85-.66-.28-1.4-.59-2.1,0q0,16.38,0,32.76l.36.16a17.2,17.2,0,0,0,2.16,7.43h0l-.06.51c.53.92,1.06,1.84,1.6,2.76,3.77,6.41,9.33,11,15.33,15.18h.5a17.71,17.71,0,0,0,5.4,3h0a.57.57,0,0,0,.07.41,112.07,112.07,0,0,0,26.39,8.63,1.22,1.22,0,0,0,1.06.15l.1-.06a20.15,20.15,0,0,0,5.76.85l1.58.53,8.36.49,8.57-.07c.58-5.33.08-10.68.25-16a4.65,4.65,0,0,0-.48-.68l.23-.23Q169.52,220.76,169.52,216.27Z"/><path class="cls-11" d="M296.72,134c-.84-5.76-4.23-9.56-9.33-12-3.36-1.59-6.79-3-10.19-4.53l-.5.07a27.06,27.06,0,0,0-5.88-2.53h0a.63.63,0,0,0-.07-.42c-8.43-3.23-16.66-6.93-24.9-10.59l-.5.07a27,27,0,0,0-5.88-2.53h0a.61.61,0,0,0-.07-.42c-8.42-3.23-16.65-6.92-24.88-10.59a.85.85,0,0,0-.69-.07l0,0A27.17,27.17,0,0,0,208,88.14h0a4.45,4.45,0,0,0-.18-.41c-.27-.39-.75-.28-1.11-.46L183,77.17a.8.8,0,0,0-.69-.09l-.11.06a19.53,19.53,0,0,0-7.1-1.84s0-.09,0-.14c-.52-.34-1.18,0-1.69-.39-8-.59-15.34,1.39-22.55,4.66-8,3.61-16.1,6.86-24.16,10.26a8.44,8.44,0,0,0-5.12,2.14,1.61,1.61,0,0,1,0,.29c-.71-.53-1.4-.13-2,.14-3.43,1.43-6.88,2.81-10.24,4.41a2.36,2.36,0,0,0-.55.5c-.42.85-1.52.71-2.06,1.39h0c-7.47,3.15-15,6.29-22.42,9.47q-15.89,6.77-31.76,13.59c-10.73,4.64-14,17-6.85,25.7,1.95,2.39,4.61,3.71,7.21,5.15a.68.68,0,0,0,.66.14h0a6.93,6.93,0,0,0,6.13,2.46l0,0a.64.64,0,0,0,.15.43,10,10,0,0,1,3.47,1.5.51.51,0,0,0,.72-.11,3.41,3.41,0,0,0,.48-1.14c1-4,3.56-6.16,7.62-6.73,3.52-.49,7-1.19,10.51-1.83,8.37-1.53,16.82-2.66,25.13-4.57a6.68,6.68,0,0,0,.7-.33h0c3.29.22,6.4-1,9.62-1.27.89-.56,2.38.11,2.93-1.16a2.43,2.43,0,0,0,.77.26c10.45-1.29,20.76-3.38,31.1-5.28.71-.54.75-1.4,1-2.15.58-2.68,2.5-4.17,4.82-5.19a22.49,22.49,0,0,1,7.83-2c1.32-.46,2.74-.09,4.07-.49a2.7,2.7,0,0,0,.55-.27,10.6,10.6,0,0,0,7.45,1.37s0,0,0,0a1.26,1.26,0,0,0,.3.63c2.74,1.37,5.59,2.64,6.1,6.2a32.36,32.36,0,0,1,.15,5.94,7.32,7.32,0,0,1-5.13,7.41,28.59,28.59,0,0,1-21.11.2,2.9,2.9,0,0,0-.78,0,2.5,2.5,0,0,0-.29.09c-1.23-1.78-3.19-2.84-4.57-4.48a2,2,0,0,0-2.37.48,1.38,1.38,0,0,1,.11.4h-.06a12.3,12.3,0,0,0-1.74.06q-19.82,3.46-39.64,7h0l0-.06c-3.34.39-6.56,1.53-10,1.53-.78,1-2.24,0-3,1h0a24.52,24.52,0,0,0-2.72.19c-6.08,1.08-12.13,2.26-18.22,3.27-5.05.84-3.89.62-3.89,4.66l.44.29a39.18,39.18,0,0,0,11.94,5.05l.51-.07a33.84,33.84,0,0,0,6.31,2.65h0a3.46,3.46,0,0,0,.18.41,1.1,1.1,0,0,1,1,.51c3.66,1.06,7,2.92,10.53,4.29,4.28,1.66,8.31,3.92,12.75,5.18l-.06.06a1,1,0,0,0,.18.68c2,1.08,3.92,2.57,6.44,2.28l.78.35a2.12,2.12,0,0,0,.14.39,4.13,4.13,0,0,0,1.83,1.21c3.73,1.57,7.41,3.24,11.17,4.75,3.59,1.44,7,3.36,10.78,4.27l.13,0a.69.69,0,0,0,.11.19c2,1.11,3.93,2.59,6.46,2.31l1,.45h0a32.74,32.74,0,0,0,13,3,20,20,0,0,0,10,0c5-1.17,9.54-3.33,14.16-5.4a12.87,12.87,0,0,0,1.92-1.24l.15-.15a1.63,1.63,0,0,0,1.29-.11c4.47-2,9.16-3.44,13.32-6.08.57-.94,1.84-.7,2.49-1.49h0c6.16-2.58,12.3-5.19,18.47-7.74,5.79-2.38,11.41-5.19,17.35-7.22a5.53,5.53,0,0,0,2.84-.73c4.23-1.85,8.52-3.58,12.72-5.5,2.67-1.22,5.62-1.91,7.9-3.93l3.55-1.8h0L287.16,152l.49-.54a7.33,7.33,0,0,0,2.58-1.36c3.73-2.39,5.44-6.15,6.89-10.1v-6A.33.33,0,0,0,296.72,134Z"/></g></g></svg>