<svg id="Camada_1" data-name="Camada 1" xmlns="http://www.w3.org/2000/svg" viewBox="0 0 405.33 361.33"><defs><style>.cls-1{fill:#fff;}</style></defs><title>icone_coracao</title><path class="cls-1" d="M201.59,69.23C208,60.32,214,50.67,221.2,42.05c14.08-16.78,31.68-28.59,53.52-32.59,57.69-10.58,102.56,25.15,116.55,74,10.78,37.67,4.13,72.75-16.79,105.5-16.22,25.39-37.08,46.71-59.42,66.51-35,31-70.65,61.42-106,92.05-4.51,3.91-9.4,4.26-13.54.61-43.13-38-88.53-73.37-129.22-114.1C48,215.73,31,196.15,20.07,172.37.4,129.71,2.42,88,29.23,49.13c35.3-51.18,115-60,158.76-.52C193,55.41,197.32,62.72,201.59,69.23Zm.25,258.83c5.93-5.11,11.64-10,17.27-14.91,32.65-28.69,65.61-57,97.81-86.24,17.92-16.24,33.84-34.51,45.61-55.91,18.3-33.27,20.08-67.17,2.25-101.1-17.51-33.32-55-50-89.8-40.65-20.1,5.42-35.42,17.81-46.38,35-6.82,10.7-11.71,22.64-17.25,34.14-2.07,4.29-4.78,7.17-9.83,6.94-4.76-.22-7.42-3-9-7.28C187,82.78,179.58,68.52,169.12,56,139.66,20.67,90.93,16.31,57,47.19,29.79,72,22.39,104,29.07,139.3c4.8,25.33,18.68,46.35,36,64.6,19,20,39,39.14,59.56,57.62C149.73,284.14,175.79,305.69,201.84,328.06Z"/></svg>