<?xml version="1.0" encoding="utf-8"?>
<!-- Generator: Adobe Illustrator 23.1.0, SVG Export Plug-In . SVG Version: 6.00 Build 0)  -->
<svg version="1.1" id="Camada_1" xmlns="http://www.w3.org/2000/svg" xmlns:xlink="http://www.w3.org/1999/xlink" x="0px" y="0px"
	 viewBox="0 0 349 487" style="enable-background:new 0 0 349 487;" xml:space="preserve">
<style type="text/css">
	.st0{fill:#D8D6D8;}
	.st1{fill:#848484;}
	.st2{fill:#FFFFFF;}
	.st3{fill:#EFCBBD;}
	.st4{fill:#6A6A6A;}
</style>
<g>
	<g>
		<rect x="10.1" y="12.35" class="st0" width="280.39" height="234.6"/>
		<path class="st1" d="M26.17,234.84c0-33.42,0-65.99,0-99.7c38.52,0,76.68,0,115.87,0c0,33.19,0,66.06,0,99.7
			C103.67,234.84,65.84,234.84,26.17,234.84z M122.61,152.78c-26.43,0-51.18,0-76.43,0c0,21.96,0,42.81,0,64.54
			c25.94,0,51.1,0,76.43,0C122.61,195.34,122.61,174.42,122.61,152.78z"/>
		<path class="st1" d="M273.2,124.85c-38.41,0-76.3,0-115.6,0c0-33.02,0-65.86,0-99.78c38.08,0,76.33,0,115.6,0
			C273.2,58.39,273.2,91.26,273.2,124.85z M177.85,42.34c0,21.64,0,43.11,0,65.2c25.43,0,50.51,0,75.47,0c0-22.31,0-43.52,0-65.2
			C227.89,42.34,203.54,42.34,177.85,42.34z"/>
		<path class="st1" d="M141.93,124.81c-39.25,0-77.05,0-115.42,0c0-33.57,0-66.4,0-100c38.71,0,76.49,0,115.42,0
			C141.93,58.17,141.93,90.98,141.93,124.81z M121.98,107.74c0-22.38,0-43.87,0-64.87c-26.01,0-50.71,0-75.42,0
			c0,22.16,0,43.3,0,64.87C72.37,107.74,97.05,107.74,121.98,107.74z"/>
		<path class="st1" d="M195.91,200.49c0-15.9,0-30.54,0-46.41c-13.21,0-25.05,0-37.95,0c0-6.32,0-11.43,0-17.24
			c18.95,0,38,0,58.05,0c0.5,5.35,0.95,10.12,1.51,16.11c7.49,0.59,14.97,1.18,23.09,1.82c0,5.39,0,10.12,0,15.67
			c-7.44,0.41-14.55,0.81-22.67,1.26c0,4.01,0,7.7,0,12.71c18.5,0,36.52,0,55.36,0c0,5.98,0,10.65,0,16.08
			C247.95,200.49,223.12,200.49,195.91,200.49z"/>
		<path class="st1" d="M213.91,219.39c0,5.73,0,10.39,0,15.75c-18.7,0-36.64,0-55.87,0c0-5.04,0-9.97,0-15.75
			C176.38,219.39,194.29,219.39,213.91,219.39z"/>
		<path class="st1" d="M255.54,136.6c6.11,0,11.19,0,17.47,0c0,10.6,0,21.05,0,32.48c-5.28,0-10.7,0-17.47,0
			C255.54,158.88,255.54,148.48,255.54,136.6z"/>
		<path class="st1" d="M175.92,197.01c-6.28,0-11.3,0-17.78,0c0-9.56,0-18.96,0-28.99c5.75,0,11.29,0,17.78,0
			C175.92,177.33,175.92,186.45,175.92,197.01z"/>
		<path class="st1" d="M242.75,235.17c0-5.3,0-9.96,0-15.65c9.88,0,19.46,0,30.22,0c0,5.02,0,10.02,0,15.65
			C262.83,235.17,253.23,235.17,242.75,235.17z"/>
		<path class="st0" d="M122.61,152.78c0,21.64,0,42.56,0,64.54c-25.33,0-50.5,0-76.43,0c0-21.72,0-42.58,0-64.54
			C71.44,152.78,96.18,152.78,122.61,152.78z M99.67,197.79c0-9.5,0-17.35,0-25.65c-10.42,0-19.94,0-29.09,0c0,9.2,0,17.39,0,25.65
			C80.77,197.79,89.51,197.79,99.67,197.79z"/>
		<path class="st0" d="M177.85,42.34c25.69,0,50.03,0,75.47,0c0,21.68,0,42.89,0,65.2c-24.95,0-50.04,0-75.47,0
			C177.85,85.45,177.85,63.98,177.85,42.34z M229.81,61.91c-10.38,0-19.78,0-29.27,0c0,9.12,0,17.27,0,25.57
			c10.31,0,19.38,0,29.27,0C229.81,78.57,229.81,70.43,229.81,61.91z"/>
		<path class="st0" d="M121.98,107.74c-24.93,0-49.61,0-75.42,0c0-21.57,0-42.71,0-64.87c24.71,0,49.4,0,75.42,0
			C121.98,63.87,121.98,85.36,121.98,107.74z M69.82,87.43c10.78,0,19.81,0,29.74,0c0-8.92,0-17.05,0-25.54
			c-10.47,0-19.92,0-29.74,0C69.82,70.67,69.82,78.51,69.82,87.43z"/>
		<path class="st1" d="M99.67,197.79c-10.16,0-18.9,0-29.09,0c0-8.26,0-16.45,0-25.65c9.15,0,18.67,0,29.09,0
			C99.67,180.44,99.67,188.29,99.67,197.79z"/>
		<path class="st1" d="M229.81,61.91c0,8.52,0,16.66,0,25.57c-9.89,0-18.96,0-29.27,0c0-8.3,0-16.44,0-25.57
			C210.04,61.91,219.44,61.91,229.81,61.91z"/>
		<path class="st1" d="M69.82,87.43c0-8.92,0-16.76,0-25.54c9.82,0,19.27,0,29.74,0c0,8.49,0,16.63,0,25.54
			C89.62,87.43,80.6,87.43,69.82,87.43z"/>
	</g>
	<path class="st2" d="M228.71,293.68c-17.37-12.63-33.84-25.01-50.79-36.7c-5.87-4.05-12.64-7.58-19.5-9.23
		c-11.47-2.75-21.26,1.74-27.84,11.53c-6.88,10.24-6.47,21.04-1.05,31.99c1.15,2.32,1.92,5.89,0.95,8.02
		c-5.16,11.31-4.13,21.32,3.72,28.78c7.64,7.27,17.44,8.16,28.19,2.57c0.67-0.35,1.37-0.65,2.67-1.26
		c4.1,5.11,8.25,10.28,13.62,16.96c-6.09,0-10.39,0-14.68,0c-24.57,0-49.14,0.02-73.72-0.02c-14.39-0.02-20.11-5.7-20.14-20.73
		c-0.1-54.9-0.02-109.79-0.01-164.69c0-26.93-0.05-53.85,0-80.78c0.03-16.72,5.41-22.08,22.02-22.09c39.47-0.02,78.94-0.04,118.41,0
		c12.3,0.01,18.93,6.01,18.94,17.82c0.04,71.63-0.09,143.25-0.18,214.88C229.3,291.45,229.02,292.18,228.71,293.68z M89.8,218.84
		c19.87,0,38.81,0,58.04,0c0-19.63,0-38.81,0-58.18c-19.63,0-38.74,0-58.04,0C89.8,180.34,89.8,199.34,89.8,218.84z M213.54,154.67
		c0-19.6,0-38.78,0-58.22c-19.67,0-38.83,0-57.9,0c0,19.79,0,38.96,0,58.22C175.32,154.67,194.29,154.67,213.54,154.67z
		 M147.78,154.64c0-19.74,0-38.88,0-58.35c-19.5,0-38.42,0-57.81,0c0,19.61,0,38.77,0,58.35
		C109.19,154.64,128.12,154.64,147.78,154.64z M174.82,198.8c13.63,0,26.07,0,38.77,0c0-3.17,0-5.89,0-9.38c-9.44,0-18.47,0-27.73,0
		c0-2.92,0-5.08,0-7.42c4.06-0.26,7.63-0.49,11.35-0.73c0-3.24,0-6,0-9.15c-4.06-0.37-7.81-0.72-11.56-1.06
		c-0.28-3.49-0.51-6.28-0.76-9.4c-10.04,0-19.59,0-29.08,0c0,3.39,0,6.37,0,10.06c6.46,0,12.39,0,19.01,0
		C174.82,180.98,174.82,189.52,174.82,198.8z M183.84,209.83c-9.83,0-18.8,0-27.98,0c0,3.37,0,6.25,0,9.19c9.63,0,18.62,0,27.98,0
		C183.84,215.89,183.84,213.17,183.84,209.83z M204.69,161.52c0,6.93,0,13,0,18.95c3.39,0,6.1,0,8.75,0c0-6.67,0-12.76,0-18.95
		C210.29,161.52,207.75,161.52,204.69,161.52z M164.81,196.77c0-6.16,0-11.48,0-16.91c-3.25,0-6.03,0-8.9,0c0,5.85,0,11.34,0,16.91
		C159.15,196.77,161.66,196.77,164.81,196.77z M198.28,219.04c5.25,0,10.06,0,15.14,0c0-3.29,0-6.21,0-9.13c-5.39,0-10.19,0-15.14,0
		C198.28,213.22,198.28,215.94,198.28,219.04z"/>
	<path class="st2" d="M189.38,367.3c2.63,22.62,12.01,41.07,27.86,56.3c4.17,4.01,8.59,7.04,13.56,2.4
		c5.18-4.83,3.08-9.98-1.46-14.24c-14.62-13.71-22.12-30.63-23.78-50.52c-0.34-4.12-2.09-8.79-4.71-11.94
		c-16.99-20.46-34.4-40.58-51.68-60.8c-1.52-1.78-3.4-3.31-4.7-5.23c-3.45-5.08-3.58-10.29,0.31-15.24c4.01-5.1,9.47-6.04,14.7-2.97
		c8.76,5.14,17.33,10.7,25.47,16.78c15.28,11.4,30.06,23.47,45.38,34.81c2.91,2.15,8.28,4.02,10.86,2.73
		c2.74-1.38,4.86-6.66,4.92-10.27c0.32-19.86-0.08-39.72-0.22-59.59c-0.03-3.55,0-7.11,0-10.66c0.8-0.29,1.59-0.59,2.39-0.88
		c4.3,6.07,9.16,11.82,12.79,18.27c8.16,14.53,17.37,27.68,32.36,36.33c9.88,5.7,14.7,14.98,13.94,27.02
		c-2.41,38.23,5.77,75.36,12.5,112.59c1.37,7.57-0.65,11.93-7,15.27c-19.71,10.36-40.88,14.13-62.86,13.14
		c-3.13-0.14-7.58-3.7-8.81-6.73c-3.04-7.49-7.16-13.47-13.51-18.63c-16.1-13.08-30.57-27.68-39.98-46.66
		c-1.15-2.33-4.77-4.81-7.28-4.85c-11.12-0.19-22.26,0.45-33.39,0.9c-2.33,0.09-4.65,0.93-6.96,0.91c-6.31-0.04-8.71-4.32-9.03-9.72
		c-0.32-5.31,2.78-8.41,8.11-8.45C155.6,367.22,172.03,367.3,189.38,367.3z"/>
	<path class="st2" d="M140.41,304.52c5.62,5.45,10.92,10.6,16.68,16.18c-5.38,3.92-10.47,3.8-14.88-0.12
		C137.14,316.07,136.97,310.48,140.41,304.52z"/>
	<path class="st1" d="M89.8,218.84c0-19.5,0-38.51,0-58.18c19.29,0,38.41,0,58.04,0c0,19.37,0,38.54,0,58.18
		C128.62,218.84,109.67,218.84,89.8,218.84z M138.11,170.96c-13.24,0-25.63,0-38.28,0c0,12.81,0,24.98,0,37.66
		c12.99,0,25.6,0,38.28,0C138.11,195.8,138.11,183.59,138.11,170.96z"/>
	<path class="st1" d="M213.54,154.67c-19.24,0-38.22,0-57.9,0c0-19.27,0-38.43,0-58.22c19.07,0,38.23,0,57.9,0
		C213.54,115.88,213.54,135.07,213.54,154.67z M165.78,106.52c0,12.63,0,25.16,0,38.04c12.74,0,25.3,0,37.8,0
		c0-13.02,0-25.39,0-38.04C190.84,106.52,178.64,106.52,165.78,106.52z"/>
	<path class="st1" d="M147.78,154.64c-19.66,0-38.59,0-57.81,0c0-19.59,0-38.74,0-58.35c19.39,0,38.31,0,57.81,0
		C147.78,115.76,147.78,134.9,147.78,154.64z M137.79,144.68c0-13.06,0-25.6,0-37.85c-13.03,0-25.4,0-37.77,0
		c0,12.93,0,25.27,0,37.85C112.94,144.68,125.31,144.68,137.79,144.68z"/>
	<path class="st1" d="M174.82,198.8c0-9.28,0-17.82,0-27.08c-6.62,0-12.55,0-19.01,0c0-3.69,0-6.67,0-10.06c9.49,0,19.04,0,29.08,0
		c0.25,3.12,0.48,5.91,0.76,9.4c3.75,0.34,7.5,0.69,11.56,1.06c0,3.15,0,5.9,0,9.15c-3.72,0.24-7.29,0.47-11.35,0.73
		c0,2.34,0,4.5,0,7.42c9.27,0,18.29,0,27.73,0c0,3.49,0,6.22,0,9.38C200.89,198.8,188.45,198.8,174.82,198.8z"/>
	<path class="st1" d="M183.84,209.83c0,3.34,0,6.06,0,9.19c-9.37,0-18.35,0-27.98,0c0-2.94,0-5.82,0-9.19
		C165.04,209.83,174.01,209.83,183.84,209.83z"/>
	<path class="st1" d="M204.69,161.52c3.06,0,5.6,0,8.75,0c0,6.19,0,12.28,0,18.95c-2.65,0-5.36,0-8.75,0
		C204.69,174.52,204.69,168.45,204.69,161.52z"/>
	<path class="st1" d="M164.81,196.77c-3.15,0-5.66,0-8.9,0c0-5.58,0-11.06,0-16.91c2.88,0,5.65,0,8.9,0
		C164.81,185.29,164.81,190.61,164.81,196.77z"/>
	<path class="st1" d="M198.28,219.04c0-3.09,0-5.81,0-9.13c4.95,0,9.75,0,15.14,0c0,2.93,0,5.85,0,9.13
		C208.34,219.04,203.53,219.04,198.28,219.04z"/>
	<path class="st2" d="M138.11,170.96c0,12.63,0,24.84,0,37.66c-12.69,0-25.29,0-38.28,0c0-12.68,0-24.84,0-37.66
		C112.47,170.96,124.87,170.96,138.11,170.96z M126.61,197.22c0-5.54,0-10.12,0-14.97c-5.22,0-9.99,0-14.57,0
		c0,5.37,0,10.15,0,14.97C117.15,197.22,121.53,197.22,126.61,197.22z"/>
	<path class="st2" d="M165.78,106.52c12.87,0,25.06,0,37.8,0c0,12.65,0,25.03,0,38.04c-12.5,0-25.06,0-37.8,0
		C165.78,131.68,165.78,119.15,165.78,106.52z M191.8,117.94c-5.2,0-9.91,0-14.66,0c0,5.32,0,10.07,0,14.92c5.17,0,9.71,0,14.66,0
		C191.8,127.66,191.8,122.91,191.8,117.94z"/>
	<path class="st2" d="M137.79,144.68c-12.48,0-24.85,0-37.77,0c0-12.59,0-24.92,0-37.85c12.38,0,24.74,0,37.77,0
		C137.79,119.08,137.79,131.62,137.79,144.68z M111.66,132.83c5.4,0,9.92,0,14.9,0c0-5.2,0-9.95,0-14.91c-5.24,0-9.98,0-14.9,0
		C111.66,123.05,111.66,127.63,111.66,132.83z"/>
	<path class="st1" d="M126.61,197.22c-5.09,0-9.47,0-14.57,0c0-4.82,0-9.6,0-14.97c4.58,0,9.35,0,14.57,0
		C126.61,187.1,126.61,191.68,126.61,197.22z"/>
	<path class="st1" d="M191.8,117.94c0,4.97,0,9.72,0,14.92c-4.95,0-9.49,0-14.66,0c0-4.84,0-9.6,0-14.92
		C181.9,117.94,186.61,117.94,191.8,117.94z"/>
	<path class="st1" d="M111.66,132.83c0-5.2,0-9.78,0-14.91c4.92,0,9.65,0,14.9,0c0,4.96,0,9.7,0,14.91
		C121.58,132.83,117.06,132.83,111.66,132.83z"/>
	<path class="st3" d="M159.48,265.04c0,0-3.47,9.76,5.33,23.53s53.68,57.76,53.68,57.76s-4.05,34.68,28.2,66.68
		c0,0-3.48,45,53.05,40.28v7.42l-25.25,6.52h-27.8l-7.37-6.52l-15.49-17.92l-12.44-12.44l-13.1-16l-13.58-18.22l-9.29-7.11
		l-25.62,1.33l-18.76-0.44l-7.33-12.89l-4.38-20.44h15.61l30.84-1.33l14.05-0.89l8-1.78l-3.35-11.56l-10.87-10.67l-13.25-16.31
		l-20.8-23.69l-8.53-19.11l15.27-11.85l10.79-5.49l12.76,7.56L159.48,265.04z"/>
	<path class="st3" d="M211.67,304.58c0,0,10.18,39.69,38.21,27.93c28.03-11.76-5.58-46.11-5.58-46.11l-10.55,9.24l-13.56,5.65
		L211.67,304.58z"/>
	<path class="st4" d="M337.9,436.92c-0.79,2.89-1.79,6.54-2.59,9.43c-5.08,5.67-9.73,12.09-16.01,15.66
		c-21.37,12.13-45,16.31-69.46,14.56c-12.19-0.87-22.1-5.45-25.54-19.02c-0.86-3.4-4.33-6.27-6.91-9.1
		c-12.79-14.02-26.5-27.3-38.16-42.2c-5.06-6.47-9.51-8.62-16.79-7.44c-6.69,1.08-13.37,2.31-20.1,3.03
		c-12.82,1.38-22.81-4.72-26.03-17.19c-1.75-6.79-1.03-14.23-1.46-22.18c-9.05,0-19.33,1.05-29.28-0.35
		c-7.37-1.04-15.26-3.99-21.11-8.45c-2.54-1.93-4.39-4.77-6.06-7.84c-3.13-5.73-4.7-12.18-4.7-18.71c0-86.12,0-172.25,0-258.37
		c8.1-21.18,16.45-26.88,39.46-26.89c38.44,0,76.87-0.01,115.31,0.02c25.29,0.02,37.37,12.08,37.4,37.55
		c0.07,43.93-0.02,87.86,0.13,131.79c0.01,2.79,0.67,7.23,2.43,8.11c14.23,7.11,21.97,19.75,29.26,32.83
		c5.95,10.67,13.37,19.49,24.02,26.18c15.5,9.73,22.42,24.12,22.15,43.03c-0.28,18.99,0.97,38.14,3.31,57.01
		C329.62,398.02,334.27,417.41,337.9,436.92z M228.71,293.68c0.31-1.5,0.6-2.22,0.6-2.94c0.09-71.63,0.22-143.25,0.18-214.88
		c-0.01-11.81-6.64-17.81-18.94-17.82c-39.47-0.04-78.94-0.02-118.41,0c-16.61,0.01-21.99,5.37-22.02,22.09
		c-0.04,26.93,0.01,53.85,0,80.78c-0.01,54.9-0.09,109.79,0.01,164.69c0.03,15.03,5.75,20.71,20.14,20.73
		c24.57,0.04,49.14,0.02,73.72,0.02c4.3,0,8.6,0,14.68,0c-5.37-6.68-9.52-11.85-13.62-16.96c-1.29,0.61-1.99,0.91-2.67,1.26
		c-10.75,5.59-20.54,4.69-28.19-2.57c-7.85-7.46-8.88-17.46-3.72-28.78c0.97-2.12,0.2-5.7-0.95-8.02c-5.5-11.1-5.84-22.04,1.33-32.4
		c6.54-9.45,18.14-13.82,29.2-10.69c6.3,1.78,12.46,5.07,17.87,8.8C194.87,268.66,211.34,281.05,228.71,293.68z M189.38,367.3
		c-17.35,0-33.79-0.08-50.22,0.05c-5.33,0.04-8.43,3.14-8.11,8.45c0.33,5.39,2.73,9.68,9.03,9.72c2.32,0.01,4.63-0.82,6.96-0.91
		c11.13-0.45,22.26-1.08,33.39-0.9c2.51,0.04,6.13,2.52,7.28,4.85c9.41,18.98,23.88,33.58,39.98,46.66
		c6.35,5.16,10.48,11.13,13.51,18.63c1.23,3.03,5.68,6.59,8.81,6.73c21.98,0.99,43.15-2.78,62.86-13.14c6.35-3.34,8.37-7.7,7-15.27
		c-6.73-37.22-14.91-74.36-12.5-112.59c0.76-12.04-4.06-21.32-13.94-27.02c-14.99-8.65-24.2-21.8-32.36-36.33
		c-3.62-6.45-8.49-12.2-12.79-18.27c-1.23,0.39-1.16,0.37-2.39,0.75c0,3.6-0.02,7.2,0,10.79c0.14,19.86,0.54,39.73,0.22,59.59
		c-0.06,3.61-2.18,8.89-4.92,10.27c-2.58,1.3-7.96-0.57-10.86-2.73c-15.32-11.34-30.1-23.41-45.38-34.81
		c-8.14-6.07-16.71-11.64-25.47-16.78c-5.23-3.07-10.69-2.13-14.7,2.97c-3.89,4.94-3.76,10.16-0.31,15.24
		c1.31,1.92,3.18,3.45,4.7,5.23c17.28,20.22,34.69,40.34,51.68,60.8c2.62,3.15,4.37,7.82,4.71,11.94
		c1.66,19.9,9.16,36.81,23.78,50.52c4.53,4.25,6.64,9.41,1.46,14.24c-4.97,4.64-9.39,1.6-13.56-2.4
		C201.39,408.36,192.01,389.92,189.38,367.3z M140.41,304.52c-3.44,5.96-3.26,11.56,1.8,16.06c4.41,3.93,9.5,4.05,14.88,0.12
		C151.33,315.11,146.03,309.97,140.41,304.52z"/>
</g>
</svg>
