<svg xmlns="http://www.w3.org/2000/svg" width="12.604" height="12.604" viewBox="0 0 12.604 12.604">
  <path id="linkedin" d="M3.447,10.413H2.709a.492.492,0,0,1-.492-.492V5.342a.492.492,0,0,1,.492-.492h.739a.492.492,0,0,1,.492.492V9.921A.492.492,0,0,1,3.447,10.413Zm.664-7.336A1.009,1.009,0,1,0,3.1,4.087,1.009,1.009,0,0,0,4.111,3.077Zm6.278,6.844V7.352c0-1.494-.316-2.6-2.06-2.6A1.788,1.788,0,0,0,6.7,5.607h0V5.342A.492.492,0,0,0,6.2,4.85H5.515a.492.492,0,0,0-.492.492V9.921a.492.492,0,0,0,.492.492H6.2A.492.492,0,0,0,6.7,9.921V7.651c0-.723.184-1.424,1.081-1.424s.913.827.913,1.47V9.921a.492.492,0,0,0,.492.492H9.9a.492.492,0,0,0,.492-.492Zm2.216.714a.492.492,0,1,0-.985,0,.986.986,0,0,1-.985.985H1.97a.986.986,0,0,1-.985-.985V1.969A.986.986,0,0,1,1.97.985h8.666a.986.986,0,0,1,.985.985V8.149a.492.492,0,1,0,.985,0V1.969A1.972,1.972,0,0,0,10.635,0H1.97A1.972,1.972,0,0,0,0,1.969v8.666A1.972,1.972,0,0,0,1.97,12.6h8.666A1.972,1.972,0,0,0,12.6,10.635Zm0,0" transform="translate(0)" fill="#772066"/>
</svg>
