<svg xmlns="http://www.w3.org/2000/svg" viewBox="0 0 571.25 512.82"><defs><style>.cls-1,.cls-2{fill:#fff;}.cls-1{stroke:#fff;stroke-miterlimit:10;}</style></defs><title>senha_criada</title><g id="Camada_2" data-name="Camada 2"><g id="Camada_1-2" data-name="Camada 1"><rect class="cls-1" x="279.12" y="0.5" width="16.52" height="41.11" rx="8.26" ry="8.26"/><rect class="cls-1" x="531.86" y="223.26" width="41.11" height="16.52" rx="8.26" ry="8.26" transform="translate(-32.96 358.4) rotate(-34.97)"/><path class="cls-1" d="M452.32,321.12H311.52v31.61a32.4,32.4,0,0,1-64.8,0V321.12H93.92v166a25.23,25.23,0,0,0,25.2,25.2h320a25.23,25.23,0,0,0,25.2-25.2v-166Zm-217.18,37.6a44.39,44.39,0,0,0,88,0H426.72v52H131.52v-52Zm191.58,64v52H131.52v-52Zm25.6,64.4a13.21,13.21,0,0,1-13.2,13.2h-320a13.22,13.22,0,0,1-13.2-13.2v-154h128.8v13.6H125.52a6,6,0,0,0-6,6v128a6,6,0,0,0,6,6h307.2a6,6,0,0,0,6-6v-128a6,6,0,0,0-6-6H323.52v-13.6h128.8Z"/><path class="cls-1" d="M439.12,130h-320a25.23,25.23,0,0,0-25.2,25.2V230.1h139.8v1.51h1v-4.4h-1v12h1.42a44.38,44.38,0,0,0,87.58,2.31V230.1h141.6V155.21A25.23,25.23,0,0,0,439.12,130Zm-141.2,12h128.8v52H297.92Zm-25.6,0h13.6v52h-13.6Zm-140.8,0h128.8v52H131.52Zm103.2,70.8v6.8H105.92v-64.4a13.22,13.22,0,0,1,13.2-13.2h.4v58a6,6,0,0,0,6,6H236A18.73,18.73,0,0,0,234.72,212.82Zm76.8,20.38v0a32.4,32.4,0,0,1-64.8,0V212.82a6.81,6.81,0,0,1,6.8-6.8h51.2a6.81,6.81,0,0,1,6.8,6.8Zm12-13.57v-6.8a18.71,18.71,0,0,0-1.28-6.8H432.72a6,6,0,0,0,6-6V142h.4a13.21,13.21,0,0,1,13.2,13.2v64.4Z"/><path class="cls-2" d="M464.32,230.1l-21.6.5-70.5,20.5h-59c-1.42,3.41-3.78,10.51-6.86,13.14h65.49l74.5,56.87h18l-84.45-61.75Z"/><path class="cls-2" d="M247.24,251.1l-63.52,1-71-22.5-18.8,1.5,85.74,29.41-85.74,60.6,18.93.13,78.5-57H254.1C251,261.61,248.66,254.51,247.24,251.1Z"/><rect class="cls-1" x="461.26" y="63.91" width="41.11" height="16.52" rx="8.26" ry="8.26" transform="translate(109.42 386.3) rotate(-48.67)"/><path class="cls-1" d="M2,221H2a8.09,8.09,0,0,0,2.1,11.5L25,246.59a8.71,8.71,0,0,0,11.88-2h0a8.09,8.09,0,0,0-2.1-11.5L13.92,219A8.71,8.71,0,0,0,2,221Z"/><path class="cls-1" d="M78.37,58h0a8.07,8.07,0,0,0-.77,11.65L94.38,88.12a8.73,8.73,0,0,0,12,.75h0a8.07,8.07,0,0,0,.77-11.65L90.41,58.74A8.73,8.73,0,0,0,78.37,58Z"/><path class="cls-1" d="M273.38,239.17v5.66c0,2.41,2.69,4.36,6,4.36s6-2,6-4.36v-5.66c7.43-1.82,12.8-6.93,12.8-12.94,0-7.53-8.43-13.65-18.8-13.65s-18.8,6.13-18.8,13.65c0,6,5.37,11.12,12.8,12.94Zm6-17.88c3.75,0,6.8,2.22,6.8,4.94s-3.05,4.94-6.8,4.94-6.8-2.22-6.8-4.94,3.05-4.94,6.8-4.94Zm0,0"/><path class="cls-1" d="M157.78,156.86a11.6,11.6,0,1,0,11.6,11.6,11.62,11.62,0,0,0-11.6-11.6Zm0,0"/><path class="cls-1" d="M157.78,371.07a11.6,11.6,0,1,0,11.6,11.6,11.61,11.61,0,0,0-11.6-11.6Zm0,0"/><path class="cls-1" d="M157.78,435.07a11.6,11.6,0,1,0,11.6,11.6,11.61,11.61,0,0,0-11.6-11.6Zm0,0"/><path class="cls-1" d="M401,156.86a11.6,11.6,0,1,0,11.6,11.6,11.62,11.62,0,0,0-11.6-11.6Zm0,0"/><path class="cls-1" d="M401,394.27a11.6,11.6,0,1,0-11.6-11.6,11.61,11.61,0,0,0,11.6,11.6Zm0,0"/><path class="cls-1" d="M401,435.07a11.6,11.6,0,1,0,11.6,11.6,11.61,11.61,0,0,0-11.6-11.6Zm0,0"/></g></g></svg>