<?xml version="1.0" encoding="iso-8859-1"?>
<!-- Generator: Adobe Illustrator 19.0.0, SVG Export Plug-In . SVG Version: 6.00 Build 0)  -->
<svg version="1.1" id="Layer_1" xmlns="http://www.w3.org/2000/svg" xmlns:xlink="http://www.w3.org/1999/xlink" x="0px" y="0px"
	 viewBox="0 0 24 24" style="enable-background:new 0 0 24 24;" xml:space="preserve">
<g id="XMLID_229_">
	<path id="XMLID_235_" style="fill:none;" d="M0,0h24v24H0V0z"/>
	<path id="XMLID_230_" style="fill:#944684;" d="M12.93,4c2.76,0,5,2.24,5,5c0,1.06-0.39,2.32-1,3.62l1.49,1.49
		c0.88-1.75,1.51-3.54,1.51-5.11c0-3.87-3.13-7-7-7c-1.84,0-3.5,0.71-4.75,1.86l1.43,1.43C10.49,4.5,11.65,4,12.93,4z M12.93,6.5
		c-0.59,0-1.13,0.21-1.56,0.56l3.5,3.5c0.35-0.43,0.56-0.97,0.56-1.56C15.43,7.62,14.31,6.5,12.93,6.5z M4.34,2.86L2.93,4.27
		l3.18,3.18C6,7.95,5.93,8.47,5.93,9c0,5.25,7,13,7,13s1.67-1.85,3.38-4.35L19.66,21l1.41-1.41L4.34,2.86z M12.93,18.88
		c-2.01-2.58-4.8-6.74-4.98-9.59l6.92,6.92C14.22,17.19,13.54,18.1,12.93,18.88z"/>
</g>
</svg>
