<?xml version="1.0" encoding="iso-8859-1"?>
<!-- Generator: Adobe Illustrator 19.0.0, SVG Export Plug-In . SVG Version: 6.00 Build 0)  -->
<svg version="1.1" id="Layer_1" xmlns="http://www.w3.org/2000/svg" xmlns:xlink="http://www.w3.org/1999/xlink" x="0px" y="0px"
	 viewBox="0 0 24 24" style="enable-background:new 0 0 24 24;" xml:space="preserve">
<g id="XMLID_2228_">
	<path id="XMLID_2235_" style="fill:none;" d="M-0.102-0.076h24v24h-24V-0.076z"/>
	<path id="XMLID_2229_" style="fill:#944684;" d="M21.898,9.924v-4c0-1.11-0.9-2-2-2h-16c-1.1,0-1.99,0.89-1.99,2v4
		c1.1,0,1.99,0.9,1.99,2s-0.89,2-2,2v4c0,1.1,0.9,2,2,2h16c1.1,0,2-0.9,2-2v-4c-1.1,0-2-0.9-2-2S20.798,9.924,21.898,9.924z
		 M19.898,8.464c-1.19,0.69-2,1.99-2,3.46s0.81,2.77,2,3.46v2.54h-16v-2.54c1.19-0.69,2-1.99,2-3.46c0-1.48-0.8-2.77-1.99-3.46
		l-0.01-2.54h16V8.464z M10.898,14.924h2v2h-2V14.924z M10.898,10.924h2v2h-2V10.924z M10.898,6.924h2v2h-2V6.924z"/>
</g>
</svg>
