<?xml version="1.0" encoding="iso-8859-1"?>
<!-- Generator: Adobe Illustrator 19.0.0, SVG Export Plug-In . SVG Version: 6.00 Build 0)  -->
<svg version="1.1" id="Layer_1" xmlns="http://www.w3.org/2000/svg" xmlns:xlink="http://www.w3.org/1999/xlink" x="0px" y="0px"
	 viewBox="0 0 24 24" style="enable-background:new 0 0 24 24;" xml:space="preserve">
<g id="XMLID_483_">
	<path id="XMLID_490_" style="fill:none;" d="M0,0h24v24H0V0z"/>
	<path id="XMLID_484_" style="fill:#944684;" d="M20,7h-4V5l-2-2h-4L8,5v2H4C2.9,7,2,7.9,2,9v5c0,0.75,0.4,1.38,1,1.73V19
		c0,1.11,0.89,2,2,2h14c1.11,0,2-0.89,2-2v-3.28c0.59-0.35,1-0.99,1-1.72V9C22,7.9,21.1,7,20,7z M10,5h4v2h-4V5z M4,9h16v5h-5v-3H9
		v3H4V9z M13,15h-2v-2h2V15z M19,19H5v-3h4v1h6v-1h4V19z"/>
</g>
</svg>
