<?xml version="1.0" encoding="iso-8859-1"?>
<!-- Generator: Adobe Illustrator 19.0.0, SVG Export Plug-In . SVG Version: 6.00 Build 0)  -->
<svg version="1.1" id="Layer_1" xmlns="http://www.w3.org/2000/svg" xmlns:xlink="http://www.w3.org/1999/xlink" x="0px" y="0px"
	 viewBox="0 0 24 24" style="enable-background:new 0 0 24 24;" xml:space="preserve">
<g id="XMLID_1170_">
	<path id="XMLID_1176_" style="fill:none;" d="M0,0h24v24H0V0z"/>
	<path id="XMLID_1171_" style="fill:#944684;" d="M18,16.08c-0.76,0-1.44,0.3-1.96,0.77L8.91,12.7C8.96,12.47,9,12.24,9,12
		s-0.04-0.47-0.09-0.7l7.05-4.11C16.5,7.69,17.21,8,18,8c1.66,0,3-1.34,3-3s-1.34-3-3-3s-3,1.34-3,3c0,0.24,0.04,0.47,0.09,0.7
		L8.04,9.81C7.5,9.31,6.79,9,6,9c-1.66,0-3,1.34-3,3s1.34,3,3,3c0.79,0,1.5-0.31,2.04-0.81l7.12,4.16
		c-0.05,0.21-0.08,0.43-0.08,0.65c0,1.61,1.31,2.92,2.92,2.92s2.92-1.31,2.92-2.92S19.61,16.08,18,16.08z M18,4c0.55,0,1,0.45,1,1
		s-0.45,1-1,1s-1-0.45-1-1S17.45,4,18,4z M6,13c-0.55,0-1-0.45-1-1s0.45-1,1-1s1,0.45,1,1S6.55,13,6,13z M18,20.02
		c-0.55,0-1-0.45-1-1s0.45-1,1-1s1,0.45,1,1S18.55,20.02,18,20.02z"/>
</g>
</svg>
